<svg width="130" height="96" viewBox="0 0 130 96" fill="none" xmlns="http://www.w3.org/2000/svg">
<path d="M32.7553 92.3416C32.3073 92.3416 31.9073 92.2576 31.5553 92.0896C31.2113 91.9216 30.9393 91.6896 30.7393 91.3936C30.5473 91.0976 30.4513 90.7576 30.4513 90.3736C30.4513 89.7656 30.6793 89.2976 31.1353 88.9696C31.5993 88.6336 32.2433 88.4656 33.0673 88.4656C33.5633 88.4656 34.0433 88.5256 34.5073 88.6456V88.3336C34.5073 88.0136 34.4033 87.7776 34.1953 87.6256C33.9953 87.4656 33.6953 87.3856 33.2953 87.3856C33.0473 87.3856 32.7673 87.4256 32.4553 87.5056C32.1513 87.5856 31.7913 87.7136 31.3753 87.8896L30.6793 86.4616C31.1993 86.2296 31.6993 86.0576 32.1793 85.9456C32.6673 85.8256 33.1553 85.7656 33.6433 85.7656C34.5233 85.7656 35.2073 85.9776 35.6953 86.4016C36.1833 86.8176 36.4273 87.4056 36.4273 88.1656V92.2336H34.5073V91.8496C34.2513 92.0256 33.9793 92.1536 33.6913 92.2336C33.4113 92.3056 33.0993 92.3416 32.7553 92.3416ZM32.2993 90.3376C32.2993 90.5376 32.3873 90.6936 32.5633 90.8056C32.7393 90.9176 32.9833 90.9736 33.2953 90.9736C33.5273 90.9736 33.7433 90.9496 33.9433 90.9016C34.1513 90.8536 34.3393 90.7776 34.5073 90.6736V89.8576C34.3233 89.8096 34.1353 89.7736 33.9433 89.7496C33.7513 89.7256 33.5553 89.7136 33.3553 89.7136C33.0193 89.7136 32.7593 89.7696 32.5753 89.8816C32.3913 89.9856 32.2993 90.1376 32.2993 90.3376ZM38.7828 92.2336V85.8856H40.7268V86.5216C40.9348 86.2656 41.1788 86.0736 41.4588 85.9456C41.7388 85.8096 42.0508 85.7416 42.3948 85.7416C42.7388 85.7496 42.9828 85.8016 43.1268 85.8976V87.5896C42.9988 87.5256 42.8548 87.4776 42.6948 87.4456C42.5348 87.4136 42.3708 87.3976 42.2028 87.3976C41.8988 87.3976 41.6148 87.4696 41.3508 87.6136C41.0948 87.7496 40.8868 87.9456 40.7268 88.2016V92.2336H38.7828ZM48.3665 92.3176C47.6065 92.3176 47.0305 92.1496 46.6385 91.8136C46.2545 91.4696 46.0625 90.9656 46.0625 90.3016V87.5056H44.7785V85.8856H46.0625V84.2536L48.0065 83.8336V85.8856H49.7825V87.5056H48.0065V89.9176C48.0065 90.1976 48.0665 90.3976 48.1865 90.5176C48.3145 90.6296 48.5345 90.6856 48.8465 90.6856C49.0065 90.6856 49.1505 90.6776 49.2785 90.6616C49.4145 90.6376 49.5625 90.6016 49.7225 90.5536V92.1256C49.5465 92.1816 49.3225 92.2256 49.0505 92.2576C48.7785 92.2976 48.5505 92.3176 48.3665 92.3176ZM54.3666 92.3536C53.7666 92.3536 53.2106 92.2856 52.6986 92.1496C52.1866 92.0056 51.7426 91.7976 51.3666 91.5256L52.2906 90.2176C52.6906 90.4576 53.0546 90.6336 53.3826 90.7456C53.7106 90.8496 54.0346 90.9016 54.3546 90.9016C54.6746 90.9016 54.9266 90.8576 55.1106 90.7696C55.3026 90.6736 55.3986 90.5496 55.3986 90.3976C55.3986 90.2776 55.3466 90.1816 55.2426 90.1096C55.1386 90.0296 54.9746 89.9736 54.7506 89.9416L53.4906 89.7496C52.8586 89.6536 52.3746 89.4456 52.0386 89.1256C51.7106 88.7976 51.5466 88.3736 51.5466 87.8536C51.5466 87.4216 51.6546 87.0536 51.8706 86.7496C52.0946 86.4376 52.4106 86.2016 52.8186 86.0416C53.2266 85.8736 53.7146 85.7896 54.2826 85.7896C54.7466 85.7896 55.2066 85.8536 55.6626 85.9816C56.1186 86.1096 56.5426 86.3016 56.9346 86.5576L56.0106 87.8056C55.6666 87.6056 55.3386 87.4616 55.0266 87.3736C54.7146 87.2776 54.4026 87.2296 54.0906 87.2296C53.8426 87.2296 53.6426 87.2736 53.4906 87.3616C53.3386 87.4416 53.2626 87.5496 53.2626 87.6856C53.2626 87.8136 53.3186 87.9176 53.4306 87.9976C53.5426 88.0696 53.7346 88.1256 54.0066 88.1656L55.2666 88.3576C55.8906 88.4456 56.3706 88.6536 56.7066 88.9816C57.0506 89.3016 57.2226 89.7096 57.2226 90.2056C57.2226 90.6216 57.0986 90.9896 56.8506 91.3096C56.6026 91.6296 56.2626 91.8856 55.8306 92.0776C55.4066 92.2616 54.9186 92.3536 54.3666 92.3536ZM62.2509 92.3176C61.4909 92.3176 60.9149 92.1496 60.5229 91.8136C60.1389 91.4696 59.9469 90.9656 59.9469 90.3016V87.5056H58.6629V85.8856H59.9469V84.2536L61.8909 83.8336V85.8856H63.6669V87.5056H61.8909V89.9176C61.8909 90.1976 61.9509 90.3976 62.0709 90.5176C62.1989 90.6296 62.4189 90.6856 62.7309 90.6856C62.8909 90.6856 63.0349 90.6776 63.1629 90.6616C63.2989 90.6376 63.4469 90.6016 63.6069 90.5536V92.1256C63.4309 92.1816 63.2069 92.2256 62.9349 92.2576C62.6629 92.2976 62.4349 92.3176 62.2509 92.3176ZM67.6538 92.3416C67.2058 92.3416 66.8058 92.2576 66.4538 92.0896C66.1098 91.9216 65.8378 91.6896 65.6378 91.3936C65.4458 91.0976 65.3498 90.7576 65.3498 90.3736C65.3498 89.7656 65.5778 89.2976 66.0338 88.9696C66.4978 88.6336 67.1418 88.4656 67.9658 88.4656C68.4618 88.4656 68.9418 88.5256 69.4058 88.6456V88.3336C69.4058 88.0136 69.3018 87.7776 69.0938 87.6256C68.8938 87.4656 68.5938 87.3856 68.1938 87.3856C67.9458 87.3856 67.6658 87.4256 67.3538 87.5056C67.0498 87.5856 66.6898 87.7136 66.2738 87.8896L65.5778 86.4616C66.0978 86.2296 66.5978 86.0576 67.0778 85.9456C67.5658 85.8256 68.0538 85.7656 68.5418 85.7656C69.4218 85.7656 70.1058 85.9776 70.5938 86.4016C71.0818 86.8176 71.3258 87.4056 71.3258 88.1656V92.2336H69.4058V91.8496C69.1498 92.0256 68.8778 92.1536 68.5898 92.2336C68.3098 92.3056 67.9978 92.3416 67.6538 92.3416ZM67.1978 90.3376C67.1978 90.5376 67.2858 90.6936 67.4618 90.8056C67.6378 90.9176 67.8818 90.9736 68.1938 90.9736C68.4258 90.9736 68.6418 90.9496 68.8418 90.9016C69.0498 90.8536 69.2378 90.7776 69.4058 90.6736V89.8576C69.2218 89.8096 69.0338 89.7736 68.8418 89.7496C68.6498 89.7256 68.4538 89.7136 68.2538 89.7136C67.9178 89.7136 67.6578 89.7696 67.4738 89.8816C67.2898 89.9856 67.1978 90.1376 67.1978 90.3376ZM76.7095 92.3176C75.9495 92.3176 75.3735 92.1496 74.9815 91.8136C74.5975 91.4696 74.4055 90.9656 74.4055 90.3016V87.5056H73.1215V85.8856H74.4055V84.2536L76.3495 83.8336V85.8856H78.1255V87.5056H76.3495V89.9176C76.3495 90.1976 76.4095 90.3976 76.5295 90.5176C76.6575 90.6296 76.8775 90.6856 77.1895 90.6856C77.3495 90.6856 77.4935 90.6776 77.6215 90.6616C77.7575 90.6376 77.9055 90.6016 78.0655 90.5536V92.1256C77.8895 92.1816 77.6655 92.2256 77.3935 92.2576C77.1215 92.2976 76.8935 92.3176 76.7095 92.3176ZM80.0844 92.2336V85.8856H82.0284V92.2336H80.0844ZM81.0564 85.2976C80.7604 85.2976 80.5084 85.1936 80.3004 84.9856C80.0924 84.7776 79.9884 84.5256 79.9884 84.2296C79.9884 83.9336 80.0924 83.6816 80.3004 83.4736C80.5084 83.2656 80.7604 83.1616 81.0564 83.1616C81.3524 83.1616 81.6044 83.2656 81.8124 83.4736C82.0204 83.6816 82.1244 83.9336 82.1244 84.2296C82.1244 84.5256 82.0204 84.7776 81.8124 84.9856C81.6044 85.1936 81.3524 85.2976 81.0564 85.2976ZM87.581 92.3536C86.933 92.3536 86.349 92.2096 85.829 91.9216C85.309 91.6256 84.897 91.2296 84.593 90.7336C84.289 90.2376 84.137 89.6816 84.137 89.0656C84.137 88.4496 84.289 87.8936 84.593 87.3976C84.897 86.8936 85.309 86.4976 85.829 86.2096C86.349 85.9136 86.933 85.7656 87.581 85.7656C88.229 85.7656 88.813 85.9136 89.333 86.2096C89.853 86.4976 90.265 86.8936 90.569 87.3976C90.873 87.8936 91.025 88.4496 91.025 89.0656C91.025 89.6816 90.873 90.2376 90.569 90.7336C90.265 91.2296 89.853 91.6256 89.333 91.9216C88.813 92.2096 88.229 92.3536 87.581 92.3536ZM87.581 90.6736C87.877 90.6736 88.141 90.6016 88.373 90.4576C88.605 90.3136 88.789 90.1216 88.925 89.8816C89.061 89.6336 89.129 89.3616 89.129 89.0656C89.129 88.7616 89.061 88.4896 88.925 88.2496C88.789 88.0016 88.601 87.8056 88.361 87.6616C88.129 87.5176 87.869 87.4456 87.581 87.4456C87.293 87.4456 87.029 87.5176 86.789 87.6616C86.557 87.8056 86.373 88.0016 86.237 88.2496C86.101 88.4896 86.033 88.7616 86.033 89.0656C86.033 89.3616 86.101 89.6336 86.237 89.8816C86.373 90.1216 86.557 90.3136 86.789 90.4576C87.029 90.6016 87.293 90.6736 87.581 90.6736ZM93.1367 92.2336V85.8856H95.0807V86.3176C95.5607 85.9496 96.1287 85.7656 96.7847 85.7656C97.2807 85.7656 97.7167 85.8736 98.0927 86.0896C98.4767 86.3056 98.7767 86.6056 98.9927 86.9896C99.2087 87.3736 99.3167 87.8176 99.3167 88.3216V92.2336H97.3727V88.5856C97.3727 88.2336 97.2687 87.9536 97.0607 87.7456C96.8527 87.5376 96.5727 87.4336 96.2207 87.4336C95.9727 87.4336 95.7527 87.4776 95.5607 87.5656C95.3767 87.6536 95.2167 87.7776 95.0807 87.9376V92.2336H93.1367Z" fill="#100B00"/>
<path d="M31.0051 45.4739L36.7263 55.2274C37.8834 57.4441 40.1975 58.9641 42.8331 58.9641H80.9527L73.046 45.4739H31.0051Z" fill="#100B00"/>
<path d="M99.0164 45.5374C99.0164 44.2074 98.6307 42.9407 97.9236 41.864L75.5532 3.61006C74.3961 1.45669 72.1462 0 69.5106 0H57.6826L92.2024 58.901L97.6664 49.5908C98.695 47.8175 99.0164 47.0575 99.0164 45.5374Z" fill="#100B00"/>
<path d="M67.4533 35.8475L52.0897 9.56372L36.6619 35.8475H67.4533Z" fill="#100B00"/>
</svg>
