<svg width="25" height="25" viewBox="0 0 25 25" fill="none" xmlns="http://www.w3.org/2000/svg">
<rect width="25" height="25" rx="4" fill="#FFF8DE"/>
<g clip-path="url(#clip0_620_3)">
<path d="M8.22079 6C8.85002 6 9.42367 6.05457 9.94186 6.16391C10.4601 6.27316 10.9042 6.45237 11.2743 6.70093C11.6443 6.9498 11.9312 7.28062 12.1348 7.69341C12.3384 8.10619 12.4402 8.61592 12.4402 9.22279C12.4402 9.87835 12.289 10.4246 11.9868 10.8614C11.6844 11.2984 11.2373 11.6564 10.6451 11.9357C11.4594 12.1663 12.0669 12.5701 12.468 13.1464C12.8687 13.7231 13.0696 14.4181 13.0696 15.2312C13.0696 15.8867 12.9401 16.4543 12.6808 16.9338C12.4219 17.4135 12.0731 17.8049 11.6354 18.1079C11.1974 18.4115 10.6977 18.6359 10.1364 18.7818C9.57163 18.9278 8.99002 19.0011 8.40609 19.0001H2.00281V6H8.22079ZM7.85071 11.2621C8.36891 11.2621 8.79445 11.1408 9.12765 10.8979C9.46075 10.6552 9.62725 10.2606 9.62725 9.71443C9.62725 9.4111 9.57179 9.16213 9.46075 8.96793C9.34972 8.77384 9.20171 8.62181 9.01662 8.51277C8.83153 8.40343 8.61871 8.32788 8.37815 8.28509C8.13072 8.2421 7.8799 8.2208 7.62865 8.22143H4.90827V11.2622H7.85071V11.2621ZM8.01721 16.7788C8.30084 16.7788 8.57238 16.7514 8.83142 16.6968C9.09047 16.6422 9.31863 16.5511 9.51622 16.4236C9.71339 16.2963 9.87075 16.1232 9.98808 15.9046C10.1052 15.6863 10.1638 15.4071 10.1638 15.0671C10.1638 14.3997 9.97243 13.9233 9.59017 13.6379C9.20759 13.3527 8.7018 13.21 8.07268 13.21H4.90827V16.7786L8.01721 16.7788V16.7788ZM16.7259 16.5057C17.1207 16.8823 17.6883 17.0701 18.4285 17.0701C18.9588 17.0701 19.4154 16.9399 19.7978 16.6787C20.1803 16.4181 20.4147 16.1417 20.5011 15.8503H22.8143C22.4443 16.9791 21.8766 17.7865 21.1118 18.2718C20.3467 18.7574 19.4213 19.0001 18.3358 19.0001C17.5832 19.0001 16.9045 18.8818 16.3001 18.645C15.6954 18.4084 15.1833 18.0715 14.7642 17.6345C14.3447 17.1977 14.0208 16.6761 13.7925 16.0689C13.5642 15.4621 13.4503 14.7943 13.4503 14.066C13.4503 13.3622 13.5672 12.7068 13.8019 12.0998C14.036 11.493 14.369 10.968 14.8013 10.5247C15.2328 10.0818 15.7481 9.73283 16.3465 9.47786C16.9448 9.2229 17.6079 9.09557 18.3359 9.09557C19.1502 9.09557 19.8595 9.25028 20.4642 9.55982C21.0685 9.86925 21.5652 10.2854 21.954 10.807C22.3425 11.329 22.623 11.9239 22.7961 12.5912C22.9688 13.259 23.0303 13.9568 22.9812 14.6851H16.0784C16.1153 15.5224 16.3309 16.1296 16.7259 16.5057V16.5057ZM19.6961 11.5534C19.3816 11.2136 18.9033 11.0435 18.262 11.0435C17.8425 11.0435 17.494 11.1135 17.2165 11.2529C16.9389 11.3928 16.7167 11.5653 16.5501 11.7718C16.3837 11.9783 16.2663 12.1969 16.1986 12.4273C16.1306 12.658 16.0905 12.8644 16.0782 13.0464H20.3531C20.2297 12.3908 20.0108 11.8933 19.6961 11.5534V11.5534ZM15.6295 6.6601H20.9706V8.11714H15.6295V6.6601Z" fill="#100B00"/>
</g>
<defs>
<clipPath id="clip0_620_3">
<rect width="21" height="13" fill="white" transform="translate(2 6)"/>
</clipPath>
</defs>
</svg>
