<svg width="561" height="132" viewBox="0 0 561 132" fill="none" xmlns="http://www.w3.org/2000/svg">
<path d="M20.79 54.4335C23.463 50.4735 27.126 47.256 31.779 44.781C36.531 42.306 41.9265 41.0685 47.9655 41.0685C54.9945 41.0685 61.3305 42.801 66.9735 46.266C72.7155 49.731 77.22 54.681 80.487 61.116C83.853 67.452 85.536 74.8275 85.536 83.2425C85.536 91.6575 83.853 99.132 80.487 105.666C77.22 112.101 72.7155 117.101 66.9735 120.665C61.3305 124.229 54.9945 126.011 47.9655 126.011C41.8275 126.011 36.432 124.822 31.779 122.447C27.225 119.971 23.562 116.803 20.79 112.942V124.674H0V14.784H20.79V54.4335ZM64.3005 83.2425C64.3005 78.2925 63.261 74.0355 61.182 70.4715C59.202 66.8085 56.529 64.0365 53.163 62.1555C49.9141 60.279 46.2227 59.3051 42.471 59.334C38.709 59.334 35.145 60.324 31.779 62.304C28.512 64.185 25.839 66.957 23.76 70.62C21.78 74.283 20.79 78.5895 20.79 83.5395C20.79 88.4895 21.78 92.796 23.76 96.459C25.839 100.122 28.512 102.944 31.779 104.924C35.145 106.805 38.709 107.745 42.471 107.745C46.332 107.745 49.896 106.755 53.163 104.775C56.529 102.795 59.202 99.9735 61.182 96.3105C63.261 92.6475 64.3005 88.2915 64.3005 83.2425ZM111.185 32.604C107.522 32.604 104.453 31.4655 101.978 29.1885C99.6023 26.8125 98.4142 23.892 98.4142 20.427C98.4142 16.962 99.6023 14.091 101.978 11.814C104.453 9.438 107.522 8.25 111.185 8.25C114.848 8.25 117.868 9.438 120.244 11.814C122.719 14.091 123.956 16.962 123.956 20.427C123.956 23.892 122.719 26.8125 120.244 29.1885C117.868 31.4655 114.848 32.604 111.185 32.604ZM121.432 42.405V124.674H100.642V42.405H121.432ZM190.682 124.674L162.764 89.628V124.674H141.974V14.784H162.764V77.3025L190.385 42.405H217.412L181.178 83.688L217.709 124.674H190.682ZM219.223 83.5395C219.223 75.0255 220.956 67.6005 224.421 61.2645C227.886 54.8295 232.687 49.8795 238.825 46.4145C244.963 42.8505 251.992 41.0685 259.912 41.0685C270.109 41.0685 278.524 43.6425 285.157 48.7905C291.889 53.8395 296.394 60.9675 298.671 70.1745H276.251C275.063 66.6105 273.034 63.8385 270.163 61.8585C267.391 59.7795 263.926 58.74 259.768 58.74C253.828 58.74 249.125 60.918 245.66 65.274C242.195 69.531 240.463 75.6195 240.463 83.5395C240.463 91.3605 242.195 97.449 245.66 101.805C249.125 106.062 253.828 108.191 259.768 108.191C268.183 108.191 273.677 104.429 276.251 96.9045H298.675C296.398 105.815 291.893 112.893 285.161 118.14C278.429 123.387 270.014 126.011 259.916 126.011C251.996 126.011 244.967 124.278 238.829 120.813C232.74 117.299 227.752 112.157 224.425 105.963C220.96 99.528 219.227 92.0535 219.227 83.5395H219.223ZM330.569 55.176C333.119 50.9417 336.694 47.4177 340.964 44.9295C345.32 42.4545 350.27 41.217 355.814 41.217V63.0465H350.32C343.786 63.0465 338.836 64.581 335.47 67.65C332.203 70.719 330.569 76.065 330.569 83.688V124.674H309.779V42.405H330.569V55.176ZM419.562 112.942C417.285 116.704 413.573 119.873 408.425 122.447C403.277 124.922 397.733 126.159 391.793 126.159C386.645 126.159 381.992 125.119 377.834 123.04C373.676 120.961 370.409 118.09 368.033 114.427C365.657 110.764 364.469 106.557 364.469 101.805C364.469 94.182 367.29 87.945 372.933 83.094C378.675 78.243 387.239 75.8175 398.624 75.8175H419.562C419.364 70.5705 417.83 66.4125 414.959 63.3435C412.187 60.1755 408.326 58.5915 403.376 58.5915C399.02 58.5915 395.406 59.7795 392.535 62.1555C389.664 64.4325 387.833 67.65 387.041 71.808H366.251C367.241 65.868 369.369 60.5715 372.636 55.9185C375.973 51.1912 380.474 47.4057 385.704 44.9295C391.149 42.2565 397.237 40.92 403.969 40.92C410.899 40.92 417.137 42.3555 422.681 45.2265C428.187 47.9692 432.778 52.251 435.897 57.552C439.065 62.898 440.649 69.1845 440.649 76.4115V124.674H419.562V112.942ZM397.881 109.379C401.346 109.379 404.712 108.636 407.979 107.151C411.345 105.666 414.117 103.439 416.295 100.469C418.473 97.4985 419.562 93.984 419.562 89.925V89.331H399.812C395.06 89.331 391.496 90.2715 389.12 92.1525C386.843 94.0335 385.704 96.5085 385.704 99.5775C385.704 102.547 386.744 104.924 388.823 106.706C391.001 108.488 394.02 109.379 397.881 109.379ZM484.494 59.4825V124.674H463.407V59.4825H454.051V42.405H463.407V38.247C463.407 28.149 466.278 20.724 472.02 15.972C477.762 11.22 486.424 8.9925 498.007 9.2895V26.8125C492.958 26.7135 489.444 27.555 487.464 29.337C485.484 31.119 484.494 34.3365 484.494 38.9895V42.405H511.512V22.0605H532.451V42.405H550.865V59.4825H532.451V99.2805C532.451 102.053 533.094 104.082 534.381 105.369C535.767 106.557 538.044 107.151 541.212 107.151H550.865V124.674H537.797C520.274 124.674 511.512 116.16 511.512 99.132V59.4825H484.494Z" fill="white"/>
</svg>
