<svg width="425" height="126" viewBox="0 0 425 126" fill="none" xmlns="http://www.w3.org/2000/svg">
<path d="M0.12125 23.6C0.12125 10.992 10.2333 0.559998 23.1613 0.559998C27.8973 0.559998 36.8573 2.672 36.8573 7.344C36.8573 9.712 35.0013 11.12 33.0173 11.12C32.2493 11.12 31.5452 10.928 30.9693 10.544C28.7933 9.136 25.9133 8.24 23.1613 8.24C14.6493 8.24 8.44125 15.536 8.44125 23.6C8.44125 31.664 14.6493 38.96 23.1613 38.96C26.8733 38.96 29.8813 37.552 32.0573 35.952C32.6973 35.504 33.4013 35.312 34.1053 35.312C36.1533 35.312 38.0093 36.848 38.0093 39.152C38.0093 44.08 28.1533 46.64 23.1613 46.64C10.2333 46.64 0.12125 36.208 0.12125 23.6ZM43.1213 23.664C43.1213 10.928 53.4253 0.559998 66.1613 0.559998C78.8973 0.559998 89.2013 10.928 89.2013 23.664C89.2013 36.336 78.8973 46.64 66.1613 46.64C53.4253 46.64 43.1213 36.336 43.1213 23.664ZM51.4413 23.664C51.4413 32.112 57.8413 38.96 66.1613 38.96C74.4813 38.96 80.8813 32.112 80.8813 23.664C80.8813 15.152 74.4813 8.24 66.1613 8.24C57.8413 8.24 51.4413 15.152 51.4413 23.664ZM113.319 39.088C117.863 39.088 121.447 36.528 121.447 33.2C121.447 24.56 98.2153 29.104 98.2153 13.424C98.2153 6.384 104.167 0.559998 113.575 0.559998C123.751 0.559998 128.935 6.832 128.935 9.904C128.935 11.632 127.591 13.68 124.967 13.68C123.303 13.68 122.087 12.592 121.255 11.504C119.719 9.52 117.351 7.92 113.767 7.92C109.351 7.92 106.407 10.352 106.407 12.912C106.407 21.232 129.959 17.264 129.959 32.752C129.959 41.072 122.599 46.64 113.191 46.64C102.759 46.64 96.8713 39.664 96.8713 36.656C96.8713 34.352 98.3433 32.752 100.647 32.752C102.631 32.752 103.975 34.032 104.743 34.992C106.279 36.912 108.711 39.088 113.319 39.088ZM185.109 5.488V42.352C185.109 44.784 183.317 46.64 180.885 46.64C178.453 46.64 176.789 44.784 176.789 42.352V18.352L177.173 11.76L173.461 16.944L166.101 26.16C165.141 27.312 163.797 28.336 162.005 28.336C160.149 28.336 158.869 27.312 157.909 26.16L150.549 17.008L146.837 11.76L147.221 18.352V42.352C147.221 44.784 145.621 46.64 143.125 46.64C140.693 46.64 138.901 44.784 138.901 42.352V5.488C138.901 2.992 140.757 1.2 143.125 1.2H145.813C147.413 1.2 148.437 1.904 149.525 3.248L162.005 18.544L174.485 3.248C175.573 1.904 176.597 1.2 178.197 1.2H180.885C183.253 1.2 185.109 2.992 185.109 5.488ZM203.595 38.32H224.715C227.019 38.32 228.875 39.856 228.875 42.096C228.875 44.4 227.019 46 224.715 46H199.499C197.195 46 195.339 44.144 195.339 41.84V5.232C195.339 2.992 197.195 1.2 199.499 1.2H224.715C227.019 1.2 228.875 2.864 228.875 5.104C228.875 7.472 227.019 8.944 224.715 8.944H203.595V18.992H221.195C223.499 18.992 225.355 20.592 225.355 22.832C225.355 25.2 223.499 26.736 221.195 26.736H203.595V38.32ZM265.054 1.2C267.358 1.2 269.214 2.672 269.214 5.04C269.214 7.344 267.358 8.88 265.054 8.88H255.198V42.416C255.198 44.72 253.342 46.64 250.974 46.64C248.67 46.64 246.75 44.72 246.75 42.416V8.88H236.958C234.654 8.88 232.734 7.344 232.734 5.04C232.734 2.672 234.654 1.2 236.958 1.2H265.054ZM275.604 4.72C275.604 2.48 277.46 0.559998 279.764 0.559998C282.068 0.559998 283.924 2.48 283.924 4.72V42.48C283.924 44.72 282.068 46.64 279.764 46.64C277.46 46.64 275.604 44.72 275.604 42.48V4.72ZM292.856 23.6C292.856 11.376 302.904 0.879997 315.512 0.879997C319.544 0.879997 323.384 1.904 326.84 3.952C327.416 4.272 327.736 4.784 327.736 5.424C327.736 6.32 326.904 7.152 326.008 7.152C325.56 7.152 325.24 7.024 325.048 6.896C322.296 5.168 319.096 4.144 315.512 4.144C304.696 4.144 296.824 12.976 296.824 23.6C296.824 34.416 304.696 43.056 315.512 43.056C319.736 43.056 323.32 41.648 326.2 39.6C326.52 39.408 326.84 39.28 327.352 39.28C328.248 39.28 328.952 40.048 328.952 40.944C328.952 41.776 328.504 42.16 327.928 42.544C324.024 45.168 319.48 46.32 315.512 46.32C302.904 46.32 292.856 35.952 292.856 23.6ZM332.794 23.664C332.794 11.312 342.842 0.879997 355.45 0.879997C367.93 0.879997 378.042 11.312 378.042 23.664C378.042 35.952 367.93 46.32 355.45 46.32C342.842 46.32 332.794 35.952 332.794 23.664ZM336.762 23.664C336.762 34.416 344.634 43.056 355.45 43.056C366.138 43.056 374.138 34.416 374.138 23.664C374.138 12.848 366.138 4.144 355.45 4.144C344.634 4.144 336.762 12.848 336.762 23.664ZM418.339 44.848L391.587 7.664L390.179 5.296V44.4C390.179 45.488 389.411 46.32 388.323 46.32C387.235 46.32 386.339 45.488 386.339 44.4V3.12C386.339 2.096 387.171 1.2 388.323 1.2H390.435C390.883 1.2 391.843 1.584 392.355 2.288L419.171 39.536L420.579 41.904V2.736C420.579 1.712 421.347 0.879997 422.435 0.879997C423.523 0.879997 424.419 1.712 424.419 2.736V44.016C424.419 45.04 423.587 46 422.435 46H420.323C419.875 46 418.851 45.552 418.339 44.848ZM151.382 116.168L166.678 100.296C167.83 99.08 170.07 96.456 170.07 93.384C170.07 90.504 167.894 87.176 163.67 87.176C160.662 87.176 158.614 89.096 157.654 91.464C156.95 93.256 156.822 93.512 156.502 94.152C155.798 95.368 154.582 96.008 153.174 96.008C150.486 96.008 149.462 93.512 149.462 92.424C149.462 90.824 150.23 88.712 150.806 87.624C152.47 84.424 156.374 79.56 164.118 79.56C173.142 79.56 178.454 86.664 178.454 93.064C178.454 98.696 175.574 102.088 173.206 104.584L160.726 117.512H176.406C178.646 117.512 180.438 119.048 180.438 121.288C180.438 123.464 178.646 125 176.406 125H154.006C151.766 125 149.59 122.952 149.59 120.456C149.59 119.304 149.846 117.704 151.382 116.168ZM203.325 125.64C194.045 125.64 187.005 118.28 187.005 109.064V96.136C187.005 86.92 194.045 79.56 203.325 79.56C212.733 79.56 219.645 86.856 219.645 96.136V109.064C219.645 118.344 212.733 125.64 203.325 125.64ZM195.197 96.136V109.064C195.197 113.992 198.269 118.152 203.325 118.152C208.381 118.152 211.453 113.992 211.453 109.064V96.136C211.453 91.208 208.381 87.048 203.325 87.048C198.269 87.048 195.197 91.208 195.197 96.136ZM228.132 116.168L243.428 100.296C244.58 99.08 246.82 96.456 246.82 93.384C246.82 90.504 244.644 87.176 240.42 87.176C237.412 87.176 235.364 89.096 234.404 91.464C233.7 93.256 233.572 93.512 233.252 94.152C232.548 95.368 231.332 96.008 229.924 96.008C227.236 96.008 226.212 93.512 226.212 92.424C226.212 90.824 226.98 88.712 227.556 87.624C229.22 84.424 233.124 79.56 240.868 79.56C249.892 79.56 255.204 86.664 255.204 93.064C255.204 98.696 252.324 102.088 249.956 104.584L237.476 117.512H253.156C255.396 117.512 257.188 119.048 257.188 121.288C257.188 123.464 255.396 125 253.156 125H230.756C228.516 125 226.34 122.952 226.34 120.456C226.34 119.304 226.596 117.704 228.132 116.168ZM280.075 79.56C288.715 79.56 293.899 85.96 293.899 91.016C293.899 95.112 292.299 98.44 288.715 100.68C293.387 103.048 296.075 107.208 296.075 112.136C296.075 119.88 289.099 125.64 280.075 125.64C270.219 125.64 264.075 118.664 264.075 114.952C264.075 112.2 265.995 110.6 268.299 110.6C269.899 110.6 271.499 111.88 272.075 113.352C273.035 115.848 275.659 118.152 279.947 118.152C283.979 118.152 287.435 115.464 287.435 111.56C287.435 107.72 283.851 105.224 279.947 105.224C277.835 105.224 275.915 103.944 275.915 101.448C275.915 99.208 277.771 97.8 279.755 97.8C282.827 97.8 285.771 95.496 285.771 92.296C285.771 89.16 283.083 86.984 279.819 86.984C275.851 86.984 273.931 88.968 273.035 90.952C272.459 92.232 271.307 93.384 269.579 93.384C267.019 93.384 265.867 91.336 265.867 89.8C265.867 86.728 269.963 79.56 280.075 79.56Z" fill="#F5EEFD"/>
</svg>
