<svg width="1771" height="1330" viewBox="0 0 1771 1330" fill="none" xmlns="http://www.w3.org/2000/svg">
<path d="M61.3994 -2.87811C13.6256 -5.46059 -10.2654 -1.95121 4.18872 -0.5L61.3994 -2.87811C150.792 1.95412 323.804 28.1155 485.688 129C796.188 322.5 706.256 81.8699 1124.69 328.5C1474.19 534.5 1208.19 738 1437.69 717C1779.48 685.725 1250.19 1507.5 1474.19 1293.5C1653.39 1122.3 1839.69 696.5 1688.19 -70.5L61.3994 -2.87811Z" fill="#FFE58B"/>
<path d="M200.628 -59.3781C152.854 -61.9606 128.963 -58.4512 143.417 -57L200.628 -59.3781C290.02 -54.5459 463.032 -28.3845 624.917 72.5C935.417 266 845.484 25.3699 1263.92 272C1613.42 478 1347.42 681.5 1576.92 660.5C1918.71 629.225 1389.42 1451 1613.42 1237C1792.62 1065.8 1978.92 640 1827.42 -127L200.628 -59.3781Z" fill="#FCDD70"/>
</svg>
