<svg width="1440" height="704" viewBox="0 0 1440 704" fill="none" xmlns="http://www.w3.org/2000/svg">
<path d="M1621.52 -7.37811C1669.29 -9.96059 1693.18 -6.45121 1678.73 -5L1621.52 -7.37811C1532.12 -2.54588 1359.11 23.6155 1197.23 124.5C886.728 318 976.661 77.3699 558.228 324C208.728 530 474.728 733.5 245.228 712.5C-96.5671 681.225 432.728 1503 208.728 1289C29.5284 1117.8 -156.772 692 -5.27173 -75L1621.52 -7.37811Z" fill="#F2D15D"/>
<path d="M1482.29 -63.8781C1530.06 -66.4606 1553.95 -62.9512 1539.5 -61.5L1482.29 -63.8781C1392.9 -59.0459 1219.88 -32.8845 1058 68C747.5 261.5 837.433 20.8699 419 267.5C69.5001 473.5 335.5 677 106 656C-235.795 624.725 293.5 1446.5 69.5001 1232.5C-109.7 1061.3 -296 635.5 -144.5 -131.5L1482.29 -63.8781Z" fill="#E3C045"/>
</svg>
