<svg width="130" height="130" viewBox="0 0 130 130" fill="none" xmlns="http://www.w3.org/2000/svg">
<path d="M10.4846 109.857V105.129H9.09256V103.509H10.4846V103.125C10.4846 102.373 10.7046 101.801 11.1446 101.409C11.5926 101.009 12.2326 100.809 13.0646 100.809C13.2326 100.809 13.4126 100.821 13.6046 100.845C13.8046 100.861 13.9686 100.889 14.0966 100.929V102.537C13.9446 102.505 13.8086 102.485 13.6886 102.477C13.5766 102.461 13.4566 102.453 13.3286 102.453C13.0326 102.453 12.8086 102.513 12.6566 102.633C12.5046 102.745 12.4286 102.921 12.4286 103.161V103.509H14.0966V105.129H12.4286V109.857H10.4846ZM18.5981 109.977C18.1021 109.977 17.6621 109.869 17.2781 109.653C16.9021 109.437 16.6061 109.137 16.3901 108.753C16.1741 108.361 16.0661 107.917 16.0661 107.421V103.509H18.0101V107.157C18.0101 107.501 18.1141 107.781 18.3221 107.997C18.5381 108.205 18.8181 108.309 19.1621 108.309C19.4101 108.309 19.6301 108.265 19.8221 108.177C20.0141 108.089 20.1741 107.965 20.3021 107.805V103.509H22.2461V109.857H20.3021V109.425C19.8221 109.793 19.2541 109.977 18.5981 109.977ZM24.65 109.857V101.457L26.594 101.157V109.857H24.65ZM28.9906 109.857V101.457L30.9346 101.157V109.857H28.9906ZM34.0873 112.449C33.9353 112.449 33.7873 112.441 33.6433 112.425C33.4993 112.417 33.3793 112.401 33.2833 112.377V110.721C33.4433 110.753 33.6433 110.769 33.8833 110.769C34.5073 110.769 34.9273 110.497 35.1433 109.953V109.941L32.7073 103.509H34.8553L36.2593 107.505L37.8913 103.509H39.9913L37.1473 110.181C36.9153 110.733 36.6593 111.173 36.3793 111.501C36.0993 111.837 35.7753 112.077 35.4073 112.221C35.0393 112.373 34.5993 112.449 34.0873 112.449ZM45.3055 109.857V103.509H47.2495V104.145C47.4575 103.889 47.7015 103.697 47.9815 103.569C48.2615 103.433 48.5735 103.365 48.9175 103.365C49.2615 103.373 49.5055 103.425 49.6495 103.521V105.213C49.5215 105.149 49.3775 105.101 49.2175 105.069C49.0575 105.037 48.8935 105.021 48.7255 105.021C48.4215 105.021 48.1375 105.093 47.8735 105.237C47.6175 105.373 47.4095 105.569 47.2495 105.825V109.857H45.3055ZM54.6774 109.977C54.0294 109.977 53.4414 109.833 52.9134 109.545C52.3934 109.249 51.9814 108.853 51.6774 108.357C51.3734 107.861 51.2214 107.305 51.2214 106.689C51.2214 106.073 51.3654 105.517 51.6534 105.021C51.9494 104.525 52.3494 104.133 52.8534 103.845C53.3574 103.549 53.9174 103.401 54.5334 103.401C55.1574 103.401 55.7094 103.553 56.1894 103.857C56.6694 104.153 57.0454 104.561 57.3174 105.081C57.5974 105.601 57.7374 106.197 57.7374 106.869V107.349H53.2134C53.3014 107.549 53.4174 107.725 53.5614 107.877C53.7134 108.029 53.8934 108.149 54.1014 108.237C54.3094 108.317 54.5334 108.357 54.7734 108.357C55.0374 108.357 55.2774 108.317 55.4934 108.237C55.7094 108.149 55.8934 108.029 56.0454 107.877L57.3294 109.017C56.9294 109.353 56.5174 109.597 56.0934 109.749C55.6774 109.901 55.2054 109.977 54.6774 109.977ZM53.1774 105.993H55.8294C55.7654 105.785 55.6654 105.609 55.5294 105.465C55.4014 105.313 55.2494 105.197 55.0734 105.117C54.8974 105.029 54.7054 104.985 54.4974 104.985C54.2814 104.985 54.0854 105.025 53.9094 105.105C53.7334 105.185 53.5814 105.301 53.4534 105.453C53.3334 105.597 53.2414 105.777 53.1774 105.993ZM62.4127 109.977C61.8127 109.977 61.2567 109.909 60.7447 109.773C60.2327 109.629 59.7887 109.421 59.4127 109.149L60.3367 107.841C60.7367 108.081 61.1007 108.257 61.4287 108.369C61.7567 108.473 62.0807 108.525 62.4007 108.525C62.7207 108.525 62.9727 108.481 63.1567 108.393C63.3487 108.297 63.4447 108.173 63.4447 108.021C63.4447 107.901 63.3927 107.805 63.2887 107.733C63.1847 107.653 63.0207 107.597 62.7967 107.565L61.5367 107.373C60.9047 107.277 60.4207 107.069 60.0847 106.749C59.7567 106.421 59.5927 105.997 59.5927 105.477C59.5927 105.045 59.7007 104.677 59.9167 104.373C60.1407 104.061 60.4567 103.825 60.8647 103.665C61.2727 103.497 61.7607 103.413 62.3287 103.413C62.7927 103.413 63.2527 103.477 63.7087 103.605C64.1647 103.733 64.5887 103.925 64.9807 104.181L64.0567 105.429C63.7127 105.229 63.3847 105.085 63.0727 104.997C62.7607 104.901 62.4487 104.853 62.1367 104.853C61.8887 104.853 61.6887 104.897 61.5367 104.985C61.3847 105.065 61.3087 105.173 61.3087 105.309C61.3087 105.437 61.3647 105.541 61.4767 105.621C61.5887 105.693 61.7807 105.749 62.0527 105.789L63.3127 105.981C63.9367 106.069 64.4167 106.277 64.7527 106.605C65.0967 106.925 65.2687 107.333 65.2687 107.829C65.2687 108.245 65.1447 108.613 64.8967 108.933C64.6487 109.253 64.3087 109.509 63.8767 109.701C63.4527 109.885 62.9647 109.977 62.4127 109.977ZM67.2102 112.305V103.509H69.1302V103.977C69.6342 103.609 70.2022 103.425 70.8342 103.425C71.4422 103.425 71.9902 103.573 72.4782 103.869C72.9662 104.157 73.3542 104.549 73.6422 105.045C73.9302 105.533 74.0742 106.081 74.0742 106.689C74.0742 107.297 73.9262 107.849 73.6302 108.345C73.3422 108.833 72.9462 109.221 72.4422 109.509C71.9462 109.797 71.3902 109.941 70.7742 109.941C70.4782 109.941 70.1942 109.905 69.9222 109.833C69.6502 109.761 69.3942 109.657 69.1542 109.521V112.305H67.2102ZM70.4982 108.297C70.8182 108.297 71.1022 108.229 71.3502 108.093C71.5982 107.949 71.7942 107.757 71.9382 107.517C72.0902 107.269 72.1662 106.993 72.1662 106.689C72.1662 106.385 72.0902 106.113 71.9382 105.873C71.7942 105.625 71.5942 105.433 71.3382 105.297C71.0902 105.153 70.8102 105.081 70.4982 105.081C70.2262 105.081 69.9782 105.125 69.7542 105.213C69.5302 105.293 69.3302 105.417 69.1542 105.585V107.805C69.3222 107.957 69.5222 108.077 69.7542 108.165C69.9862 108.253 70.2342 108.297 70.4982 108.297ZM79.3474 109.977C78.6994 109.977 78.1154 109.833 77.5954 109.545C77.0754 109.249 76.6634 108.853 76.3594 108.357C76.0554 107.861 75.9034 107.305 75.9034 106.689C75.9034 106.073 76.0554 105.517 76.3594 105.021C76.6634 104.517 77.0754 104.121 77.5954 103.833C78.1154 103.537 78.6994 103.389 79.3474 103.389C79.9954 103.389 80.5794 103.537 81.0994 103.833C81.6194 104.121 82.0314 104.517 82.3354 105.021C82.6394 105.517 82.7914 106.073 82.7914 106.689C82.7914 107.305 82.6394 107.861 82.3354 108.357C82.0314 108.853 81.6194 109.249 81.0994 109.545C80.5794 109.833 79.9954 109.977 79.3474 109.977ZM79.3474 108.297C79.6434 108.297 79.9074 108.225 80.1394 108.081C80.3714 107.937 80.5554 107.745 80.6914 107.505C80.8274 107.257 80.8954 106.985 80.8954 106.689C80.8954 106.385 80.8274 106.113 80.6914 105.873C80.5554 105.625 80.3674 105.429 80.1274 105.285C79.8954 105.141 79.6354 105.069 79.3474 105.069C79.0594 105.069 78.7954 105.141 78.5554 105.285C78.3234 105.429 78.1394 105.625 78.0034 105.873C77.8674 106.113 77.7994 106.385 77.7994 106.689C77.7994 106.985 77.8674 107.257 78.0034 107.505C78.1394 107.745 78.3234 107.937 78.5554 108.081C78.7954 108.225 79.0594 108.297 79.3474 108.297ZM84.9031 109.857V103.509H86.8471V103.941C87.3271 103.573 87.8951 103.389 88.5511 103.389C89.0471 103.389 89.4831 103.497 89.8591 103.713C90.2431 103.929 90.5431 104.229 90.7591 104.613C90.9751 104.997 91.0831 105.441 91.0831 105.945V109.857H89.1391V106.209C89.1391 105.857 89.0351 105.577 88.8271 105.369C88.6191 105.161 88.3391 105.057 87.9871 105.057C87.7391 105.057 87.5191 105.101 87.3271 105.189C87.1431 105.277 86.9831 105.401 86.8471 105.561V109.857H84.9031ZM95.9471 109.977C95.3471 109.977 94.7911 109.909 94.2791 109.773C93.7671 109.629 93.3231 109.421 92.9471 109.149L93.8711 107.841C94.2711 108.081 94.6351 108.257 94.9631 108.369C95.2911 108.473 95.6151 108.525 95.9351 108.525C96.2551 108.525 96.5071 108.481 96.6911 108.393C96.8831 108.297 96.9791 108.173 96.9791 108.021C96.9791 107.901 96.9271 107.805 96.8231 107.733C96.7191 107.653 96.5551 107.597 96.3311 107.565L95.0711 107.373C94.4391 107.277 93.9551 107.069 93.6191 106.749C93.2911 106.421 93.1271 105.997 93.1271 105.477C93.1271 105.045 93.2351 104.677 93.4511 104.373C93.6751 104.061 93.9911 103.825 94.3991 103.665C94.8071 103.497 95.2951 103.413 95.8631 103.413C96.3271 103.413 96.7871 103.477 97.2431 103.605C97.6991 103.733 98.1231 103.925 98.5151 104.181L97.5911 105.429C97.2471 105.229 96.9191 105.085 96.6071 104.997C96.2951 104.901 95.9831 104.853 95.6711 104.853C95.4231 104.853 95.2231 104.897 95.0711 104.985C94.9191 105.065 94.8431 105.173 94.8431 105.309C94.8431 105.437 94.8991 105.541 95.0111 105.621C95.1231 105.693 95.3151 105.749 95.5871 105.789L96.8471 105.981C97.4711 106.069 97.9511 106.277 98.2871 106.605C98.6311 106.925 98.8031 107.333 98.8031 107.829C98.8031 108.245 98.6791 108.613 98.4311 108.933C98.1831 109.253 97.8431 109.509 97.4111 109.701C96.9871 109.885 96.4991 109.977 95.9471 109.977ZM100.745 109.857V103.509H102.689V109.857H100.745ZM101.717 102.921C101.421 102.921 101.169 102.817 100.961 102.609C100.753 102.401 100.649 102.149 100.649 101.853C100.649 101.557 100.753 101.305 100.961 101.097C101.169 100.889 101.421 100.785 101.717 100.785C102.013 100.785 102.265 100.889 102.473 101.097C102.681 101.305 102.785 101.557 102.785 101.853C102.785 102.149 102.681 102.401 102.473 102.609C102.265 102.817 102.013 102.921 101.717 102.921ZM107.173 109.857L104.461 103.509H106.573L108.145 107.397L109.717 103.509H111.781L109.069 109.857H107.173ZM116.555 109.977C115.907 109.977 115.319 109.833 114.791 109.545C114.271 109.249 113.859 108.853 113.555 108.357C113.251 107.861 113.099 107.305 113.099 106.689C113.099 106.073 113.243 105.517 113.531 105.021C113.827 104.525 114.227 104.133 114.731 103.845C115.235 103.549 115.795 103.401 116.411 103.401C117.035 103.401 117.587 103.553 118.067 103.857C118.547 104.153 118.923 104.561 119.195 105.081C119.475 105.601 119.615 106.197 119.615 106.869V107.349H115.091C115.179 107.549 115.295 107.725 115.439 107.877C115.591 108.029 115.771 108.149 115.979 108.237C116.187 108.317 116.411 108.357 116.651 108.357C116.915 108.357 117.155 108.317 117.371 108.237C117.587 108.149 117.771 108.029 117.923 107.877L119.207 109.017C118.807 109.353 118.395 109.597 117.971 109.749C117.555 109.901 117.083 109.977 116.555 109.977ZM115.055 105.993H117.707C117.643 105.785 117.543 105.609 117.407 105.465C117.279 105.313 117.127 105.197 116.951 105.117C116.775 105.029 116.583 104.985 116.375 104.985C116.159 104.985 115.963 105.025 115.787 105.105C115.611 105.185 115.459 105.301 115.331 105.453C115.211 105.597 115.119 105.777 115.055 105.993ZM38.4072 125.857L36.6792 119.509H38.5152L39.4512 123.241L40.5912 119.509H42.1992L43.3392 123.253L44.2632 119.509H46.0752L44.3352 125.857H42.4752L41.3712 122.185L40.2792 125.857H38.4072ZM51.02 125.977C50.372 125.977 49.784 125.833 49.256 125.545C48.736 125.249 48.324 124.853 48.02 124.357C47.716 123.861 47.564 123.305 47.564 122.689C47.564 122.073 47.708 121.517 47.996 121.021C48.292 120.525 48.692 120.133 49.196 119.845C49.7 119.549 50.26 119.401 50.876 119.401C51.5 119.401 52.052 119.553 52.532 119.857C53.012 120.153 53.388 120.561 53.66 121.081C53.94 121.601 54.08 122.197 54.08 122.869V123.349H49.556C49.644 123.549 49.76 123.725 49.904 123.877C50.056 124.029 50.236 124.149 50.444 124.237C50.652 124.317 50.876 124.357 51.116 124.357C51.38 124.357 51.62 124.317 51.836 124.237C52.052 124.149 52.236 124.029 52.388 123.877L53.672 125.017C53.272 125.353 52.86 125.597 52.436 125.749C52.02 125.901 51.548 125.977 51.02 125.977ZM49.52 121.993H52.172C52.108 121.785 52.008 121.609 51.872 121.465C51.744 121.313 51.592 121.197 51.416 121.117C51.24 121.029 51.048 120.985 50.84 120.985C50.624 120.985 50.428 121.025 50.252 121.105C50.076 121.185 49.924 121.301 49.796 121.453C49.676 121.597 49.584 121.777 49.52 121.993ZM56.1887 125.857V117.457L58.1327 117.157V119.953C58.6287 119.601 59.1887 119.425 59.8127 119.425C60.4207 119.425 60.9687 119.573 61.4567 119.869C61.9447 120.157 62.3327 120.549 62.6207 121.045C62.9087 121.533 63.0527 122.081 63.0527 122.689C63.0527 123.297 62.9047 123.849 62.6087 124.345C62.3207 124.833 61.9247 125.221 61.4207 125.509C60.9247 125.797 60.3687 125.941 59.7527 125.941C59.4567 125.941 59.1687 125.905 58.8887 125.833C58.6087 125.753 58.3487 125.641 58.1087 125.497V125.857H56.1887ZM59.4767 124.297C59.7967 124.297 60.0807 124.229 60.3287 124.093C60.5767 123.949 60.7727 123.757 60.9167 123.517C61.0687 123.269 61.1447 122.993 61.1447 122.689C61.1447 122.385 61.0687 122.113 60.9167 121.873C60.7727 121.625 60.5727 121.433 60.3167 121.297C60.0687 121.153 59.7887 121.081 59.4767 121.081C59.2047 121.081 58.9567 121.125 58.7327 121.213C58.5087 121.293 58.3087 121.417 58.1327 121.585V123.805C58.3007 123.957 58.5007 124.077 58.7327 124.165C58.9647 124.253 59.2127 124.297 59.4767 124.297ZM71.2217 125.977C70.6217 125.977 70.0657 125.909 69.5537 125.773C69.0417 125.629 68.5977 125.421 68.2217 125.149L69.1457 123.841C69.5457 124.081 69.9097 124.257 70.2377 124.369C70.5657 124.473 70.8897 124.525 71.2097 124.525C71.5297 124.525 71.7817 124.481 71.9657 124.393C72.1577 124.297 72.2537 124.173 72.2537 124.021C72.2537 123.901 72.2017 123.805 72.0977 123.733C71.9937 123.653 71.8297 123.597 71.6057 123.565L70.3457 123.373C69.7137 123.277 69.2297 123.069 68.8937 122.749C68.5657 122.421 68.4017 121.997 68.4017 121.477C68.4017 121.045 68.5097 120.677 68.7257 120.373C68.9497 120.061 69.2657 119.825 69.6737 119.665C70.0817 119.497 70.5697 119.413 71.1377 119.413C71.6017 119.413 72.0617 119.477 72.5177 119.605C72.9737 119.733 73.3977 119.925 73.7897 120.181L72.8657 121.429C72.5217 121.229 72.1937 121.085 71.8817 120.997C71.5697 120.901 71.2577 120.853 70.9457 120.853C70.6977 120.853 70.4977 120.897 70.3457 120.985C70.1937 121.065 70.1177 121.173 70.1177 121.309C70.1177 121.437 70.1737 121.541 70.2857 121.621C70.3977 121.693 70.5897 121.749 70.8617 121.789L72.1217 121.981C72.7457 122.069 73.2257 122.277 73.5617 122.605C73.9057 122.925 74.0777 123.333 74.0777 123.829C74.0777 124.245 73.9537 124.613 73.7057 124.933C73.4577 125.253 73.1177 125.509 72.6857 125.701C72.2617 125.885 71.7737 125.977 71.2217 125.977ZM76.0191 125.857V119.509H77.9631V125.857H76.0191ZM76.9911 118.921C76.6951 118.921 76.4431 118.817 76.2351 118.609C76.0271 118.401 75.9231 118.149 75.9231 117.853C75.9231 117.557 76.0271 117.305 76.2351 117.097C76.4431 116.889 76.6951 116.785 76.9911 116.785C77.2871 116.785 77.5391 116.889 77.7471 117.097C77.9551 117.305 78.0591 117.557 78.0591 117.853C78.0591 118.149 77.9551 118.401 77.7471 118.609C77.5391 118.817 77.2871 118.921 76.9911 118.921ZM83.5638 125.941C82.8038 125.941 82.2278 125.773 81.8358 125.437C81.4518 125.093 81.2598 124.589 81.2598 123.925V121.129H79.9758V119.509H81.2598V117.877L83.2038 117.457V119.509H84.9798V121.129H83.2038V123.541C83.2038 123.821 83.2638 124.021 83.3838 124.141C83.5118 124.253 83.7318 124.309 84.0438 124.309C84.2038 124.309 84.3478 124.301 84.4758 124.285C84.6118 124.261 84.7598 124.225 84.9198 124.177V125.749C84.7438 125.805 84.5198 125.849 84.2478 125.881C83.9758 125.921 83.7478 125.941 83.5638 125.941ZM90.0481 125.977C89.4001 125.977 88.8121 125.833 88.2841 125.545C87.7641 125.249 87.3521 124.853 87.0481 124.357C86.7441 123.861 86.5921 123.305 86.5921 122.689C86.5921 122.073 86.7361 121.517 87.0241 121.021C87.3201 120.525 87.7201 120.133 88.2241 119.845C88.7281 119.549 89.2881 119.401 89.9041 119.401C90.5281 119.401 91.0801 119.553 91.5601 119.857C92.0401 120.153 92.4161 120.561 92.6881 121.081C92.9681 121.601 93.1081 122.197 93.1081 122.869V123.349H88.5841C88.6721 123.549 88.7881 123.725 88.9321 123.877C89.0841 124.029 89.2641 124.149 89.4721 124.237C89.6801 124.317 89.9041 124.357 90.1441 124.357C90.4081 124.357 90.6481 124.317 90.8641 124.237C91.0801 124.149 91.2641 124.029 91.4161 123.877L92.7001 125.017C92.3001 125.353 91.8881 125.597 91.4641 125.749C91.0481 125.901 90.5761 125.977 90.0481 125.977ZM88.5481 121.993H91.2001C91.1361 121.785 91.0361 121.609 90.9001 121.465C90.7721 121.313 90.6201 121.197 90.4441 121.117C90.2681 121.029 90.0761 120.985 89.8681 120.985C89.6521 120.985 89.4561 121.025 89.2801 121.105C89.1041 121.185 88.9521 121.301 88.8241 121.453C88.7041 121.597 88.6121 121.777 88.5481 121.993Z" fill="#100B00"/>
<path d="M23.072 73.3264C22.1855 73.3264 21.4524 73.0378 20.8728 72.4607C20.2931 71.8836 20.0033 71.1537 20.0033 70.2711C20.0033 69.3885 20.2931 68.6586 20.8728 68.0815C21.4524 67.5044 22.1855 67.2158 23.072 67.2158H106.949C107.836 67.2158 108.569 67.5044 109.149 68.0815C109.728 68.6586 110.018 69.3885 110.018 70.2711C110.018 71.1537 109.728 71.8836 109.149 72.4607C108.569 73.0378 107.836 73.3264 106.949 73.3264H23.072ZM30.2322 61.1053C28.5956 61.1053 27.1636 60.4942 25.9361 59.2721C24.7086 58.05 24.0949 56.6243 24.0949 54.9948V6.11053C24.0949 4.48106 24.7086 3.05527 25.9361 1.83316C27.1636 0.611053 28.5956 0 30.2322 0H99.7891C101.426 0 102.858 0.611053 104.085 1.83316C105.313 3.05527 105.926 4.48106 105.926 6.11053V54.9948C105.926 56.6243 105.313 58.05 104.085 59.2721C102.858 60.4942 101.426 61.1053 99.7891 61.1053H30.2322ZM30.2322 54.9948H99.7891V6.11053H30.2322V54.9948Z" fill="#100B00"/>
<path d="M10 31H36V60H10V31Z" fill="#FFF8DE"/>
<path d="M12.7857 67C12.0429 67 11.3929 66.7341 10.8357 66.2023C10.2786 65.6705 10 65.05 10 64.3409V30.6591C10 29.95 10.2786 29.3295 10.8357 28.7977C11.3929 28.2659 12.0429 28 12.7857 28H33.2143C33.9571 28 34.6071 28.2659 35.1643 28.7977C35.7214 29.3295 36 29.95 36 30.6591V64.3409C36 65.05 35.7214 65.6705 35.1643 66.2023C34.6071 66.7341 33.9571 67 33.2143 67H12.7857ZM23 63.6761C23.4024 63.6761 23.7351 63.5506 23.9982 63.2994C24.2613 63.0483 24.3929 62.7307 24.3929 62.3466C24.3929 61.9625 24.2613 61.6449 23.9982 61.3937C23.7351 61.1426 23.4024 61.017 23 61.017C22.5976 61.017 22.2649 61.1426 22.0018 61.3937C21.7387 61.6449 21.6071 61.9625 21.6071 62.3466C21.6071 62.7307 21.7387 63.0483 22.0018 63.2994C22.2649 63.5506 22.5976 63.6761 23 63.6761ZM12.7857 57.6932H33.2143V31.9886H12.7857V57.6932Z" fill="#100B00"/>
<path d="M34.819 29.1594C35.242 29.5631 35.4568 30.0051 35.4941 30.5H10.5059C10.5432 30.0051 10.758 29.5631 11.181 29.1594C11.6489 28.7127 12.1766 28.5 12.7857 28.5H33.2143C33.8234 28.5 34.3511 28.7127 34.819 29.1594ZM33.7143 31.5H35.5V59.5H10.5V31.5H12.2857V31.9886V57.6932V58.1932H12.7857H33.2143H33.7143V57.6932V31.9886V31.5ZM10.5 60.5H35.5V64.3409C35.5 64.9008 35.2868 65.3941 34.819 65.8406C34.3511 66.2873 33.8234 66.5 33.2143 66.5H12.7857C12.1766 66.5 11.6489 66.2873 11.181 65.8406C10.7132 65.3941 10.5 64.9008 10.5 64.3409V60.5ZM23 64.1761C23.5161 64.1761 23.9771 64.0108 24.3435 63.6611C24.7114 63.3099 24.8929 62.8588 24.8929 62.3466C24.8929 61.8344 24.7114 61.3833 24.3435 61.0321C23.9771 60.6824 23.5161 60.517 23 60.517C22.4839 60.517 22.0229 60.6824 21.6565 61.0321C21.2886 61.3833 21.1071 61.8344 21.1071 62.3466C21.1071 62.8588 21.2886 63.3099 21.6565 63.6611C22.0229 64.0108 22.4839 64.1761 23 64.1761ZM32.7143 57.1932H13.2857V32.4886H32.7143V57.1932Z" stroke="black"/>
</svg>
