<svg width="156" height="156" viewBox="0 0 156 156" fill="none" xmlns="http://www.w3.org/2000/svg">
<g filter="url(#filter0_f_344_198)">
<path d="M40.7639 129V124.272H39.3719V122.652H40.7639V122.268C40.7639 121.516 40.9839 120.944 41.4239 120.552C41.8719 120.152 42.5119 119.952 43.3439 119.952C43.5119 119.952 43.6919 119.964 43.8839 119.988C44.0839 120.004 44.2479 120.032 44.3759 120.072V121.68C44.2239 121.648 44.0879 121.628 43.9679 121.62C43.8559 121.604 43.7359 121.596 43.6079 121.596C43.3119 121.596 43.0879 121.656 42.9359 121.776C42.7839 121.888 42.7079 122.064 42.7079 122.304V122.652H44.3759V124.272H42.7079V129H40.7639ZM48.8774 129.12C48.3814 129.12 47.9414 129.012 47.5574 128.796C47.1814 128.58 46.8854 128.28 46.6694 127.896C46.4534 127.504 46.3454 127.06 46.3454 126.564V122.652H48.2894V126.3C48.2894 126.644 48.3934 126.924 48.6014 127.14C48.8174 127.348 49.0974 127.452 49.4414 127.452C49.6894 127.452 49.9094 127.408 50.1014 127.32C50.2934 127.232 50.4534 127.108 50.5814 126.948V122.652H52.5254V129H50.5814V128.568C50.1014 128.936 49.5334 129.12 48.8774 129.12ZM54.9293 129V120.6L56.8733 120.3V129H54.9293ZM59.2699 129V120.6L61.2139 120.3V129H59.2699ZM68.3783 129L66.6503 122.652H68.4863L69.4223 126.384L70.5623 122.652H72.1703L73.3103 126.396L74.2343 122.652H76.0463L74.3063 129H72.4463L71.3423 125.328L70.2503 129H68.3783ZM80.991 129.12C80.343 129.12 79.755 128.976 79.227 128.688C78.707 128.392 78.295 127.996 77.991 127.5C77.687 127.004 77.535 126.448 77.535 125.832C77.535 125.216 77.679 124.66 77.967 124.164C78.263 123.668 78.663 123.276 79.167 122.988C79.671 122.692 80.231 122.544 80.847 122.544C81.471 122.544 82.023 122.696 82.503 123C82.983 123.296 83.359 123.704 83.631 124.224C83.911 124.744 84.051 125.34 84.051 126.012V126.492H79.527C79.615 126.692 79.731 126.868 79.875 127.02C80.027 127.172 80.207 127.292 80.415 127.38C80.623 127.46 80.847 127.5 81.087 127.5C81.351 127.5 81.591 127.46 81.807 127.38C82.023 127.292 82.207 127.172 82.359 127.02L83.643 128.16C83.243 128.496 82.831 128.74 82.407 128.892C81.991 129.044 81.519 129.12 80.991 129.12ZM79.491 125.136H82.143C82.079 124.928 81.979 124.752 81.843 124.608C81.715 124.456 81.563 124.34 81.387 124.26C81.211 124.172 81.019 124.128 80.811 124.128C80.595 124.128 80.399 124.168 80.223 124.248C80.047 124.328 79.895 124.444 79.767 124.596C79.647 124.74 79.555 124.92 79.491 125.136ZM86.1598 129V120.6L88.1038 120.3V123.096C88.5998 122.744 89.1598 122.568 89.7838 122.568C90.3918 122.568 90.9398 122.716 91.4278 123.012C91.9158 123.3 92.3038 123.692 92.5918 124.188C92.8798 124.676 93.0238 125.224 93.0238 125.832C93.0238 126.44 92.8758 126.992 92.5798 127.488C92.2918 127.976 91.8958 128.364 91.3918 128.652C90.8958 128.94 90.3398 129.084 89.7238 129.084C89.4278 129.084 89.1398 129.048 88.8598 128.976C88.5798 128.896 88.3198 128.784 88.0798 128.64V129H86.1598ZM89.4478 127.44C89.7678 127.44 90.0518 127.372 90.2998 127.236C90.5478 127.092 90.7438 126.9 90.8878 126.66C91.0398 126.412 91.1158 126.136 91.1158 125.832C91.1158 125.528 91.0398 125.256 90.8878 125.016C90.7438 124.768 90.5438 124.576 90.2878 124.44C90.0398 124.296 89.7598 124.224 89.4478 124.224C89.1758 124.224 88.9278 124.268 88.7038 124.356C88.4798 124.436 88.2798 124.56 88.1038 124.728V126.948C88.2718 127.1 88.4718 127.22 88.7038 127.308C88.9358 127.396 89.1838 127.44 89.4478 127.44ZM97.649 129.12C97.049 129.12 96.493 129.052 95.981 128.916C95.469 128.772 95.025 128.564 94.649 128.292L95.573 126.984C95.973 127.224 96.337 127.4 96.665 127.512C96.993 127.616 97.317 127.668 97.637 127.668C97.957 127.668 98.209 127.624 98.393 127.536C98.585 127.44 98.681 127.316 98.681 127.164C98.681 127.044 98.629 126.948 98.525 126.876C98.421 126.796 98.257 126.74 98.033 126.708L96.773 126.516C96.141 126.42 95.657 126.212 95.321 125.892C94.993 125.564 94.829 125.14 94.829 124.62C94.829 124.188 94.937 123.82 95.153 123.516C95.377 123.204 95.693 122.968 96.101 122.808C96.509 122.64 96.997 122.556 97.565 122.556C98.029 122.556 98.489 122.62 98.945 122.748C99.401 122.876 99.825 123.068 100.217 123.324L99.293 124.572C98.949 124.372 98.621 124.228 98.309 124.14C97.997 124.044 97.685 123.996 97.373 123.996C97.125 123.996 96.925 124.04 96.773 124.128C96.621 124.208 96.545 124.316 96.545 124.452C96.545 124.58 96.601 124.684 96.713 124.764C96.825 124.836 97.017 124.892 97.289 124.932L98.549 125.124C99.173 125.212 99.653 125.42 99.989 125.748C100.333 126.068 100.505 126.476 100.505 126.972C100.505 127.388 100.381 127.756 100.133 128.076C99.885 128.396 99.545 128.652 99.113 128.844C98.689 129.028 98.201 129.12 97.649 129.12ZM102.446 129V122.652H104.39V129H102.446ZM103.418 122.064C103.122 122.064 102.87 121.96 102.662 121.752C102.454 121.544 102.35 121.292 102.35 120.996C102.35 120.7 102.454 120.448 102.662 120.24C102.87 120.032 103.122 119.928 103.418 119.928C103.714 119.928 103.966 120.032 104.174 120.24C104.382 120.448 104.486 120.7 104.486 120.996C104.486 121.292 104.382 121.544 104.174 121.752C103.966 121.96 103.714 122.064 103.418 122.064ZM109.991 129.084C109.231 129.084 108.655 128.916 108.263 128.58C107.879 128.236 107.687 127.732 107.687 127.068V124.272H106.403V122.652H107.687V121.02L109.631 120.6V122.652H111.407V124.272H109.631V126.684C109.631 126.964 109.691 127.164 109.811 127.284C109.939 127.396 110.159 127.452 110.471 127.452C110.631 127.452 110.775 127.444 110.903 127.428C111.039 127.404 111.187 127.368 111.347 127.32V128.892C111.171 128.948 110.947 128.992 110.675 129.024C110.403 129.064 110.175 129.084 109.991 129.084ZM116.475 129.12C115.827 129.12 115.239 128.976 114.711 128.688C114.191 128.392 113.779 127.996 113.475 127.5C113.171 127.004 113.019 126.448 113.019 125.832C113.019 125.216 113.163 124.66 113.451 124.164C113.747 123.668 114.147 123.276 114.651 122.988C115.155 122.692 115.715 122.544 116.331 122.544C116.955 122.544 117.507 122.696 117.987 123C118.467 123.296 118.843 123.704 119.115 124.224C119.395 124.744 119.535 125.34 119.535 126.012V126.492H115.011C115.099 126.692 115.215 126.868 115.359 127.02C115.511 127.172 115.691 127.292 115.899 127.38C116.107 127.46 116.331 127.5 116.571 127.5C116.835 127.5 117.075 127.46 117.291 127.38C117.507 127.292 117.691 127.172 117.843 127.02L119.127 128.16C118.727 128.496 118.315 128.74 117.891 128.892C117.475 129.044 117.003 129.12 116.475 129.12ZM114.975 125.136H117.627C117.563 124.928 117.463 124.752 117.327 124.608C117.199 124.456 117.047 124.34 116.871 124.26C116.695 124.172 116.503 124.128 116.295 124.128C116.079 124.128 115.883 124.168 115.707 124.248C115.531 124.328 115.379 124.444 115.251 124.596C115.131 124.74 115.039 124.92 114.975 125.136Z" fill="#100B00"/>
<path d="M20.5152 103.451C19.5778 103.451 18.7576 103.111 18.0545 102.43C17.3515 101.748 17 100.954 17 100.045V56.9003C17 55.992 17.3515 55.1972 18.0545 54.516C18.7576 53.8348 19.5778 53.4941 20.5152 53.4941H46.2929C47.2303 53.4941 48.0505 53.8348 48.7535 54.516C49.4566 55.1972 49.8081 55.992 49.8081 56.9003V100.045C49.8081 100.954 49.4566 101.748 48.7535 102.43C48.0505 103.111 47.2303 103.451 46.2929 103.451H20.5152ZM33.404 99.1937C33.9118 99.1937 34.3317 99.0328 34.6636 98.7111C34.9956 98.3895 35.1616 97.9826 35.1616 97.4906C35.1616 96.9986 34.9956 96.5917 34.6636 96.2701C34.3317 95.9484 33.9118 95.7875 33.404 95.7875C32.8963 95.7875 32.4764 95.9484 32.1444 96.2701C31.8125 96.5917 31.6465 96.9986 31.6465 97.4906C31.6465 97.9826 31.8125 98.3895 32.1444 98.7111C32.4764 99.0328 32.8963 99.1937 33.404 99.1937ZM20.5152 91.5298H46.2929V58.6034H20.5152V91.5298Z" fill="#100B00"/>
<path d="M30.6528 103.5C29.6501 103.5 28.8209 103.171 28.1652 102.514C27.5096 101.857 27.1818 101.026 27.1818 100.021C27.1818 99.0157 39.5362 100.678 40.1919 100.021C40.8475 99.3636 46.5426 96.5417 47.5454 96.5417L125.529 96.5417C126.532 96.5417 127.361 96.8703 128.016 97.5274C128.672 98.1846 129 99.0157 129 100.021C129 101.026 128.672 101.857 128.016 102.514C127.361 103.171 126.532 103.5 125.529 103.5H30.6528ZM48.5867 88.6912C48.5867 86.9882 48.9338 58.2919 47.5454 56.9003C46.157 55.5086 31.8099 58.1881 31.8099 56.3326V54.7917V26.9583C31.8099 25.1028 32.5041 23.4792 33.8925 22.0875C35.2809 20.6958 36.9008 20 38.752 20H117.43C119.281 20 120.901 20.6958 122.289 22.0875C123.678 23.4792 124.372 25.1028 124.372 26.9583V82.625C124.372 84.4806 123.678 86.1042 122.289 87.4958C120.901 88.8875 119.281 89.5833 117.43 89.5833H78.0909H58.4214H48.5867V88.6912ZM48.5867 54.7917V82.625H58.4214H78.0909H117.43V26.9583H38.752V54.7917H48.5867Z" fill="#100B00"/>
</g>
<g opacity="0.6">
<path d="M3 3L153 153" stroke="#CA1313" stroke-width="6" stroke-linecap="round"/>
<path d="M3 153L153 3" stroke="#CA1313" stroke-width="6" stroke-linecap="round"/>
</g>
<path d="M36.9697 71L34.0897 60.42H37.1497L38.7097 66.64L40.6097 60.42H43.2897L45.1897 66.66L46.7297 60.42H49.7497L46.8497 71H43.7497L41.9097 64.88L40.0897 71H36.9697ZM57.9709 71.2C56.8909 71.2 55.9176 70.96 55.0509 70.48C54.1843 69.9867 53.4976 69.3267 52.9909 68.5C52.4843 67.6733 52.2309 66.7467 52.2309 65.72C52.2309 64.6933 52.4843 63.7667 52.9909 62.94C53.4976 62.1 54.1843 61.44 55.0509 60.96C55.9176 60.4667 56.8909 60.22 57.9709 60.22C59.0509 60.22 60.0243 60.4667 60.8909 60.96C61.7576 61.44 62.4443 62.1 62.9509 62.94C63.4576 63.7667 63.7109 64.6933 63.7109 65.72C63.7109 66.7467 63.4576 67.6733 62.9509 68.5C62.4443 69.3267 61.7576 69.9867 60.8909 70.48C60.0243 70.96 59.0509 71.2 57.9709 71.2ZM57.9709 68.4C58.4643 68.4 58.9043 68.28 59.2909 68.04C59.6776 67.8 59.9843 67.48 60.2109 67.08C60.4376 66.6667 60.5509 66.2133 60.5509 65.72C60.5509 65.2133 60.4376 64.76 60.2109 64.36C59.9843 63.9467 59.6709 63.62 59.2709 63.38C58.8843 63.14 58.4509 63.02 57.9709 63.02C57.4909 63.02 57.0509 63.14 56.6509 63.38C56.2643 63.62 55.9576 63.9467 55.7309 64.36C55.5043 64.76 55.3909 65.2133 55.3909 65.72C55.3909 66.2133 55.5043 66.6667 55.7309 67.08C55.9576 67.48 56.2643 67.8 56.6509 68.04C57.0509 68.28 57.4909 68.4 57.9709 68.4ZM67.2305 71V60.42H70.4705V61.48C70.8171 61.0533 71.2238 60.7333 71.6905 60.52C72.1571 60.2933 72.6771 60.18 73.2505 60.18C73.8238 60.1933 74.2305 60.28 74.4705 60.44V63.26C74.2571 63.1533 74.0171 63.0733 73.7505 63.02C73.4838 62.9667 73.2105 62.94 72.9305 62.94C72.4238 62.94 71.9505 63.06 71.5105 63.3C71.0838 63.5267 70.7371 63.8533 70.4705 64.28V71H67.2305ZM77.8633 71V57L81.1033 56.5V64.74L85.3233 60.42H88.9433L84.2433 65.2L89.2633 71H85.1633L81.1033 66.26V71H77.8633ZM97.7031 71V60.42H100.943V71H97.7031ZM99.3231 59.44C98.8298 59.44 98.4098 59.2667 98.0631 58.92C97.7165 58.5733 97.5431 58.1533 97.5431 57.66C97.5431 57.1667 97.7165 56.7467 98.0631 56.4C98.4098 56.0533 98.8298 55.88 99.3231 55.88C99.8165 55.88 100.236 56.0533 100.583 56.4C100.93 56.7467 101.103 57.1667 101.103 57.66C101.103 58.1533 100.93 58.5733 100.583 58.92C100.236 59.2667 99.8165 59.44 99.3231 59.44ZM104.938 71V60.42H108.178V61.14C108.978 60.5267 109.924 60.22 111.018 60.22C111.844 60.22 112.571 60.4 113.198 60.76C113.838 61.12 114.338 61.62 114.698 62.26C115.058 62.9 115.237 63.64 115.237 64.48V71H111.998V64.92C111.998 64.3333 111.824 63.8667 111.478 63.52C111.131 63.1733 110.664 63 110.078 63C109.664 63 109.298 63.0733 108.978 63.22C108.671 63.3667 108.404 63.5733 108.178 63.84V71H104.938ZM28.3086 101.08V86.42H31.5086V87.2C32.3486 86.5867 33.2953 86.28 34.3486 86.28C35.3619 86.28 36.2753 86.5267 37.0886 87.02C37.9019 87.5 38.5486 88.1533 39.0286 88.98C39.5086 89.7933 39.7486 90.7067 39.7486 91.72C39.7486 92.7333 39.5019 93.6533 39.0086 94.48C38.5286 95.2933 37.8686 95.94 37.0286 96.42C36.2019 96.9 35.2753 97.14 34.2486 97.14C33.7553 97.14 33.2819 97.08 32.8286 96.96C32.3753 96.84 31.9486 96.6667 31.5486 96.44V101.08H28.3086ZM33.7886 94.4C34.3219 94.4 34.7953 94.2867 35.2086 94.06C35.6219 93.82 35.9486 93.5 36.1886 93.1C36.4419 92.6867 36.5686 92.2267 36.5686 91.72C36.5686 91.2133 36.4419 90.76 36.1886 90.36C35.9486 89.9467 35.6153 89.6267 35.1886 89.4C34.7753 89.16 34.3086 89.04 33.7886 89.04C33.3353 89.04 32.9219 89.1133 32.5486 89.26C32.1753 89.3933 31.8419 89.6 31.5486 89.88V93.58C31.8286 93.8333 32.1619 94.0333 32.5486 94.18C32.9353 94.3267 33.3486 94.4 33.7886 94.4ZM43.2773 97V86.42H46.5173V87.48C46.864 87.0533 47.2707 86.7333 47.7373 86.52C48.204 86.2933 48.724 86.18 49.2973 86.18C49.8707 86.1933 50.2773 86.28 50.5173 86.44V89.26C50.304 89.1533 50.064 89.0733 49.7973 89.02C49.5307 88.9667 49.2573 88.94 48.9773 88.94C48.4707 88.94 47.9973 89.06 47.5573 89.3C47.1307 89.5267 46.784 89.8533 46.5173 90.28V97H43.2773ZM58.8772 97.2C57.7972 97.2 56.8239 96.96 55.9572 96.48C55.0905 95.9867 54.4039 95.3267 53.8972 94.5C53.3905 93.6733 53.1372 92.7467 53.1372 91.72C53.1372 90.6933 53.3905 89.7667 53.8972 88.94C54.4039 88.1 55.0905 87.44 55.9572 86.96C56.8239 86.4667 57.7972 86.22 58.8772 86.22C59.9572 86.22 60.9305 86.4667 61.7972 86.96C62.6639 87.44 63.3505 88.1 63.8572 88.94C64.3639 89.7667 64.6172 90.6933 64.6172 91.72C64.6172 92.7467 64.3639 93.6733 63.8572 94.5C63.3505 95.3267 62.6639 95.9867 61.7972 96.48C60.9305 96.96 59.9572 97.2 58.8772 97.2ZM58.8772 94.4C59.3705 94.4 59.8105 94.28 60.1972 94.04C60.5839 93.8 60.8905 93.48 61.1172 93.08C61.3439 92.6667 61.4572 92.2133 61.4572 91.72C61.4572 91.2133 61.3439 90.76 61.1172 90.36C60.8905 89.9467 60.5772 89.62 60.1772 89.38C59.7905 89.14 59.3572 89.02 58.8772 89.02C58.3972 89.02 57.9572 89.14 57.5572 89.38C57.1705 89.62 56.8639 89.9467 56.6372 90.36C56.4105 90.76 56.2972 91.2133 56.2972 91.72C56.2972 92.2133 56.4105 92.6667 56.6372 93.08C56.8639 93.48 57.1705 93.8 57.5572 94.04C57.9572 94.28 58.3972 94.4 58.8772 94.4ZM73.5367 101.28C72.6834 101.28 71.8701 101.2 71.0967 101.04C70.3367 100.88 69.6434 100.653 69.0167 100.36L70.0967 97.84C70.6701 98.1067 71.2367 98.3067 71.7967 98.44C72.3567 98.5733 72.9167 98.64 73.4767 98.64C74.2367 98.64 74.8101 98.4867 75.1967 98.18C75.5834 97.8733 75.7767 97.4133 75.7767 96.8V96.2C74.9501 96.76 74.0367 97.04 73.0367 97.04C72.0367 97.04 71.1301 96.8 70.3167 96.32C69.5034 95.84 68.8567 95.1933 68.3767 94.38C67.8967 93.5533 67.6567 92.64 67.6567 91.64C67.6567 90.64 67.8967 89.7333 68.3767 88.92C68.8701 88.1067 69.5301 87.4667 70.3567 87C71.1967 86.52 72.1301 86.28 73.1567 86.28C73.6367 86.28 74.1034 86.34 74.5567 86.46C75.0101 86.58 75.4301 86.7533 75.8167 86.98V86.42H79.0167V96.84C79.0167 98.2667 78.5434 99.36 77.5967 100.12C76.6634 100.893 75.3101 101.28 73.5367 101.28ZM73.5967 94.32C74.0367 94.32 74.4367 94.2533 74.7967 94.12C75.1701 93.9867 75.4967 93.7933 75.7767 93.54V89.8C75.4967 89.56 75.1701 89.3733 74.7967 89.24C74.4367 89.0933 74.0434 89.02 73.6167 89.02C73.0967 89.02 72.6234 89.14 72.1967 89.38C71.7834 89.6067 71.4501 89.92 71.1967 90.32C70.9567 90.7067 70.8367 91.1467 70.8367 91.64C70.8367 92.1467 70.9567 92.6067 71.1967 93.02C71.4367 93.42 71.7634 93.74 72.1767 93.98C72.6034 94.2067 73.0767 94.32 73.5967 94.32ZM83.0078 97V86.42H86.2478V87.48C86.5945 87.0533 87.0011 86.7333 87.4678 86.52C87.9345 86.2933 88.4545 86.18 89.0278 86.18C89.6011 86.1933 90.0078 86.28 90.2478 86.44V89.26C90.0345 89.1533 89.7945 89.0733 89.5278 89.02C89.2611 88.9667 88.9878 88.94 88.7078 88.94C88.2011 88.94 87.7278 89.06 87.2878 89.3C86.8611 89.5267 86.5145 89.8533 86.2478 90.28V97H83.0078ZM98.6277 97.2C97.5477 97.2 96.5677 96.96 95.6877 96.48C94.821 95.9867 94.1343 95.3267 93.6277 94.5C93.121 93.6733 92.8677 92.7467 92.8677 91.72C92.8677 90.6933 93.1077 89.7667 93.5877 88.94C94.081 88.1133 94.7477 87.46 95.5877 86.98C96.4277 86.4867 97.361 86.24 98.3877 86.24C99.4277 86.24 100.348 86.4933 101.148 87C101.948 87.4933 102.574 88.1733 103.028 89.04C103.494 89.9067 103.728 90.9 103.728 92.02V92.82H96.1877C96.3343 93.1533 96.5277 93.4467 96.7677 93.7C97.021 93.9533 97.321 94.1533 97.6677 94.3C98.0143 94.4333 98.3877 94.5 98.7877 94.5C99.2277 94.5 99.6277 94.4333 99.9877 94.3C100.348 94.1533 100.654 93.9533 100.908 93.7L103.048 95.6C102.381 96.16 101.694 96.5667 100.988 96.82C100.294 97.0733 99.5077 97.2 98.6277 97.2ZM96.1277 90.56H100.548C100.441 90.2133 100.274 89.92 100.048 89.68C99.8343 89.4267 99.581 89.2333 99.2877 89.1C98.9943 88.9533 98.6743 88.88 98.3277 88.88C97.9677 88.88 97.641 88.9467 97.3477 89.08C97.0543 89.2133 96.801 89.4067 96.5877 89.66C96.3877 89.9 96.2343 90.2 96.1277 90.56ZM111.52 97.2C110.52 97.2 109.593 97.0867 108.74 96.86C107.887 96.62 107.147 96.2733 106.52 95.82L108.06 93.64C108.727 94.04 109.333 94.3333 109.88 94.52C110.427 94.6933 110.967 94.78 111.5 94.78C112.033 94.78 112.453 94.7067 112.76 94.56C113.08 94.4 113.24 94.1933 113.24 93.94C113.24 93.74 113.153 93.58 112.98 93.46C112.807 93.3267 112.533 93.2333 112.16 93.18L110.06 92.86C109.007 92.7 108.2 92.3533 107.64 91.82C107.093 91.2733 106.82 90.5667 106.82 89.7C106.82 88.98 107 88.3667 107.36 87.86C107.733 87.34 108.26 86.9467 108.94 86.68C109.62 86.4 110.433 86.26 111.38 86.26C112.153 86.26 112.92 86.3667 113.68 86.58C114.44 86.7933 115.147 87.1133 115.8 87.54L114.26 89.62C113.687 89.2867 113.14 89.0467 112.62 88.9C112.1 88.74 111.58 88.66 111.06 88.66C110.647 88.66 110.313 88.7333 110.06 88.88C109.807 89.0133 109.68 89.1933 109.68 89.42C109.68 89.6333 109.773 89.8067 109.96 89.94C110.147 90.06 110.467 90.1533 110.92 90.22L113.02 90.54C114.06 90.6867 114.86 91.0333 115.42 91.58C115.993 92.1133 116.28 92.7933 116.28 93.62C116.28 94.3133 116.073 94.9267 115.66 95.46C115.247 95.9933 114.68 96.42 113.96 96.74C113.253 97.0467 112.44 97.2 111.52 97.2ZM123.696 97.2C122.696 97.2 121.769 97.0867 120.916 96.86C120.062 96.62 119.322 96.2733 118.696 95.82L120.236 93.64C120.902 94.04 121.509 94.3333 122.056 94.52C122.602 94.6933 123.142 94.78 123.676 94.78C124.209 94.78 124.629 94.7067 124.936 94.56C125.256 94.4 125.416 94.1933 125.416 93.94C125.416 93.74 125.329 93.58 125.156 93.46C124.982 93.3267 124.709 93.2333 124.336 93.18L122.236 92.86C121.182 92.7 120.376 92.3533 119.816 91.82C119.269 91.2733 118.996 90.5667 118.996 89.7C118.996 88.98 119.176 88.3667 119.536 87.86C119.909 87.34 120.436 86.9467 121.116 86.68C121.796 86.4 122.609 86.26 123.556 86.26C124.329 86.26 125.096 86.3667 125.856 86.58C126.616 86.7933 127.322 87.1133 127.976 87.54L126.436 89.62C125.862 89.2867 125.316 89.0467 124.796 88.9C124.276 88.74 123.756 88.66 123.236 88.66C122.822 88.66 122.489 88.7333 122.236 88.88C121.982 89.0133 121.856 89.1933 121.856 89.42C121.856 89.6333 121.949 89.8067 122.136 89.94C122.322 90.06 122.642 90.1533 123.096 90.22L125.196 90.54C126.236 90.6867 127.036 91.0333 127.596 91.58C128.169 92.1133 128.456 92.7933 128.456 93.62C128.456 94.3133 128.249 94.9267 127.836 95.46C127.422 95.9933 126.856 96.42 126.136 96.74C125.429 97.0467 124.616 97.2 123.696 97.2Z" fill="black"/>
<defs>
<filter id="filter0_f_344_198" x="2" y="5" width="142" height="139.12" filterUnits="userSpaceOnUse" color-interpolation-filters="sRGB">
<feFlood flood-opacity="0" result="BackgroundImageFix"/>
<feBlend mode="normal" in="SourceGraphic" in2="BackgroundImageFix" result="shape"/>
<feGaussianBlur stdDeviation="7.5" result="effect1_foregroundBlur_344_198"/>
</filter>
</defs>
</svg>
