<svg width="112" height="113" viewBox="0 0 112 113" fill="none" xmlns="http://www.w3.org/2000/svg">
<path d="M23.7639 109V104.272H22.3719V102.652H23.7639V102.268C23.7639 101.516 23.9839 100.944 24.4239 100.552C24.8719 100.152 25.5119 99.952 26.3439 99.952C26.5119 99.952 26.6919 99.964 26.8839 99.988C27.0839 100.004 27.2479 100.032 27.3759 100.072V101.68C27.2239 101.648 27.0879 101.628 26.9679 101.62C26.8559 101.604 26.7359 101.596 26.6079 101.596C26.3119 101.596 26.0879 101.656 25.9359 101.776C25.7839 101.888 25.7079 102.064 25.7079 102.304V102.652H27.3759V104.272H25.7079V109H23.7639ZM31.8774 109.12C31.3814 109.12 30.9414 109.012 30.5574 108.796C30.1814 108.58 29.8854 108.28 29.6694 107.896C29.4534 107.504 29.3454 107.06 29.3454 106.564V102.652H31.2894V106.3C31.2894 106.644 31.3934 106.924 31.6014 107.14C31.8174 107.348 32.0974 107.452 32.4414 107.452C32.6894 107.452 32.9094 107.408 33.1014 107.32C33.2934 107.232 33.4534 107.108 33.5814 106.948V102.652H35.5254V109H33.5814V108.568C33.1014 108.936 32.5334 109.12 31.8774 109.12ZM37.9293 109V100.6L39.8733 100.3V109H37.9293ZM42.2699 109V100.6L44.2139 100.3V109H42.2699ZM51.3783 109L49.6503 102.652H51.4863L52.4223 106.384L53.5623 102.652H55.1703L56.3103 106.396L57.2343 102.652H59.0463L57.3063 109H55.4463L54.3423 105.328L53.2503 109H51.3783ZM63.991 109.12C63.343 109.12 62.755 108.976 62.227 108.688C61.707 108.392 61.295 107.996 60.991 107.5C60.687 107.004 60.535 106.448 60.535 105.832C60.535 105.216 60.679 104.66 60.967 104.164C61.263 103.668 61.663 103.276 62.167 102.988C62.671 102.692 63.231 102.544 63.847 102.544C64.471 102.544 65.023 102.696 65.503 103C65.983 103.296 66.359 103.704 66.631 104.224C66.911 104.744 67.051 105.34 67.051 106.012V106.492H62.527C62.615 106.692 62.731 106.868 62.875 107.02C63.027 107.172 63.207 107.292 63.415 107.38C63.623 107.46 63.847 107.5 64.087 107.5C64.351 107.5 64.591 107.46 64.807 107.38C65.023 107.292 65.207 107.172 65.359 107.02L66.643 108.16C66.243 108.496 65.831 108.74 65.407 108.892C64.991 109.044 64.519 109.12 63.991 109.12ZM62.491 105.136H65.143C65.079 104.928 64.979 104.752 64.843 104.608C64.715 104.456 64.563 104.34 64.387 104.26C64.211 104.172 64.019 104.128 63.811 104.128C63.595 104.128 63.399 104.168 63.223 104.248C63.047 104.328 62.895 104.444 62.767 104.596C62.647 104.74 62.555 104.92 62.491 105.136ZM69.1598 109V100.6L71.1038 100.3V103.096C71.5998 102.744 72.1598 102.568 72.7838 102.568C73.3918 102.568 73.9398 102.716 74.4278 103.012C74.9158 103.3 75.3038 103.692 75.5918 104.188C75.8798 104.676 76.0238 105.224 76.0238 105.832C76.0238 106.44 75.8758 106.992 75.5798 107.488C75.2918 107.976 74.8958 108.364 74.3918 108.652C73.8958 108.94 73.3398 109.084 72.7238 109.084C72.4278 109.084 72.1398 109.048 71.8598 108.976C71.5798 108.896 71.3198 108.784 71.0798 108.64V109H69.1598ZM72.4478 107.44C72.7678 107.44 73.0518 107.372 73.2998 107.236C73.5478 107.092 73.7438 106.9 73.8878 106.66C74.0398 106.412 74.1158 106.136 74.1158 105.832C74.1158 105.528 74.0398 105.256 73.8878 105.016C73.7438 104.768 73.5438 104.576 73.2878 104.44C73.0398 104.296 72.7598 104.224 72.4478 104.224C72.1758 104.224 71.9278 104.268 71.7038 104.356C71.4798 104.436 71.2798 104.56 71.1038 104.728V106.948C71.2718 107.1 71.4718 107.22 71.7038 107.308C71.9358 107.396 72.1838 107.44 72.4478 107.44ZM80.649 109.12C80.049 109.12 79.493 109.052 78.981 108.916C78.469 108.772 78.025 108.564 77.649 108.292L78.573 106.984C78.973 107.224 79.337 107.4 79.665 107.512C79.993 107.616 80.317 107.668 80.637 107.668C80.957 107.668 81.209 107.624 81.393 107.536C81.585 107.44 81.681 107.316 81.681 107.164C81.681 107.044 81.629 106.948 81.525 106.876C81.421 106.796 81.257 106.74 81.033 106.708L79.773 106.516C79.141 106.42 78.657 106.212 78.321 105.892C77.993 105.564 77.829 105.14 77.829 104.62C77.829 104.188 77.937 103.82 78.153 103.516C78.377 103.204 78.693 102.968 79.101 102.808C79.509 102.64 79.997 102.556 80.565 102.556C81.029 102.556 81.489 102.62 81.945 102.748C82.401 102.876 82.825 103.068 83.217 103.324L82.293 104.572C81.949 104.372 81.621 104.228 81.309 104.14C80.997 104.044 80.685 103.996 80.373 103.996C80.125 103.996 79.925 104.04 79.773 104.128C79.621 104.208 79.545 104.316 79.545 104.452C79.545 104.58 79.601 104.684 79.713 104.764C79.825 104.836 80.017 104.892 80.289 104.932L81.549 105.124C82.173 105.212 82.653 105.42 82.989 105.748C83.333 106.068 83.505 106.476 83.505 106.972C83.505 107.388 83.381 107.756 83.133 108.076C82.885 108.396 82.545 108.652 82.113 108.844C81.689 109.028 81.201 109.12 80.649 109.12ZM85.4465 109V102.652H87.3905V109H85.4465ZM86.4185 102.064C86.1225 102.064 85.8705 101.96 85.6625 101.752C85.4545 101.544 85.3505 101.292 85.3505 100.996C85.3505 100.7 85.4545 100.448 85.6625 100.24C85.8705 100.032 86.1225 99.928 86.4185 99.928C86.7145 99.928 86.9665 100.032 87.1745 100.24C87.3825 100.448 87.4865 100.7 87.4865 100.996C87.4865 101.292 87.3825 101.544 87.1745 101.752C86.9665 101.96 86.7145 102.064 86.4185 102.064ZM92.9911 109.084C92.2311 109.084 91.6551 108.916 91.2631 108.58C90.8791 108.236 90.6871 107.732 90.6871 107.068V104.272H89.4031V102.652H90.6871V101.02L92.6311 100.6V102.652H94.4071V104.272H92.6311V106.684C92.6311 106.964 92.6911 107.164 92.8111 107.284C92.9391 107.396 93.1591 107.452 93.4711 107.452C93.6311 107.452 93.7751 107.444 93.9031 107.428C94.0391 107.404 94.1871 107.368 94.3471 107.32V108.892C94.1711 108.948 93.9471 108.992 93.6751 109.024C93.4031 109.064 93.1751 109.084 92.9911 109.084ZM99.4754 109.12C98.8274 109.12 98.2394 108.976 97.7114 108.688C97.1914 108.392 96.7794 107.996 96.4754 107.5C96.1714 107.004 96.0194 106.448 96.0194 105.832C96.0194 105.216 96.1634 104.66 96.4514 104.164C96.7474 103.668 97.1474 103.276 97.6514 102.988C98.1554 102.692 98.7154 102.544 99.3314 102.544C99.9554 102.544 100.507 102.696 100.987 103C101.467 103.296 101.843 103.704 102.115 104.224C102.395 104.744 102.535 105.34 102.535 106.012V106.492H98.0114C98.0994 106.692 98.2154 106.868 98.3594 107.02C98.5114 107.172 98.6914 107.292 98.8994 107.38C99.1074 107.46 99.3314 107.5 99.5714 107.5C99.8354 107.5 100.075 107.46 100.291 107.38C100.507 107.292 100.691 107.172 100.843 107.02L102.127 108.16C101.727 108.496 101.315 108.74 100.891 108.892C100.475 109.044 100.003 109.12 99.4754 109.12ZM97.9754 105.136H100.627C100.563 104.928 100.463 104.752 100.327 104.608C100.199 104.456 100.047 104.34 99.8714 104.26C99.6954 104.172 99.5034 104.128 99.2954 104.128C99.0794 104.128 98.8834 104.168 98.7074 104.248C98.5314 104.328 98.3794 104.444 98.2514 104.596C98.1314 104.74 98.0394 104.92 97.9754 105.136Z" fill="#100B00"/>
<path d="M3.51515 83.4514C2.57778 83.4514 1.75758 83.1108 1.05455 82.4296C0.351515 81.7483 0 80.9535 0 80.0452V36.9003C0 35.992 0.351515 35.1972 1.05455 34.516C1.75758 33.8348 2.57778 33.4941 3.51515 33.4941H29.2929C30.2303 33.4941 31.0505 33.8348 31.7535 34.516C32.4566 35.1972 32.8081 35.992 32.8081 36.9003V80.0452C32.8081 80.9535 32.4566 81.7483 31.7535 82.4296C31.0505 83.1108 30.2303 83.4514 29.2929 83.4514H3.51515ZM16.404 79.1937C16.9118 79.1937 17.3317 79.0328 17.6636 78.7111C17.9956 78.3895 18.1616 77.9826 18.1616 77.4906C18.1616 76.9986 17.9956 76.5917 17.6636 76.2701C17.3317 75.9484 16.9118 75.7875 16.404 75.7875C15.8963 75.7875 15.4764 75.9484 15.1444 76.2701C14.8125 76.5917 14.6465 76.9986 14.6465 77.4906C14.6465 77.9826 14.8125 78.3895 15.1444 78.7111C15.4764 79.0328 15.8963 79.1937 16.404 79.1937ZM3.51515 71.5298H29.2929V38.6034H3.51515V71.5298Z" fill="#100B00"/>
<path d="M13.6528 83.5C12.6501 83.5 11.8209 83.1714 11.1652 82.5142C10.5096 81.8571 10.1818 81.0259 10.1818 80.0208C10.1818 79.0157 22.5362 80.678 23.1919 80.0208C23.8475 79.3636 29.5426 76.5417 30.5454 76.5417L108.529 76.5417C109.532 76.5417 110.361 76.8703 111.016 77.5274C111.672 78.1846 112 79.0157 112 80.0208C112 81.0259 111.672 81.8571 111.016 82.5142C110.361 83.1714 109.532 83.5 108.529 83.5H13.6528ZM31.5867 68.6912C31.5867 66.9882 31.9338 38.2919 30.5454 36.9003C29.157 35.5086 14.8099 38.1881 14.8099 36.3326V34.7917V6.95833C14.8099 5.10278 15.5041 3.47917 16.8925 2.0875C18.2809 0.695834 19.9008 0 21.752 0H100.43C102.281 0 103.901 0.695834 105.289 2.0875C106.678 3.47917 107.372 5.10278 107.372 6.95833V62.625C107.372 64.4806 106.678 66.1042 105.289 67.4958C103.901 68.8875 102.281 69.5833 100.43 69.5833H61.0909H41.4214H31.5867V68.6912ZM31.5867 34.7917V62.625H41.4214H61.0909H100.43V6.95833H21.752V34.7917H31.5867Z" fill="#100B00"/>
</svg>
