<svg width="162" height="76" viewBox="0 0 162 76" fill="none" xmlns="http://www.w3.org/2000/svg">
<path d="M29.0404 31.7794C30.5202 31.7794 31.8048 31.6493 32.8942 31.3891C34 31.1127 35.0488 30.7387 36.0407 30.2671V23.8522H31.6259C31.2031 23.8522 30.8698 23.7384 30.6259 23.5108C30.3819 23.2668 30.26 22.9741 30.26 22.6327V18.9252H41.9922V33.1941C41.0979 33.8445 40.1629 34.4137 39.1872 34.9015C38.2278 35.3731 37.1952 35.7633 36.0895 36.0723C35 36.3812 33.8292 36.6089 32.5772 36.7552C31.3251 36.9178 29.9754 36.9991 28.5282 36.9991C25.959 36.9991 23.593 36.552 21.4303 35.6576C19.2676 34.7633 17.3976 33.5193 15.8203 31.9258C14.243 30.3322 13.0072 28.4297 12.1129 26.2182C11.2348 24.0067 10.7957 21.592 10.7957 18.974C10.7957 16.3235 11.2266 13.8925 12.0885 11.681C12.9503 9.4695 14.1699 7.56697 15.7472 5.97341C17.3407 4.37984 19.2676 3.14402 21.5279 2.26593C23.7882 1.38785 26.3249 0.948803 29.138 0.948803C32.0162 0.948803 34.5041 1.37972 36.6017 2.24154C38.7156 3.08711 40.5043 4.19284 41.9678 5.55876L40.0653 8.5345C39.6913 9.13615 39.1953 9.43697 38.5774 9.43697C38.1872 9.43697 37.7888 9.30689 37.3822 9.04672C36.8619 8.73776 36.3253 8.4288 35.7724 8.11984C35.2358 7.81089 34.6342 7.54258 33.9675 7.31493C33.317 7.08728 32.5772 6.90028 31.7479 6.75393C30.9348 6.60758 29.9917 6.53441 28.9185 6.53441C27.1785 6.53441 25.6012 6.82711 24.1865 7.4125C22.7881 7.99789 21.5929 8.83532 20.601 9.9248C19.6091 11.0143 18.8449 12.3233 18.3082 13.8518C17.7716 15.3803 17.5033 17.0877 17.5033 18.974C17.5033 21.0066 17.7879 22.8197 18.357 24.4132C18.9262 25.9905 19.7229 27.3239 20.7474 28.4134C21.7718 29.5029 22.9914 30.3403 24.4061 30.9257C25.8208 31.4948 27.3655 31.7794 29.0404 31.7794ZM79.099 36.6089H74.0256C73.4565 36.6089 72.9849 36.4707 72.6109 36.1942C72.2532 35.9015 71.993 35.5438 71.8304 35.121L69.1961 27.9256H54.5857L51.9515 35.121C51.8214 35.495 51.5612 35.8365 51.171 36.1455C50.797 36.4544 50.3335 36.6089 49.7806 36.6089H44.6829L58.5371 1.33906H65.2447L79.099 36.6089ZM56.2687 23.2912H67.5131L63.2203 11.559C63.0251 11.0387 62.8056 10.4289 62.5617 9.72967C62.334 9.01419 62.1064 8.2418 61.8787 7.4125C61.6511 8.2418 61.4234 9.01419 61.1958 9.72967C60.9844 10.4451 60.773 11.0712 60.5616 11.6078L56.2687 23.2912ZM100.439 21.9741C100.716 22.4945 100.968 23.0392 101.196 23.6083C101.44 24.1612 101.675 24.7222 101.903 25.2913C102.131 24.7059 102.366 24.1287 102.61 23.5595C102.854 22.9904 103.114 22.4457 103.391 21.9253L113.83 2.38789C113.96 2.14397 114.09 1.94884 114.221 1.8025C114.367 1.65615 114.521 1.55045 114.684 1.48541C114.863 1.42037 115.058 1.37971 115.269 1.36345C115.481 1.34719 115.733 1.33906 116.026 1.33906H120.977V36.6089H115.196V13.8274C115.196 13.4046 115.204 12.9412 115.221 12.4371C115.253 11.933 115.294 11.4208 115.343 10.9005L104.684 30.9013C104.44 31.3566 104.123 31.7144 103.732 31.9745C103.342 32.2185 102.887 32.3404 102.366 32.3404H101.464C100.944 32.3404 100.488 32.2185 100.098 31.9745C99.7077 31.7144 99.3906 31.3566 99.1467 30.9013L88.3414 10.8273C88.4064 11.3639 88.4471 11.8924 88.4633 12.4127C88.4959 12.9168 88.5121 13.3884 88.5121 13.8274V36.6089H82.7314V1.33906H87.6828C87.9755 1.33906 88.2276 1.34719 88.439 1.36345C88.6503 1.37971 88.8373 1.42037 89 1.48541C89.1788 1.55045 89.3414 1.65615 89.4878 1.8025C89.6341 1.94884 89.7723 2.14397 89.9024 2.38789L100.439 21.9741ZM150.329 1.33906V6.5588H134.694V16.3397H147.012V21.3887H134.694V31.3648H150.329V36.6089H128.084V1.33906H150.329ZM28.6955 40.3391V45.7295H18.0853V75.6089H11.524V45.7295H0.865031V40.3391H28.6955ZM39.6339 61.8278V75.6089H33.0726V40.3391H43.8292C46.2358 40.3391 48.2928 40.5911 50.0002 41.0952C51.7238 41.583 53.1304 42.2741 54.2199 43.1685C55.3256 44.0628 56.1305 45.136 56.6346 46.3881C57.1549 47.6239 57.4151 48.9898 57.4151 50.4858C57.4151 51.6729 57.2363 52.7949 56.8785 53.8518C56.537 54.9088 56.0329 55.8682 55.3663 56.73C54.7158 57.5918 53.9028 58.348 52.9271 58.9984C51.9677 59.6488 50.8701 60.1692 49.6343 60.5595C50.4636 61.031 51.1791 61.7058 51.7807 62.5839L60.6104 75.6089H54.7077C54.1386 75.6089 53.6507 75.4951 53.2442 75.2674C52.8539 75.0398 52.5206 74.7145 52.2442 74.2918L44.8292 62.9986C44.5528 62.5758 44.2438 62.275 43.9023 62.0961C43.5771 61.9172 43.0893 61.8278 42.4389 61.8278H39.6339ZM39.6339 57.1203H43.7316C44.9674 57.1203 46.0406 56.9658 46.9513 56.6568C47.8781 56.3479 48.6343 55.9251 49.2196 55.3885C49.8213 54.8356 50.2685 54.1852 50.5612 53.4372C50.8539 52.6892 51.0002 51.868 51.0002 50.9737C51.0002 49.185 50.4067 47.8109 49.2196 46.8515C48.0489 45.8921 46.252 45.4125 43.8292 45.4125H39.6339V57.1203ZM95.8204 75.6089H90.747C90.1779 75.6089 89.7063 75.4707 89.3323 75.1942C88.9745 74.9015 88.7144 74.5438 88.5518 74.121L85.9175 66.9256H71.3071L68.6729 74.121C68.5428 74.495 68.2826 74.8365 67.8923 75.1455C67.5183 75.4544 67.0549 75.6089 66.502 75.6089H61.4042L75.2585 40.3391H81.9661L95.8204 75.6089ZM72.9901 62.2912H84.2345L79.9416 50.559C79.7465 50.0387 79.527 49.4289 79.2831 48.7297C79.0554 48.0142 78.8278 47.2418 78.6001 46.4125C78.3725 47.2418 78.1448 48.0142 77.9172 48.7297C77.7058 49.4451 77.4944 50.0712 77.283 50.6078L72.9901 62.2912ZM122.459 67.2915C122.817 67.2915 123.126 67.4297 123.386 67.7061L125.971 70.5111C124.54 72.2835 122.776 73.6413 120.679 74.5845C118.597 75.5276 116.093 75.9991 113.166 75.9991C110.548 75.9991 108.19 75.552 106.093 74.6576C104.011 73.7633 102.231 72.5193 100.751 70.9258C99.2711 69.3322 98.1328 67.4297 97.3361 65.2182C96.5555 63.0067 96.1653 60.592 96.1653 57.974C96.1653 55.3235 96.6043 52.9006 97.4824 50.7054C98.3605 48.4939 99.5963 46.5914 101.19 44.9978C102.783 43.4042 104.686 42.1684 106.897 41.2903C109.125 40.396 111.581 39.9488 114.264 39.9488C116.882 39.9488 119.166 40.3716 121.118 41.2171C123.085 42.0465 124.768 43.1522 126.167 44.5344L123.971 47.5833C123.841 47.7784 123.671 47.9491 123.459 48.0955C123.264 48.2418 122.988 48.315 122.63 48.315C122.256 48.315 121.874 48.1687 121.483 47.876C121.093 47.5833 120.597 47.2662 119.996 46.9247C119.394 46.5832 118.63 46.2661 117.703 45.9735C116.792 45.6808 115.63 45.5344 114.215 45.5344C112.556 45.5344 111.028 45.8271 109.629 46.4125C108.247 46.9816 107.052 47.8028 106.044 48.876C105.052 49.9492 104.271 51.2582 103.702 52.803C103.149 54.3315 102.873 56.0552 102.873 57.974C102.873 59.9578 103.149 61.7221 103.702 63.2669C104.271 64.8117 105.036 66.1125 105.995 67.1695C106.954 68.2265 108.084 69.0395 109.385 69.6086C110.686 70.1615 112.085 70.4379 113.581 70.4379C114.475 70.4379 115.28 70.3891 115.995 70.2916C116.727 70.194 117.394 70.0395 117.995 69.8281C118.613 69.6168 119.191 69.3485 119.727 69.0232C120.28 68.6818 120.825 68.2671 121.361 67.7793C121.524 67.6329 121.695 67.5191 121.874 67.4378C122.053 67.3402 122.248 67.2915 122.459 67.2915ZM137.723 55.1202H139.26C139.878 55.1202 140.39 55.0389 140.796 54.8763C141.203 54.6974 141.553 54.421 141.845 54.047L151.577 41.7294C151.984 41.209 152.407 40.8513 152.846 40.6561C153.301 40.4448 153.87 40.3391 154.553 40.3391H160.212L148.333 54.9982C147.959 55.4535 147.602 55.8357 147.26 56.1446C146.919 56.4536 146.553 56.7056 146.162 56.9008C146.699 57.0959 147.179 57.3723 147.602 57.7301C148.041 58.0878 148.463 58.5431 148.87 59.096L161.114 75.6089H155.309C154.529 75.6089 153.943 75.5032 153.553 75.2918C153.179 75.0641 152.862 74.7389 152.602 74.3161L142.626 61.2912C142.301 60.8684 141.935 60.5676 141.528 60.3887C141.122 60.1936 140.544 60.096 139.796 60.096H137.723V75.6089H131.162V40.3147H137.723V55.1202Z" fill="#F4F4F4"/>
</svg>
