<svg width="640" height="158" viewBox="0 0 640 158" fill="none" xmlns="http://www.w3.org/2000/svg">
<g filter="url(#filter0_d_102_60)">
<path d="M50.1834 103V47H56.3434V103H50.1834ZM68.6991 103V47H74.8591V97.48H108.219V103H68.6991ZM116.98 103V47H123.14V97.48H156.5V103H116.98ZM184.449 103.88C179.702 103.88 175.596 102.893 172.129 100.92C168.662 98.8933 165.996 96.04 164.129 92.36C162.262 88.68 161.329 84.3333 161.329 79.32V47H167.489V79.32C167.489 83.16 168.182 86.4933 169.569 89.32C170.956 92.1467 172.929 94.3333 175.489 95.88C178.049 97.4267 181.036 98.2 184.449 98.2C187.916 98.2 190.902 97.4267 193.409 95.88C195.969 94.3333 197.942 92.1467 199.329 89.32C200.716 86.4933 201.409 83.16 201.409 79.32V47H207.569V79.32C207.569 84.3333 206.609 88.68 204.689 92.36C202.822 96.04 200.156 98.8933 196.689 100.92C193.276 102.893 189.196 103.88 184.449 103.88ZM236.937 103.8C232.511 103.8 228.271 102.92 224.217 101.16C220.164 99.3467 216.591 96.76 213.497 93.4L217.577 89.16C220.457 92.2533 223.524 94.5733 226.777 96.12C230.084 97.6667 233.551 98.44 237.177 98.44C240.111 98.44 242.697 97.9867 244.937 97.08C247.231 96.12 249.017 94.8133 250.297 93.16C251.577 91.4533 252.217 89.5333 252.217 87.4C252.217 84.52 251.204 82.3067 249.177 80.76C247.204 79.2133 243.924 78.0667 239.337 77.32L231.257 76.04C225.871 75.1333 221.897 73.5333 219.337 71.24C216.777 68.9467 215.497 65.8267 215.497 61.88C215.497 58.7867 216.324 56.0667 217.977 53.72C219.631 51.3733 221.924 49.56 224.857 48.28C227.844 46.9467 231.284 46.28 235.177 46.28C239.124 46.28 242.991 46.92 246.777 48.2C250.617 49.48 254.111 51.32 257.257 53.72L253.737 58.52C247.604 53.88 241.337 51.56 234.937 51.56C232.271 51.56 229.924 51.9867 227.897 52.84C225.871 53.64 224.297 54.7867 223.177 56.28C222.057 57.72 221.497 59.4267 221.497 61.4C221.497 64.0133 222.377 66.0133 224.137 67.4C225.897 68.7867 228.804 69.8 232.857 70.44L240.857 71.72C246.991 72.7333 251.444 74.4667 254.217 76.92C256.991 79.32 258.377 82.7067 258.377 87.08C258.377 90.3333 257.471 93.24 255.657 95.8C253.844 98.3067 251.311 100.28 248.057 101.72C244.857 103.107 241.151 103.8 236.937 103.8ZM281.014 103V52.52H260.774V47H307.414V52.52H287.174V103H281.014ZM314.949 103V47H338.949C342.629 47 345.829 47.6667 348.549 49C351.269 50.3333 353.376 52.2 354.869 54.6C356.416 57 357.189 59.8267 357.189 63.08C357.189 66.76 356.096 69.9333 353.909 72.6C351.776 75.2133 348.896 77.0533 345.269 78.12L357.829 103H351.029L339.029 78.92H321.109V103H314.949ZM321.109 73.72H338.549C342.336 73.72 345.349 72.76 347.589 70.84C349.882 68.92 351.029 66.3333 351.029 63.08C351.029 59.88 349.882 57.32 347.589 55.4C345.349 53.48 342.336 52.52 338.549 52.52H321.109V73.72ZM361.453 103L384.653 47H392.093L415.133 103H408.413L401.373 85.4H374.973L367.853 103H361.453ZM377.133 80.12H399.213L388.173 52.68L377.133 80.12ZM427.03 103V52.52H406.79V47H453.43V52.52H433.19V103H427.03ZM460.965 103V47H467.125V103H460.965ZM505.72 103.88C501.667 103.88 497.88 103.16 494.36 101.72C490.894 100.227 487.827 98.1733 485.16 95.56C482.547 92.8933 480.494 89.8267 479 86.36C477.56 82.84 476.84 79.0533 476.84 75C476.84 70.9467 477.56 67.1867 479 63.72C480.494 60.2 482.547 57.1333 485.16 54.52C487.827 51.8533 490.894 49.8 494.36 48.36C497.88 46.8667 501.667 46.12 505.72 46.12C509.72 46.12 513.454 46.8667 516.92 48.36C520.44 49.8 523.507 51.8533 526.12 54.52C528.787 57.1333 530.84 60.2 532.28 63.72C533.774 67.1867 534.52 70.9467 534.52 75C534.52 79.0533 533.774 82.84 532.28 86.36C530.84 89.8267 528.787 92.8933 526.12 95.56C523.507 98.1733 520.44 100.227 516.92 101.72C513.454 103.16 509.72 103.88 505.72 103.88ZM505.72 98.2C508.92 98.2 511.88 97.6133 514.6 96.44C517.32 95.2667 519.694 93.64 521.72 91.56C523.8 89.4267 525.4 86.9467 526.52 84.12C527.694 81.2933 528.28 78.2533 528.28 75C528.28 71.6933 527.694 68.6533 526.52 65.88C525.4 63.0533 523.8 60.6 521.72 58.52C519.694 56.3867 517.32 54.7333 514.6 53.56C511.88 52.3867 508.92 51.8 505.72 51.8C502.52 51.8 499.534 52.3867 496.76 53.56C494.04 54.7333 491.64 56.3867 489.56 58.52C487.534 60.6 485.934 63.0533 484.76 65.88C483.64 68.6533 483.08 71.6667 483.08 74.92C483.08 78.2267 483.64 81.2933 484.76 84.12C485.934 86.9467 487.534 89.4267 489.56 91.56C491.64 93.64 494.04 95.2667 496.76 96.44C499.534 97.6133 502.52 98.2 505.72 98.2ZM544.168 103V47H550.328L584.008 92.44V47H589.848V103H584.408L550.008 56.36V103H544.168Z" fill="#FFF8DE"/>
</g>
<defs>
<filter id="filter0_d_102_60" x="0.183411" y="0.119995" width="639.664" height="157.76" filterUnits="userSpaceOnUse" color-interpolation-filters="sRGB">
<feFlood flood-opacity="0" result="BackgroundImageFix"/>
<feColorMatrix in="SourceAlpha" type="matrix" values="0 0 0 0 0 0 0 0 0 0 0 0 0 0 0 0 0 0 127 0" result="hardAlpha"/>
<feOffset dy="4"/>
<feGaussianBlur stdDeviation="25"/>
<feComposite in2="hardAlpha" operator="out"/>
<feColorMatrix type="matrix" values="0 0 0 0 0 0 0 0 0 0 0 0 0 0 0 0 0 0 1 0"/>
<feBlend mode="normal" in2="BackgroundImageFix" result="effect1_dropShadow_102_60"/>
<feBlend mode="normal" in="SourceGraphic" in2="effect1_dropShadow_102_60" result="shape"/>
</filter>
</defs>
</svg>
