<svg width="130" height="105" viewBox="0 0 130 105" fill="none" xmlns="http://www.w3.org/2000/svg">
<rect x="34.0051" y="3" width="62.0111" height="61.7282" rx="22" stroke="#100B00" stroke-width="6"/>
<rect x="53.6775" y="22.5906" width="22.6658" height="22.5466" rx="11.2733" stroke="#100B00" stroke-width="6"/>
<rect width="10.1174" height="10.0753" rx="5.03763" transform="matrix(-1 0 0 1 86.6509 12.8716)" fill="#100B00"/>
<path d="M31.0871 101.064V94.716H33.0311V101.064H31.0871ZM32.0591 94.128C31.7631 94.128 31.5111 94.024 31.3031 93.816C31.0951 93.608 30.9911 93.356 30.9911 93.06C30.9911 92.764 31.0951 92.512 31.3031 92.304C31.5111 92.096 31.7631 91.992 32.0591 91.992C32.3551 91.992 32.6071 92.096 32.8151 92.304C33.0231 92.512 33.1271 92.764 33.1271 93.06C33.1271 93.356 33.0231 93.608 32.8151 93.816C32.6071 94.024 32.3551 94.128 32.0591 94.128ZM35.4277 101.064V94.716H37.3717V95.148C37.8517 94.78 38.4197 94.596 39.0757 94.596C39.5717 94.596 40.0077 94.704 40.3837 94.92C40.7677 95.136 41.0677 95.436 41.2837 95.82C41.4997 96.204 41.6077 96.648 41.6077 97.152V101.064H39.6637V97.416C39.6637 97.064 39.5597 96.784 39.3517 96.576C39.1437 96.368 38.8637 96.264 38.5117 96.264C38.2637 96.264 38.0437 96.308 37.8517 96.396C37.6677 96.484 37.5077 96.608 37.3717 96.768V101.064H35.4277ZM46.4717 101.184C45.8717 101.184 45.3157 101.116 44.8037 100.98C44.2917 100.836 43.8477 100.628 43.4717 100.356L44.3957 99.048C44.7957 99.288 45.1597 99.464 45.4877 99.576C45.8157 99.68 46.1397 99.732 46.4597 99.732C46.7797 99.732 47.0317 99.688 47.2157 99.6C47.4077 99.504 47.5037 99.38 47.5037 99.228C47.5037 99.108 47.4517 99.012 47.3477 98.94C47.2437 98.86 47.0797 98.804 46.8557 98.772L45.5957 98.58C44.9637 98.484 44.4797 98.276 44.1437 97.956C43.8157 97.628 43.6517 97.204 43.6517 96.684C43.6517 96.252 43.7597 95.884 43.9757 95.58C44.1997 95.268 44.5157 95.032 44.9237 94.872C45.3317 94.704 45.8197 94.62 46.3877 94.62C46.8517 94.62 47.3117 94.684 47.7677 94.812C48.2237 94.94 48.6477 95.132 49.0397 95.388L48.1157 96.636C47.7717 96.436 47.4437 96.292 47.1317 96.204C46.8197 96.108 46.5077 96.06 46.1957 96.06C45.9477 96.06 45.7477 96.104 45.5957 96.192C45.4437 96.272 45.3677 96.38 45.3677 96.516C45.3677 96.644 45.4237 96.748 45.5357 96.828C45.6477 96.9 45.8397 96.956 46.1117 96.996L47.3717 97.188C47.9957 97.276 48.4757 97.484 48.8117 97.812C49.1557 98.132 49.3277 98.54 49.3277 99.036C49.3277 99.452 49.2037 99.82 48.9557 100.14C48.7077 100.46 48.3677 100.716 47.9357 100.908C47.5117 101.092 47.0237 101.184 46.4717 101.184ZM54.356 101.148C53.596 101.148 53.02 100.98 52.628 100.644C52.244 100.3 52.052 99.796 52.052 99.132V96.336H50.768V94.716H52.052V93.084L53.996 92.664V94.716H55.772V96.336H53.996V98.748C53.996 99.028 54.056 99.228 54.176 99.348C54.304 99.46 54.524 99.516 54.836 99.516C54.996 99.516 55.14 99.508 55.268 99.492C55.404 99.468 55.552 99.432 55.712 99.384V100.956C55.536 101.012 55.312 101.056 55.04 101.088C54.768 101.128 54.54 101.148 54.356 101.148ZM59.7589 101.172C59.3109 101.172 58.9109 101.088 58.5589 100.92C58.2149 100.752 57.9429 100.52 57.7429 100.224C57.5509 99.928 57.4549 99.588 57.4549 99.204C57.4549 98.596 57.6829 98.128 58.1389 97.8C58.6029 97.464 59.2469 97.296 60.0709 97.296C60.5669 97.296 61.0469 97.356 61.5109 97.476V97.164C61.5109 96.844 61.4069 96.608 61.1989 96.456C60.9989 96.296 60.6989 96.216 60.2989 96.216C60.0509 96.216 59.7709 96.256 59.4589 96.336C59.1549 96.416 58.7949 96.544 58.3789 96.72L57.6829 95.292C58.2029 95.06 58.7029 94.888 59.1829 94.776C59.6709 94.656 60.1589 94.596 60.6469 94.596C61.5269 94.596 62.2109 94.808 62.6989 95.232C63.1869 95.648 63.4309 96.236 63.4309 96.996V101.064H61.5109V100.68C61.2549 100.856 60.9829 100.984 60.6949 101.064C60.4149 101.136 60.1029 101.172 59.7589 101.172ZM59.3029 99.168C59.3029 99.368 59.3909 99.524 59.5669 99.636C59.7429 99.748 59.9869 99.804 60.2989 99.804C60.5309 99.804 60.7469 99.78 60.9469 99.732C61.1549 99.684 61.3429 99.608 61.5109 99.504V98.688C61.3269 98.64 61.1389 98.604 60.9469 98.58C60.7549 98.556 60.5589 98.544 60.3589 98.544C60.0229 98.544 59.7629 98.6 59.5789 98.712C59.3949 98.816 59.3029 98.968 59.3029 99.168ZM69.0263 103.632C68.5143 103.632 68.0263 103.584 67.5623 103.488C67.1063 103.392 66.6903 103.256 66.3143 103.08L66.9623 101.568C67.3063 101.728 67.6463 101.848 67.9823 101.928C68.3183 102.008 68.6543 102.048 68.9903 102.048C69.4463 102.048 69.7903 101.956 70.0223 101.772C70.2543 101.588 70.3703 101.312 70.3703 100.944V100.584C69.8743 100.92 69.3263 101.088 68.7263 101.088C68.1263 101.088 67.5823 100.944 67.0943 100.656C66.6063 100.368 66.2183 99.98 65.9303 99.492C65.6423 98.996 65.4983 98.448 65.4983 97.848C65.4983 97.248 65.6423 96.704 65.9303 96.216C66.2263 95.728 66.6223 95.344 67.1183 95.064C67.6223 94.776 68.1823 94.632 68.7983 94.632C69.0863 94.632 69.3663 94.668 69.6383 94.74C69.9103 94.812 70.1623 94.916 70.3943 95.052V94.716H72.3143V100.968C72.3143 101.824 72.0303 102.48 71.4623 102.936C70.9023 103.4 70.0903 103.632 69.0263 103.632ZM69.0623 99.456C69.3263 99.456 69.5663 99.416 69.7823 99.336C70.0063 99.256 70.2023 99.14 70.3703 98.988V96.744C70.2023 96.6 70.0063 96.488 69.7823 96.408C69.5663 96.32 69.3303 96.276 69.0743 96.276C68.7623 96.276 68.4783 96.348 68.2223 96.492C67.9743 96.628 67.7743 96.816 67.6223 97.056C67.4783 97.288 67.4063 97.552 67.4063 97.848C67.4063 98.152 67.4783 98.428 67.6223 98.676C67.7663 98.916 67.9623 99.108 68.2103 99.252C68.4663 99.388 68.7503 99.456 69.0623 99.456ZM74.709 101.064V94.716H76.653V95.352C76.861 95.096 77.105 94.904 77.385 94.776C77.665 94.64 77.977 94.572 78.321 94.572C78.665 94.58 78.909 94.632 79.053 94.728V96.42C78.925 96.356 78.781 96.308 78.621 96.276C78.461 96.244 78.297 96.228 78.129 96.228C77.825 96.228 77.541 96.3 77.277 96.444C77.021 96.58 76.813 96.776 76.653 97.032V101.064H74.709ZM82.9995 101.172C82.5515 101.172 82.1515 101.088 81.7995 100.92C81.4555 100.752 81.1835 100.52 80.9835 100.224C80.7915 99.928 80.6955 99.588 80.6955 99.204C80.6955 98.596 80.9235 98.128 81.3795 97.8C81.8435 97.464 82.4875 97.296 83.3115 97.296C83.8075 97.296 84.2875 97.356 84.7515 97.476V97.164C84.7515 96.844 84.6475 96.608 84.4395 96.456C84.2395 96.296 83.9395 96.216 83.5395 96.216C83.2915 96.216 83.0115 96.256 82.6995 96.336C82.3955 96.416 82.0355 96.544 81.6195 96.72L80.9235 95.292C81.4435 95.06 81.9435 94.888 82.4235 94.776C82.9115 94.656 83.3995 94.596 83.8875 94.596C84.7675 94.596 85.4515 94.808 85.9395 95.232C86.4275 95.648 86.6715 96.236 86.6715 96.996V101.064H84.7515V100.68C84.4955 100.856 84.2235 100.984 83.9355 101.064C83.6555 101.136 83.3435 101.172 82.9995 101.172ZM82.5435 99.168C82.5435 99.368 82.6315 99.524 82.8075 99.636C82.9835 99.748 83.2275 99.804 83.5395 99.804C83.7715 99.804 83.9875 99.78 84.1875 99.732C84.3955 99.684 84.5835 99.608 84.7515 99.504V98.688C84.5675 98.64 84.3795 98.604 84.1875 98.58C83.9955 98.556 83.7995 98.544 83.5995 98.544C83.2635 98.544 83.0035 98.6 82.8195 98.712C82.6355 98.816 82.5435 98.968 82.5435 99.168ZM89.027 101.064V94.716H90.971V95.124C91.419 94.772 91.947 94.596 92.555 94.596C92.955 94.596 93.315 94.672 93.635 94.824C93.955 94.976 94.223 95.192 94.439 95.472C94.695 95.192 94.999 94.976 95.351 94.824C95.703 94.672 96.087 94.596 96.503 94.596C96.983 94.596 97.407 94.704 97.775 94.92C98.143 95.136 98.431 95.436 98.639 95.82C98.855 96.204 98.963 96.648 98.963 97.152V101.064H97.019V97.416C97.019 97.064 96.923 96.784 96.731 96.576C96.547 96.368 96.299 96.264 95.987 96.264C95.771 96.264 95.575 96.304 95.399 96.384C95.223 96.464 95.071 96.584 94.943 96.744C94.951 96.808 94.955 96.876 94.955 96.948C94.963 97.012 94.967 97.08 94.967 97.152V101.064H93.023V97.416C93.023 97.064 92.927 96.784 92.735 96.576C92.551 96.368 92.303 96.264 91.991 96.264C91.775 96.264 91.579 96.304 91.403 96.384C91.235 96.456 91.091 96.568 90.971 96.72V101.064H89.027Z" fill="#100B00"/>
</svg>
