<svg width="549" height="51" viewBox="0 0 549 51" fill="none" xmlns="http://www.w3.org/2000/svg">
<path d="M64.0164 5.69195L71.1904 5.69186L55.6116 44.6777L48.4376 44.6777L64.0164 5.69195Z" fill="#D4B032"/>
<path d="M69.1792 2.62139L76.3532 2.62131L60.7744 41.6071L53.6004 41.6071L69.1792 2.62139Z" fill="#100B00"/>
<path d="M5.69213 33.3328L5.69205 26.1588L44.6778 41.7377L44.6778 48.9116L5.69213 33.3328Z" fill="#D4B032"/>
<path d="M2.62139 28.17L2.62131 20.996L41.6071 36.5748L41.6071 43.7488L2.62139 28.17Z" fill="#100B00"/>
<path d="M5.69213 22.6716L5.69205 31.1006L44.6778 12.7965L44.6778 4.36752L5.69213 22.6716Z" fill="#D4B032"/>
<path d="M2.62139 19.6416L2.62131 28.0706L41.6071 9.76647L41.6071 1.33749L2.62139 19.6416Z" fill="#100B00"/>
<path d="M543.308 16.7172L543.308 23.8912L504.322 8.3124L504.322 1.13841L543.308 16.7172Z" fill="#D4B032"/>
<path d="M546.379 21.8801L546.379 29.0541L507.393 13.4752L507.393 6.30125L546.379 21.8801Z" fill="#100B00"/>
<path d="M543.308 27.3784L543.308 18.9494L504.322 37.2535L504.322 45.6825L543.308 27.3784Z" fill="#D4B032"/>
<path d="M546.379 30.4085L546.379 21.9795L507.393 40.2836L507.393 48.7126L546.379 30.4085Z" fill="#100B00"/>
<g filter="url(#filter0_d_102_129)">
<path d="M93.9006 40.841C90.6829 40.841 88.2443 40.1297 86.5846 38.7072C84.9589 37.2508 84.146 35.1169 84.146 32.3057V20.4681H78.7098V13.6094H84.146V6.69992L92.3764 4.92174V13.6094H99.8956V20.4681H92.3764V30.68C92.3764 31.8654 92.6305 32.7122 93.1385 33.2202C93.6804 33.6944 94.6119 33.9315 95.9328 33.9315C96.6102 33.9315 97.2198 33.8976 97.7618 33.8299C98.3376 33.7283 98.9642 33.5758 99.6416 33.3726V40.0281C98.8964 40.2652 97.9481 40.4515 96.7965 40.587C95.6449 40.7563 94.6796 40.841 93.9006 40.841Z" fill="#100B00"/>
<path d="M118.706 40.9934C116.606 40.9934 114.743 40.5362 113.117 39.6217C111.525 38.7072 110.272 37.437 109.358 35.8113C108.443 34.1516 107.986 32.2718 107.986 30.1719V13.6094H116.216V29.0542C116.216 30.5106 116.657 31.6961 117.537 32.6106C118.452 33.4912 119.637 33.9315 121.094 33.9315C122.144 33.9315 123.075 33.7452 123.888 33.3726C124.701 33.0001 125.378 32.4751 125.92 31.7977V13.6094H134.151V40.4853H125.92V38.6564C123.888 40.2144 121.483 40.9934 118.706 40.9934Z" fill="#100B00"/>
<path d="M157.334 40.9934C154.659 40.9934 152.237 40.3837 150.069 39.1644C147.935 37.9451 146.242 36.2855 144.989 34.1855C143.736 32.0517 143.109 29.6808 143.109 27.0728C143.109 24.4309 143.736 22.06 144.989 19.9601C146.242 17.8601 147.935 16.2005 150.069 14.9812C152.237 13.728 154.659 13.1014 157.334 13.1014C159.536 13.1014 161.636 13.5417 163.634 14.4223C165.633 15.2691 167.326 16.4884 168.715 18.0803L163.685 23.3132C162.737 22.2294 161.771 21.4504 160.789 20.9762C159.807 20.4681 158.723 20.2141 157.538 20.2141C156.352 20.2141 155.285 20.5189 154.337 21.1286C153.389 21.7044 152.643 22.5173 152.101 23.5672C151.56 24.5833 151.289 25.7519 151.289 27.0728C151.289 28.3599 151.56 29.5284 152.101 30.5783C152.677 31.5944 153.456 32.4073 154.438 33.017C155.421 33.5928 156.522 33.8807 157.741 33.8807C158.859 33.8807 159.892 33.6436 160.84 33.1694C161.788 32.6952 162.703 31.967 163.583 30.9848L168.461 36.0653C167.106 37.6233 165.446 38.8426 163.482 39.7233C161.517 40.57 159.468 40.9934 157.334 40.9934Z" fill="#100B00"/>
<path d="M185.382 40.9426C183.485 40.9426 181.792 40.587 180.301 39.8757C178.845 39.1644 177.693 38.1822 176.847 36.929C176.034 35.6758 175.627 34.2363 175.627 32.6106C175.627 30.0364 176.593 28.055 178.523 26.6663C180.488 25.2438 183.214 24.5325 186.703 24.5325C188.803 24.5325 190.835 24.7866 192.8 25.2946V23.9737C192.8 22.6189 192.359 21.6197 191.479 20.9762C190.632 20.2988 189.362 19.9601 187.668 19.9601C186.618 19.9601 185.433 20.1294 184.112 20.4681C182.825 20.8068 181.301 21.3487 179.539 22.0939L176.593 16.0481C178.794 15.0658 180.911 14.3376 182.943 13.8634C185.009 13.3554 187.076 13.1014 189.142 13.1014C192.867 13.1014 195.763 13.9989 197.829 15.794C199.895 17.5553 200.928 20.0447 200.928 23.2624V40.4853H192.8V38.8596C191.716 39.6047 190.564 40.1466 189.345 40.4853C188.159 40.7902 186.838 40.9426 185.382 40.9426ZM183.451 32.4581C183.451 33.3049 183.824 33.9654 184.569 34.4395C185.314 34.9137 186.347 35.1508 187.668 35.1508C188.65 35.1508 189.565 35.0492 190.412 34.846C191.292 34.6428 192.088 34.321 192.8 33.8807V30.4259C192.021 30.2227 191.225 30.0703 190.412 29.9687C189.599 29.8671 188.769 29.8163 187.922 29.8163C186.5 29.8163 185.399 30.0534 184.62 30.5275C183.841 30.9679 183.451 31.6114 183.451 32.4581Z" fill="#100B00"/>
<path d="M221.519 40.9934C218.979 40.9934 216.625 40.7055 214.457 40.1297C212.29 39.52 210.41 38.6394 208.818 37.4878L212.73 31.9501C214.423 32.9662 215.964 33.7113 217.353 34.1855C218.742 34.6258 220.114 34.846 221.468 34.846C222.823 34.846 223.89 34.6597 224.669 34.2871C225.482 33.8807 225.888 33.3557 225.888 32.7122C225.888 32.2041 225.668 31.7977 225.228 31.4928C224.788 31.1541 224.093 30.917 223.145 30.7816L217.81 29.9687C215.135 29.5622 213.086 28.6816 211.663 27.3268C210.274 25.9381 209.58 24.143 209.58 21.9415C209.58 20.1125 210.037 18.5545 210.952 17.2674C211.9 15.9465 213.238 14.9473 214.965 14.2699C216.693 13.5586 218.759 13.203 221.164 13.203C223.128 13.203 225.076 13.4739 227.006 14.0159C228.937 14.5578 230.732 15.3707 232.391 16.4545L228.479 21.7382C227.023 20.8915 225.634 20.2818 224.313 19.9093C222.993 19.5028 221.672 19.2996 220.351 19.2996C219.301 19.2996 218.454 19.4859 217.81 19.8585C217.167 20.1972 216.845 20.6544 216.845 21.2302C216.845 21.7721 217.082 22.2124 217.556 22.5511C218.031 22.856 218.843 23.0931 219.995 23.2624L225.33 24.0753C227.971 24.4479 230.004 25.3285 231.426 26.7172C232.883 28.072 233.611 29.7993 233.611 31.8993C233.611 33.6605 233.086 35.2185 232.036 36.5734C230.986 37.9282 229.546 39.012 227.717 39.8249C225.922 40.6039 223.856 40.9934 221.519 40.9934Z" fill="#100B00"/>
<path d="M256.834 40.4853V4.92174L265.064 3.65161V15.4892C267.164 13.9989 269.535 13.2538 272.177 13.2538C274.751 13.2538 277.071 13.8804 279.137 15.1336C281.203 16.3529 282.846 18.0125 284.065 20.1125C285.285 22.1786 285.894 24.4987 285.894 27.0728C285.894 29.6469 285.268 31.984 284.015 34.0839C282.795 36.15 281.119 37.7927 278.985 39.012C276.885 40.2313 274.531 40.841 271.923 40.841C270.67 40.841 269.451 40.6886 268.265 40.3837C267.08 40.045 265.979 39.5709 264.963 38.9612V40.4853H256.834ZM270.755 33.8807C272.109 33.8807 273.312 33.5928 274.362 33.017C275.412 32.4073 276.241 31.5944 276.851 30.5783C277.495 29.5284 277.816 28.3599 277.816 27.0728C277.816 25.7857 277.495 24.6341 276.851 23.618C276.241 22.5681 275.395 21.7552 274.311 21.1794C273.261 20.5697 272.075 20.2649 270.755 20.2649C269.603 20.2649 268.553 20.4512 267.605 20.8238C266.656 21.1625 265.809 21.6874 265.064 22.3987V31.7977C265.776 32.4412 266.622 32.9492 267.605 33.3218C268.587 33.6944 269.637 33.8807 270.755 33.8807Z" fill="#100B00"/>
<path d="M303.693 40.9426C301.796 40.9426 300.102 40.587 298.612 39.8757C297.156 39.1644 296.004 38.1822 295.157 36.929C294.344 35.6758 293.938 34.2363 293.938 32.6106C293.938 30.0364 294.903 28.055 296.834 26.6663C298.798 25.2438 301.525 24.5325 305.013 24.5325C307.113 24.5325 309.146 24.7866 311.11 25.2946V23.9737C311.11 22.6189 310.67 21.6197 309.789 20.9762C308.942 20.2988 307.672 19.9601 305.979 19.9601C304.929 19.9601 303.743 20.1294 302.422 20.4681C301.135 20.8068 299.611 21.3487 297.85 22.0939L294.903 16.0481C297.105 15.0658 299.222 14.3376 301.254 13.8634C303.32 13.3554 305.386 13.1014 307.452 13.1014C311.178 13.1014 314.074 13.9989 316.14 15.794C318.206 17.5553 319.239 20.0447 319.239 23.2624V40.4853H311.11V38.8596C310.026 39.6047 308.875 40.1466 307.655 40.4853C306.47 40.7902 305.149 40.9426 303.693 40.9426ZM301.762 32.4581C301.762 33.3049 302.134 33.9654 302.88 34.4395C303.625 34.9137 304.658 35.1508 305.979 35.1508C306.961 35.1508 307.875 35.0492 308.722 34.846C309.603 34.6428 310.399 34.321 311.11 33.8807V30.4259C310.331 30.2227 309.535 30.0703 308.722 29.9687C307.909 29.8671 307.08 29.8163 306.233 29.8163C304.81 29.8163 303.709 30.0534 302.93 30.5275C302.151 30.9679 301.762 31.6114 301.762 32.4581Z" fill="#100B00"/>
<path d="M329.211 40.4853V13.6094H337.442V16.3021C338.322 15.2183 339.356 14.4054 340.541 13.8634C341.726 13.2877 343.047 12.9998 344.504 12.9998C345.96 13.0336 346.993 13.2538 347.603 13.6602V20.8238C347.061 20.5528 346.451 20.3496 345.774 20.2141C345.096 20.0786 344.402 20.0109 343.691 20.0109C342.404 20.0109 341.201 20.3157 340.084 20.9254C339 21.5012 338.119 22.331 337.442 23.4148V40.4853H329.211Z" fill="#100B00"/>
<path d="M368.483 40.9934C365.808 40.9934 363.386 40.3837 361.218 39.1644C359.084 37.9451 357.391 36.2855 356.138 34.1855C354.885 32.0517 354.258 29.6808 354.258 27.0728C354.258 24.4309 354.885 22.06 356.138 19.9601C357.391 17.8601 359.084 16.2005 361.218 14.9812C363.386 13.728 365.808 13.1014 368.483 13.1014C370.685 13.1014 372.785 13.5417 374.783 14.4223C376.782 15.2691 378.475 16.4884 379.864 18.0803L374.834 23.3132C373.886 22.2294 372.92 21.4504 371.938 20.9762C370.956 20.4681 369.872 20.2141 368.687 20.2141C367.501 20.2141 366.434 20.5189 365.486 21.1286C364.538 21.7044 363.792 22.5173 363.25 23.5672C362.709 24.5833 362.438 25.7519 362.438 27.0728C362.438 28.3599 362.709 29.5284 363.25 30.5783C363.826 31.5944 364.605 32.4073 365.587 33.017C366.57 33.5928 367.671 33.8807 368.89 33.8807C370.008 33.8807 371.041 33.6436 371.989 33.1694C372.937 32.6952 373.852 31.967 374.732 30.9848L379.61 36.0653C378.255 37.6233 376.595 38.8426 374.631 39.7233C372.666 40.57 370.617 40.9934 368.483 40.9934Z" fill="#100B00"/>
<path d="M400.613 40.9934C397.87 40.9934 395.38 40.3837 393.145 39.1644C390.943 37.9112 389.199 36.2347 387.912 34.1347C386.625 32.0348 385.981 29.6808 385.981 27.0728C385.981 24.4648 386.591 22.1108 387.81 20.0109C389.064 17.9109 390.757 16.2513 392.891 15.032C395.025 13.7788 397.396 13.1522 400.004 13.1522C402.645 13.1522 404.983 13.7957 407.015 15.0828C409.047 16.336 410.639 18.0633 411.79 20.2649C412.976 22.4665 413.569 24.9898 413.569 27.8349V29.8671H394.415C394.788 30.7138 395.279 31.459 395.888 32.1025C396.532 32.746 397.294 33.2541 398.175 33.6267C399.055 33.9654 400.004 34.1347 401.02 34.1347C402.137 34.1347 403.154 33.9654 404.068 33.6267C404.983 33.2541 405.762 32.746 406.405 32.1025L411.841 36.929C410.148 38.3515 408.403 39.3846 406.608 40.0281C404.847 40.6716 402.849 40.9934 400.613 40.9934ZM394.263 24.1261H405.491C405.22 23.2455 404.796 22.5003 404.22 21.8907C403.679 21.2471 403.035 20.756 402.29 20.4173C401.545 20.0447 400.732 19.8585 399.851 19.8585C398.937 19.8585 398.107 20.0278 397.362 20.3665C396.617 20.7052 395.973 21.1963 395.431 21.8399C394.923 22.4495 394.534 23.2116 394.263 24.1261Z" fill="#100B00"/>
<path d="M422.496 40.4853V4.92174L430.727 3.65161V40.4853H422.496Z" fill="#100B00"/>
<path d="M454.235 40.9934C451.492 40.9934 449.019 40.3837 446.818 39.1644C444.616 37.9112 442.872 36.2347 441.585 34.1347C440.298 32.0348 439.654 29.6808 439.654 27.0728C439.654 24.4648 440.298 22.1108 441.585 20.0109C442.872 17.8771 444.616 16.2005 446.818 14.9812C449.019 13.728 451.492 13.1014 454.235 13.1014C456.979 13.1014 459.451 13.728 461.653 14.9812C463.854 16.2005 465.599 17.8771 466.886 20.0109C468.173 22.1108 468.816 24.4648 468.816 27.0728C468.816 29.6808 468.173 32.0348 466.886 34.1347C465.599 36.2347 463.854 37.9112 461.653 39.1644C459.451 40.3837 456.979 40.9934 454.235 40.9934ZM454.235 33.8807C455.489 33.8807 456.606 33.5758 457.588 32.9662C458.571 32.3565 459.35 31.5436 459.926 30.5275C460.501 29.4776 460.789 28.326 460.789 27.0728C460.789 25.7857 460.501 24.6341 459.926 23.618C459.35 22.5681 458.554 21.7382 457.538 21.1286C456.555 20.5189 455.455 20.2141 454.235 20.2141C453.016 20.2141 451.898 20.5189 450.882 21.1286C449.9 21.7382 449.121 22.5681 448.545 23.618C447.969 24.6341 447.681 25.7857 447.681 27.0728C447.681 28.326 447.969 29.4776 448.545 30.5275C449.121 31.5436 449.9 32.3565 450.882 32.9662C451.898 33.5758 453.016 33.8807 454.235 33.8807Z" fill="#100B00"/>
<path d="M488.375 40.9934C485.835 40.9934 483.481 40.7055 481.313 40.1297C479.146 39.52 477.266 38.6394 475.674 37.4878L479.586 31.9501C481.279 32.9662 482.821 33.7113 484.209 34.1855C485.598 34.6258 486.97 34.846 488.324 34.846C489.679 34.846 490.746 34.6597 491.525 34.2871C492.338 33.8807 492.744 33.3557 492.744 32.7122C492.744 32.2041 492.524 31.7977 492.084 31.4928C491.644 31.1541 490.949 30.917 490.001 30.7816L484.666 29.9687C481.991 29.5622 479.942 28.6816 478.519 27.3268C477.13 25.9381 476.436 24.143 476.436 21.9415C476.436 20.1125 476.893 18.5545 477.808 17.2674C478.756 15.9465 480.094 14.9473 481.821 14.2699C483.549 13.5586 485.615 13.203 488.02 13.203C489.984 13.203 491.932 13.4739 493.862 14.0159C495.793 14.5578 497.588 15.3707 499.248 16.4545L495.336 21.7382C493.879 20.8915 492.49 20.2818 491.17 19.9093C489.849 19.5028 488.528 19.2996 487.207 19.2996C486.157 19.2996 485.31 19.4859 484.666 19.8585C484.023 20.1972 483.701 20.6544 483.701 21.2302C483.701 21.7721 483.938 22.2124 484.412 22.5511C484.887 22.856 485.699 23.0931 486.851 23.2624L492.186 24.0753C494.827 24.4479 496.86 25.3285 498.282 26.7172C499.739 28.072 500.467 29.7993 500.467 31.8993C500.467 33.6605 499.942 35.2185 498.892 36.5734C497.842 37.9282 496.402 39.012 494.573 39.8249C492.778 40.6039 490.712 40.9934 488.375 40.9934Z" fill="#100B00"/>
</g>
<defs>
<filter id="filter0_d_102_129" x="73.7098" y="3.65161" width="426.757" height="41.3418" filterUnits="userSpaceOnUse" color-interpolation-filters="sRGB">
<feFlood flood-opacity="0" result="BackgroundImageFix"/>
<feColorMatrix in="SourceAlpha" type="matrix" values="0 0 0 0 0 0 0 0 0 0 0 0 0 0 0 0 0 0 127 0" result="hardAlpha"/>
<feOffset dx="-5" dy="4"/>
<feComposite in2="hardAlpha" operator="out"/>
<feColorMatrix type="matrix" values="0 0 0 0 0.831373 0 0 0 0 0.690196 0 0 0 0 0.196078 0 0 0 1 0"/>
<feBlend mode="normal" in2="BackgroundImageFix" result="effect1_dropShadow_102_129"/>
<feBlend mode="normal" in="SourceGraphic" in2="effect1_dropShadow_102_129" result="shape"/>
</filter>
</defs>
</svg>
