<svg width="727" height="193" viewBox="0 0 727 193" fill="none" xmlns="http://www.w3.org/2000/svg">
<path d="M164.508 140.772C163.997 142.62 163.742 144.839 163.742 147.431C163.742 149.998 163.791 151.641 163.888 152.361C164.01 153.081 164.192 153.657 164.435 154.089C164.898 154.809 165.798 155.169 167.136 155.169H176.917C176.917 156.512 176.588 157.544 175.931 158.264C174.739 159.559 173.279 160.207 171.552 160.207C170.7 160.207 169.946 160.087 169.289 159.847C168.097 159.367 167.173 159.127 166.516 159.127C165.859 159.127 165.323 159.259 164.91 159.523C164.496 159.763 164.168 160.123 163.924 160.603C163.487 161.467 163.268 163.35 163.268 166.253C163.268 169.157 163.353 172.132 163.523 175.179C163.718 178.226 164.18 180.781 164.91 182.845C165.64 184.884 166.747 186.42 168.231 187.452C169.715 188.483 171.759 188.999 174.362 188.999C174.362 189.743 173.851 190.631 172.829 191.662C172.562 191.95 172.331 192.142 172.136 192.238C167.829 192.238 164.606 191.734 162.465 190.727C160.007 189.527 158.256 187.392 157.209 184.32C156.163 181.201 155.64 176.583 155.64 170.464C155.64 165.114 155.494 161.959 155.202 160.999C154.91 160.015 154.642 159.367 154.399 159.055C154.107 158.696 153.402 158.252 152.282 157.724C153.791 156.596 155.287 154.497 156.771 151.426L158.596 147.647C159.886 144.767 160.981 142.908 161.881 142.068C162.805 141.204 163.681 140.772 164.508 140.772Z" fill="#ECECEC"/>
<path d="M252.783 172.3L252.674 179.21C252.674 183.505 253.075 186.432 253.878 187.991C254.365 188.927 254.936 189.647 255.593 190.151L257.308 191.519H246.725L245.594 187.344C242.844 190.607 238.927 192.238 233.842 192.238C230.947 192.238 228.611 191.279 226.835 189.359C225.278 187.632 224.499 185.592 224.499 183.241C224.499 180.889 225.059 178.838 226.178 177.086C227.322 175.335 228.818 173.883 230.667 172.732C234.316 170.5 238.903 169.337 244.426 169.241V168.845C244.426 163.014 243.513 159.595 241.689 158.588C241.032 158.228 240.18 158.048 239.134 158.048C238.112 158.048 237.09 158.384 236.068 159.055C235.046 159.727 234.122 160.591 233.295 161.647C231.64 163.782 230.46 166.301 229.755 169.205C227.589 167.933 226.506 165.498 226.506 161.899C226.506 160.435 226.701 158.792 227.09 156.968C228.015 156.968 228.891 156.836 229.718 156.572L232.528 155.708C235.278 154.869 237.966 154.449 240.594 154.449C243.221 154.449 245.314 154.833 246.871 155.6C248.452 156.368 249.681 157.508 250.557 159.019C252.041 161.587 252.783 166.014 252.783 172.3ZM232.382 183.961C232.382 185.448 232.723 186.6 233.404 187.416C234.11 188.231 234.986 188.639 236.032 188.639C237.078 188.639 238.088 188.375 239.061 187.848C240.034 187.296 240.91 186.552 241.689 185.616C243.513 183.481 244.426 180.973 244.426 178.094V172.768C241.019 173.08 238.209 174.195 235.995 176.115C233.587 178.178 232.382 180.793 232.382 183.961Z" fill="#ECECEC"/>
<path d="M318.358 140.772C317.847 142.62 317.591 144.839 317.591 147.431C317.591 149.998 317.64 151.641 317.737 152.361C317.859 153.081 318.041 153.657 318.285 154.089C318.747 154.809 319.647 155.169 320.985 155.169H330.766C330.766 156.512 330.438 157.544 329.781 158.264C328.589 159.559 327.129 160.207 325.401 160.207C324.55 160.207 323.796 160.087 323.139 159.847C321.946 159.367 321.022 159.127 320.365 159.127C319.708 159.127 319.173 159.259 318.759 159.523C318.346 159.763 318.017 160.123 317.774 160.603C317.336 161.467 317.117 163.35 317.117 166.253C317.117 169.157 317.202 172.132 317.372 175.179C317.567 178.226 318.029 180.781 318.759 182.845C319.489 184.884 320.596 186.42 322.08 187.452C323.564 188.483 325.608 188.999 328.211 188.999C328.211 189.743 327.701 190.631 326.679 191.662C326.411 191.95 326.18 192.142 325.985 192.238C321.679 192.238 318.455 191.734 316.314 190.727C313.857 189.527 312.105 187.392 311.059 184.32C310.012 181.201 309.489 176.583 309.489 170.464C309.489 165.114 309.343 161.959 309.051 160.999C308.759 160.015 308.492 159.367 308.249 159.055C307.957 158.696 307.251 158.252 306.132 157.724C307.64 156.596 309.137 154.497 310.621 151.426L312.445 147.647C313.735 144.767 314.83 142.908 315.73 142.068C316.655 141.204 317.53 140.772 318.358 140.772Z" fill="#ECECEC"/>
<path d="M390.21 140.772C389.699 142.62 389.443 144.839 389.443 147.431C389.443 149.998 389.492 151.641 389.589 152.361C389.711 153.081 389.893 153.657 390.137 154.089C390.599 154.809 391.499 155.169 392.837 155.169H402.618C402.618 156.512 402.289 157.544 401.633 158.264C400.44 159.559 398.981 160.207 397.253 160.207C396.402 160.207 395.647 160.087 394.99 159.847C393.798 159.367 392.874 159.127 392.217 159.127C391.56 159.127 391.025 159.259 390.611 159.523C390.197 159.763 389.869 160.123 389.626 160.603C389.188 161.467 388.969 163.35 388.969 166.253C388.969 169.157 389.054 172.132 389.224 175.179C389.419 178.226 389.881 180.781 390.611 182.845C391.341 184.884 392.448 186.42 393.932 187.452C395.416 188.483 397.46 188.999 400.063 188.999C400.063 189.743 399.552 190.631 398.53 191.662C398.263 191.95 398.032 192.142 397.837 192.238C393.531 192.238 390.307 191.734 388.166 190.727C385.708 189.527 383.957 187.392 382.911 184.32C381.864 181.201 381.341 176.583 381.341 170.464C381.341 165.114 381.195 161.959 380.903 160.999C380.611 160.015 380.344 159.367 380.1 159.055C379.808 158.696 379.103 158.252 377.984 157.724C379.492 156.596 380.988 154.497 382.473 151.426L384.297 147.647C385.587 144.767 386.682 142.908 387.582 142.068C388.506 141.204 389.382 140.772 390.21 140.772Z" fill="#ECECEC"/>
<path d="M467.463 158.048C465.273 158.048 463.691 159.127 462.718 161.287C461.769 163.446 461.295 167.081 461.295 172.192C461.295 183.157 463.351 188.639 467.463 188.639C469.652 188.639 471.222 187.176 472.171 184.249C473.144 181.321 473.63 177.302 473.63 172.192C473.63 167.081 473.144 163.446 472.171 161.287C471.222 159.127 469.652 158.048 467.463 158.048ZM452.098 170.824C452.098 159.907 457.22 154.449 467.463 154.449C477.706 154.449 482.827 159.907 482.827 170.824C482.827 177.446 481.416 182.689 478.594 186.552C475.844 190.343 472.134 192.238 467.463 192.238C462.791 192.238 459.081 190.343 456.332 186.552C453.509 182.689 452.098 177.446 452.098 170.824Z" fill="#ECECEC"/>
<path d="M552.599 158.048C550.409 158.048 548.828 159.127 547.854 161.287C546.906 163.446 546.431 167.081 546.431 172.192C546.431 183.157 548.487 188.639 552.599 188.639C554.788 188.639 556.358 187.176 557.307 184.249C558.28 181.321 558.766 177.302 558.766 172.192C558.766 167.081 558.28 163.446 557.307 161.287C556.358 159.127 554.788 158.048 552.599 158.048ZM537.234 170.824C537.234 159.907 542.356 154.449 552.599 154.449C562.842 154.449 567.963 159.907 567.963 170.824C567.963 177.446 566.552 182.689 563.73 186.552C560.981 190.343 557.27 192.238 552.599 192.238C547.927 192.238 544.217 190.343 541.468 186.552C538.645 182.689 537.234 177.446 537.234 170.824Z" fill="#ECECEC"/>
<path d="M156.068 54.999C149.566 54.999 146.315 58.8631 146.315 66.5911C146.315 98.6316 146.848 117.5 147.913 123.198C148.529 126.639 149.314 129.205 150.267 130.898L152.789 135.382H122.942C124.735 131.095 125.772 127.513 126.053 124.636C126.389 121.759 126.669 118.685 126.893 115.413C127.342 108.757 127.566 99.8162 127.566 88.5907C127.566 74.9961 127.342 62.5861 126.893 51.3606L125.968 28.0918C125.744 22.2252 125.24 18.1356 124.455 15.8228C123.222 12.1562 121.204 8.85625 118.401 5.92297H162.879C176.443 5.92297 186.252 7.27679 192.306 9.98444C198.696 12.8049 201.891 17.6279 201.891 24.4534C201.891 30.4328 199.676 36.0455 195.248 41.2916C191.101 46.1428 185.664 50.0068 178.937 52.8837C179.778 74.5448 186.532 95.3316 199.2 115.244C204.637 123.875 210.186 130.587 215.847 135.382H184.318C178.825 127.823 173.753 112.508 169.1 89.4369C167.531 81.4268 166.494 74.7705 165.989 69.468C165.541 64.1655 165.149 60.9784 164.812 59.9066C164.532 58.7784 164.056 57.8759 163.383 57.199C162.038 55.7323 159.6 54.999 156.068 54.999ZM175.406 39.9378C176.976 38.2455 178.069 36.4404 178.685 34.5225C179.358 32.6045 179.694 30.7712 179.694 29.0226C179.694 27.2175 179.442 25.4406 178.937 23.6919C178.489 21.8868 177.564 20.3073 176.163 18.9535C173.08 15.9074 167.699 14.3844 160.02 14.3844C157.161 14.3844 154.835 14.4972 153.041 14.7228C151.304 14.9485 149.931 15.569 148.922 16.5843C147.184 18.2766 146.315 22.5919 146.315 29.5302C146.315 35.6224 146.96 39.5147 148.249 41.207C150.547 44.1967 154.022 45.6915 158.675 45.6915C163.327 45.6915 166.886 45.1556 169.353 44.0838C171.875 42.9556 173.893 41.5736 175.406 39.9378Z" fill="#ECECEC"/>
<path d="M235.202 5.92297C233.128 11.169 231.923 16.4433 231.587 21.7458C231.25 26.9918 230.998 31.5046 230.83 35.284C230.662 39.0634 230.522 42.9839 230.41 47.0453C230.241 56.5221 230.157 65.1527 230.157 72.9372C230.157 104.865 231.335 124.439 233.689 131.659C234.081 132.9 234.586 134.141 235.202 135.382H206.195C207.933 131.546 208.97 128.077 209.306 124.975C209.642 121.872 209.951 118.177 210.231 113.89C210.904 105.034 211.24 94.824 211.24 83.2601C211.24 71.6962 211.212 63.7989 211.156 59.5682C211.1 55.2811 211.016 51.1068 210.904 47.0453C210.511 27.2457 209.334 14.6664 207.372 9.30753L206.195 5.92297H235.202Z" fill="#ECECEC"/>
<path d="M260.274 90.5368C259.545 96.4034 259.181 101.085 259.181 104.583C259.181 108.024 259.601 111.211 260.442 114.144C261.283 117.077 262.488 119.616 264.057 121.759C267.421 126.329 271.681 128.613 276.837 128.613C286.702 128.613 291.635 123.141 291.635 112.198C291.635 103.398 286.562 94.0624 276.417 84.1908L267.673 75.6448C259.994 68.1988 254.753 62.2194 251.95 57.7067C246.401 48.794 243.627 39.9378 243.627 31.1379C243.627 23.9739 245.925 17.9663 250.521 13.1152C256.07 7.19218 264.057 4.23069 274.483 4.23069C278.575 4.23069 281.658 4.42813 283.732 4.82299C287.599 5.55631 290.178 5.92297 291.467 5.92297C294.718 5.92297 297.24 4.9076 299.034 2.87687C299.706 2.14355 300.435 1.18459 301.22 0C305.312 2.31278 307.357 10.8024 307.357 25.4688C307.357 34.8327 306.433 41.7428 304.583 46.1992C303.966 47.7222 303.266 48.6812 302.481 49.076C301.584 40.5583 298.838 32.943 294.241 26.2303C288.86 18.333 282.639 14.3844 275.576 14.3844C269.523 14.3844 265.795 17.1766 264.394 22.7611C264.001 24.3406 263.805 26.3149 263.805 28.6841C263.805 30.9969 264.506 33.6481 265.907 36.6378C267.308 39.6275 269.13 42.6172 271.372 45.6069C273.67 48.5402 276.305 51.5016 279.276 54.4913C288.244 63.7425 294.185 70.0039 297.1 73.2756C300.071 76.5474 302.705 79.9319 305.003 83.4293C310.048 91.2702 312.57 98.8572 312.57 106.19C312.57 115.047 309.151 122.38 302.313 128.19C295.25 134.113 286.17 137.074 275.072 137.074C265.879 137.074 257.976 134.762 251.362 130.136C244.075 125.059 240.432 118.347 240.432 109.998C242.618 102.157 247.382 96.4034 254.725 92.7368C256.687 91.7214 258.536 90.9881 260.274 90.5368Z" fill="#ECECEC"/>
<path d="M391.543 54.999C387.283 54.999 385.153 58.8631 385.153 66.5911V77.2525C385.153 96.8829 385.349 109.011 385.741 113.636C386.19 118.206 386.61 121.393 387.002 123.198C387.451 125.003 388.039 126.611 388.768 128.021C389.945 130.334 392.299 132.787 395.831 135.382H360.098C362.172 131.208 363.433 127.654 363.881 124.721C364.33 121.788 364.666 118.685 364.89 115.413C365.338 108.757 365.563 99.8162 365.563 88.5907C365.563 74.9961 365.338 62.5861 364.89 51.3606L363.965 28.0918C363.741 22.2252 363.237 18.1356 362.452 15.8228C361.219 12.1562 359.201 8.85625 356.398 5.92297H403.398C416.065 5.92297 425.23 7.27679 430.891 9.98444C436.888 12.8049 439.887 17.6279 439.887 24.4534C439.887 32.802 436.328 39.7121 429.209 45.1838C420.802 51.7273 408.246 54.999 391.543 54.999ZM412.478 39.5147C414.272 37.7096 415.589 35.8199 416.43 33.8456C417.27 31.8148 417.691 29.9533 417.691 28.261C417.691 26.5123 417.439 24.7919 416.934 23.0996C416.486 21.4073 415.561 19.9125 414.16 18.6151C411.021 15.7946 405.64 14.3844 398.017 14.3844C393.42 14.3844 390.422 14.9485 389.02 16.0766C386.442 18.2202 385.153 22.4227 385.153 28.6841C385.153 35.7353 385.713 40.107 386.834 41.7993C387.955 43.4351 389.245 44.5069 390.702 45.0146C392.159 45.4659 394.373 45.6915 397.344 45.6915C400.371 45.6915 403.201 45.0992 405.836 43.9146C408.526 42.73 410.74 41.2634 412.478 39.5147Z" fill="#ECECEC"/>
<path d="M475.086 135.382C475.814 131.828 476.179 129.008 476.179 126.921C476.179 124.777 476.122 123.17 476.01 122.098C475.954 121.026 475.842 119.898 475.674 118.713C475.562 117.472 475.394 116.118 475.17 114.652C475.001 113.129 474.833 111.38 474.665 109.406C473.376 95.9239 468.808 84.8395 460.96 76.1525C457.485 72.3167 453.73 69.4116 449.694 67.4373C445.658 65.4065 442.323 64.3912 439.689 64.3912C437.11 64.3912 435.121 64.5604 433.719 64.8988C430.58 74.3756 429.011 84.2754 429.011 94.5983C429.011 103.737 429.487 110.562 430.44 115.075C431.954 121.844 434.28 128.641 437.419 135.467H412.28C413.625 132.082 414.297 124.975 414.297 114.144C414.297 103.257 415.11 93.1035 416.736 83.6831C418.361 74.2064 420.463 65.7732 423.042 58.3836C425.676 50.994 428.591 44.5351 431.786 39.007C435.037 33.4225 438.26 28.5713 441.454 24.4534C444.705 20.2791 447.76 16.7253 450.619 13.7921C453.478 10.8024 455.86 8.17934 457.766 5.92297H484.25C481.84 8.68703 480.635 12.5511 480.635 17.5151C480.635 19.7714 480.999 23.4662 481.728 28.5995L483.83 43.9992C491.509 97.2495 498.375 127.711 504.429 135.382H475.086ZM437.167 55.9298C439.353 55.0836 441.651 54.6606 444.061 54.6606C446.471 54.6606 448.629 54.8298 450.535 55.1682C452.497 55.5067 454.43 56.0708 456.336 56.8605C460.428 58.44 463.847 60.9502 466.594 64.3912C463.847 49.894 462.166 41.0377 461.549 37.8224L458.606 23.015L453.814 28.7687C447.088 36.8917 441.539 45.9453 437.167 55.9298Z" fill="#ECECEC"/>
<path d="M570.692 104.075C572.205 106.275 572.962 108.926 572.962 112.029C572.962 115.131 572.738 117.811 572.289 120.067C571.897 122.323 571.336 124.467 570.608 126.498C568.926 130.954 566.796 133.916 564.218 135.382H496.619C501.048 132.618 503.934 130.221 505.279 128.19C507.858 124.354 509.147 119.39 509.147 113.298C509.091 98.2931 509.063 84.7267 509.063 72.5987V28.261C509.063 20.0817 507.718 14.0741 505.027 10.2383C504.074 8.82805 502.897 7.38961 501.496 5.92297H536.052C532.745 10.7178 530.867 15.6536 530.419 20.7304C530.307 22.4227 530.25 24.2842 530.25 26.3149V103.821C530.25 114.37 530.811 120.688 531.932 122.775C533.053 124.805 534.398 126.018 535.968 126.413C537.537 126.752 539.919 126.921 543.114 126.921C546.309 126.921 549.336 126.357 552.195 125.229C555.053 124.1 557.604 122.521 559.846 120.49C563.657 116.993 567.273 111.521 570.692 104.075Z" fill="#ECECEC"/>
<path d="M602.244 128.613C613.006 128.613 619.957 115.413 623.096 89.0138C624.161 80.1011 624.693 69.609 624.693 57.5374C624.693 27.6405 617.154 12.6921 602.076 12.6921C586.998 12.6921 579.459 27.6405 579.459 57.5374C579.459 92.7932 583.972 115.047 592.996 124.298C595.798 127.175 598.881 128.613 602.244 128.613ZM602.076 137.074C587.167 137.074 575.928 130.023 568.361 115.921C561.074 102.326 557.431 82.8652 557.431 57.5374C557.431 31.1943 565.474 14.61 581.561 7.78448C587.223 5.41529 594.061 4.23069 602.076 4.23069C625.057 4.23069 639.098 14.4972 644.199 35.0301C645.881 41.63 646.721 50.1196 646.721 60.4989C646.721 70.8782 645.825 81.0037 644.031 90.8753C642.237 100.691 639.491 109.039 635.791 115.921C628.224 130.023 616.986 137.074 602.076 137.074Z" fill="#ECECEC"/>
<path d="M436.872 55.9521L434.182 64.0751L425.777 67.376C419.198 69.9596 413.242 73.9085 408.301 78.9623L388.443 99.2745L405.898 75.6614C412.324 66.9685 421.393 60.5922 431.748 57.4882L436.872 55.9521Z" fill="#ECECEC"/>
<path d="M86.8825 24.9492C83.0069 27.9973 79.0167 31.4297 78.5325 31.917H65.0477L66.3855 30.763C73.2315 24.8576 78.3481 17.2064 81.1909 8.62377L81.9037 6.47168H106.842C104.912 8.4138 99.4196 13.4853 94.9285 17.9148C92.3914 20.4171 89.6835 22.7463 86.8825 24.9492Z" fill="#ECECEC"/>
<path d="M112.225 6.31592L98.7617 19.18L90.3337 25.9654L82.7485 32.7509C84.4233 37.8073 85.2769 43.0994 85.2769 48.426V113.657C85.2769 115.692 85.0288 117.719 84.5382 119.694C83.3702 124.396 80.8634 128.658 77.3216 131.964L73.6614 135.381H112.225L109.666 132.152C106.923 128.69 104.953 124.681 103.888 120.395C103.282 117.954 102.976 115.449 102.976 112.935V40.7259L103.315 33.7559C103.647 26.9381 105.372 20.2605 108.382 14.1345L112.225 6.31592Z" fill="#ECECEC"/>
<path fill-rule="evenodd" clip-rule="evenodd" d="M686.175 31.4795C708.535 31.4795 726.661 49.7153 726.661 72.2093C726.661 94.7033 708.535 112.939 686.175 112.939L675.162 112.939L675.162 111.921C675.162 101.244 675.218 92.7349 675.263 85.99C675.27 84.9996 675.276 84.0473 675.282 83.1318C675.195 83.1469 675.104 83.155 675.008 83.155C674.385 83.155 673.857 82.7855 673.508 82.5034C673.115 82.1851 672.689 81.7523 672.25 81.2881C672.076 81.1053 671.897 80.9139 671.712 80.7153C670.927 79.8752 670.023 78.9078 668.934 77.9336C667.036 76.2352 664.637 74.5734 661.572 73.7542L657.363 73.219L657.363 71.1996L661.572 70.6644C664.637 69.8452 667.036 68.1834 668.934 66.485C670.023 65.5108 670.927 64.5434 671.712 63.7033C671.897 63.5047 672.076 63.3133 672.25 63.1305C672.689 62.6663 673.115 62.2335 673.508 61.9152C673.857 61.6331 674.385 61.2636 675.008 61.2636C675.104 61.2636 675.195 61.2717 675.282 61.2868C675.276 60.3713 675.27 59.419 675.263 58.4286C675.218 51.6837 675.162 43.1742 675.162 32.4972L675.162 31.4795L686.175 31.4795ZM675.045 64.9004C675.033 64.7906 675.02 64.6852 675.007 64.5843C674.941 64.0739 674.868 63.7208 674.798 63.4845C674.791 63.4897 674.785 63.495 674.778 63.5005C674.501 63.7251 674.157 64.068 673.715 64.5345C673.556 64.7021 673.387 64.8828 673.209 65.0741C672.422 65.9165 671.443 66.9645 670.279 68.0055C669.721 68.5057 669.115 69.0086 668.458 69.4944C669.436 69.1215 670.328 68.6921 671.143 68.2109C672.686 67.2998 673.972 66.1913 675.045 64.9004ZM668.458 74.9242C669.115 75.4099 669.721 75.9129 670.279 76.4131C671.443 77.4541 672.422 78.5021 673.209 79.3445C673.387 79.5358 673.556 79.7165 673.715 79.8841C674.157 80.3506 674.501 80.6935 674.778 80.9181C674.785 80.9236 674.791 80.9289 674.798 80.9341C674.868 80.6978 674.941 80.3447 675.007 79.8343C675.02 79.7334 675.033 79.628 675.045 79.5182C673.972 78.2273 672.686 77.1188 671.143 76.2077C670.328 75.7265 669.436 75.2971 668.458 74.9242ZM677.331 78.7151C677.33 78.861 677.329 79.0081 677.328 79.1564C678.271 80.4633 679.04 81.9042 679.667 83.4582C681.176 87.1988 681.863 91.6027 682.18 96.396C682.461 100.63 682.456 105.233 682.451 110.015C682.451 110.311 682.45 110.607 682.45 110.904L686.175 110.904C686.188 110.904 686.201 110.904 686.214 110.904C686.182 100.317 685.62 91.0391 681.937 84.3326C680.757 82.1828 679.253 80.2955 677.331 78.7151ZM688.238 110.849C689.51 110.781 690.765 110.652 692.002 110.462C691.937 100.041 690.748 90.8858 686.091 84.2738C684.539 82.0708 682.583 80.1254 680.114 78.5052C681.546 79.9443 682.731 81.5676 683.709 83.3488C687.667 90.5568 688.207 100.333 688.238 110.849ZM683.657 78.6183C685.231 79.9547 686.585 81.4529 687.743 83.0974C692.728 90.1764 693.935 99.757 694.023 110.097C695.304 109.83 696.561 109.499 697.792 109.107C697.713 99.0925 695.915 90.2708 690.256 83.8982C688.482 81.9006 686.309 80.1227 683.657 78.6183ZM699.808 108.403C700.915 107.98 701.998 107.508 703.053 106.988C702.944 97.6303 700.591 89.3555 694.05 83.3517C692.407 81.8435 690.488 80.468 688.257 79.2503C689.553 80.2648 690.719 81.3643 691.766 82.5425C697.777 89.3117 699.652 98.478 699.808 108.403ZM688.757 77.211C691.318 78.5602 693.525 80.1137 695.415 81.8484C702.269 88.1402 704.783 96.6568 705.056 105.928C715.443 100.029 722.832 89.4118 724.349 76.9682L717.524 78.8139C714.321 79.6801 710.988 79.9525 707.688 79.6179L707.663 79.6153L688.757 77.211ZM724.552 74.8057C724.57 74.5201 724.586 74.2337 724.599 73.9464L718.338 76.26C716.921 76.7836 715.467 77.1869 713.992 77.4675C715.004 77.3228 716.008 77.1163 716.998 76.8484L724.552 74.8057ZM677.337 73.049L707.269 75.8568C710.792 76.0879 714.325 75.5745 717.64 74.3495L723.431 72.2093L717.64 70.069C714.325 68.8441 710.792 68.3307 707.269 68.5618L677.337 71.3696C677.336 71.6563 677.335 71.9362 677.333 72.2093C677.335 72.4824 677.336 72.7623 677.337 73.049ZM713.992 66.951C715.468 67.2317 716.921 67.635 718.338 68.1586L724.599 70.4722C724.586 70.1849 724.57 69.8985 724.552 69.6129L716.998 67.5702C716.008 67.3023 715.004 67.0958 713.992 66.951ZM724.349 67.4504C722.832 55.0068 715.443 44.3901 705.056 38.4905C704.783 47.7618 702.269 56.2784 695.415 62.5702C693.525 64.3049 691.318 65.8584 688.757 67.2076L707.688 64.8004C710.988 64.4657 714.321 64.7385 717.524 65.6046L724.349 67.4504ZM688.257 65.1683C690.488 63.9506 692.407 62.5751 694.05 61.0669C700.591 55.0631 702.944 46.7883 703.053 37.4302C701.998 36.9107 700.915 36.4383 699.808 36.016C699.652 45.9406 697.777 55.1069 691.766 61.8761C690.719 63.0543 689.553 64.1538 688.257 65.1683ZM697.792 35.3112C696.561 34.9195 695.304 34.5883 694.023 34.3212C693.935 44.6616 692.728 54.2422 687.743 61.3212C686.585 62.9657 685.231 64.4639 683.657 65.8003C686.309 64.2959 688.482 62.518 690.256 60.5204C695.915 54.1478 697.713 45.3261 697.792 35.3112ZM680.114 65.9134C682.583 64.2932 684.539 62.3478 686.091 60.1448C690.748 53.5328 691.937 44.3778 692.002 33.9561C690.765 33.7671 689.51 33.6372 688.238 33.5696C688.207 44.0858 687.667 53.8618 683.709 61.0698C682.731 62.851 681.546 64.4743 680.114 65.9134ZM686.214 33.5149C686.201 33.5149 686.188 33.5149 686.175 33.5149L682.45 33.5149C682.45 33.8117 682.451 34.1079 682.451 34.4034C682.456 39.1857 682.461 43.7887 682.18 48.0226C681.863 52.8159 681.176 57.2198 679.667 60.9604C679.04 62.5144 678.271 63.9553 677.328 65.2622C677.329 65.4105 677.33 65.5576 677.331 65.7035C679.253 64.123 680.757 62.2358 681.937 60.086C685.62 53.3795 686.182 44.1019 686.214 33.5149ZM675.305 72.7079C675.306 72.5444 675.308 72.3782 675.309 72.2093C675.308 72.0404 675.306 71.8742 675.305 71.7107C674.365 71.8927 673.398 72.059 672.404 72.2093C673.398 72.3596 674.365 72.5259 675.305 72.7079ZM677.306 61.3069C677.477 60.9452 677.638 60.5747 677.791 60.1954C679.181 56.7495 679.849 52.5962 680.161 47.8873C680.436 43.7272 680.432 39.1988 680.427 34.4058C680.427 34.1098 680.426 33.8128 680.426 33.5149L677.187 33.5149C677.19 43.6776 677.244 51.8634 677.287 58.4031C677.294 59.4096 677.3 60.3772 677.306 61.3069ZM680.426 110.904C680.426 110.606 680.427 110.309 680.427 110.013C680.432 105.22 680.436 100.691 680.161 96.5313C679.849 91.8224 679.181 87.6691 677.791 84.2232C677.638 83.8439 677.477 83.4734 677.306 83.1117C677.3 84.0414 677.294 85.009 677.287 86.0155C677.244 92.5552 677.19 100.741 677.187 110.904L680.426 110.904Z" fill="#ECECEC"/>
<path fill-rule="evenodd" clip-rule="evenodd" d="M40.4863 112.927C18.1259 112.927 2.16148e-07 94.6915 4.82768e-07 72.1974C7.49389e-07 49.7034 18.1259 31.4676 40.4863 31.4676L51.4985 31.4676L51.4985 32.4853C51.4985 43.1623 51.4424 51.6719 51.3979 58.4167C51.3913 59.4071 51.3851 60.3594 51.3792 61.2749C51.466 61.2598 51.5573 61.2517 51.6533 61.2517C52.2761 61.2517 52.804 61.6212 53.1524 61.9034C53.5455 62.2217 53.9714 62.6544 54.4113 63.1187C54.5844 63.3014 54.7634 63.4929 54.949 63.6914C55.7341 64.5315 56.6383 65.4989 57.727 66.4732C59.6249 68.1715 62.0242 69.8333 65.0886 70.6525L69.2979 71.1878L69.2979 73.2071L65.0886 73.7423C62.0242 74.5616 59.6249 76.2234 57.727 77.9217C56.6383 78.896 55.7341 79.8634 54.949 80.7034C54.7634 80.902 54.5844 81.0935 54.4113 81.2762C53.9714 81.7405 53.5455 82.1732 53.1524 82.4915C52.804 82.7737 52.2761 83.1432 51.6533 83.1432C51.5573 83.1432 51.466 83.1351 51.3792 83.1199C51.3851 84.0355 51.3913 84.9878 51.3979 85.9781C51.4424 92.723 51.4985 101.233 51.4985 111.91L51.4985 112.927L40.4863 112.927ZM51.616 79.5064C51.628 79.6162 51.6406 79.7215 51.6537 79.8225C51.7197 80.3329 51.7933 80.686 51.863 80.9223C51.8695 80.9171 51.8761 80.9117 51.8829 80.9062C52.1603 80.6816 52.5038 80.3387 52.9458 79.8722C53.1046 79.7046 53.2734 79.5239 53.4521 79.3327C54.239 78.4903 55.218 77.4423 56.3814 76.4012C56.9403 75.901 57.5463 75.3981 58.2024 74.9124C57.225 75.2852 56.3328 75.7147 55.518 76.1958C53.9749 77.1069 52.6888 78.2155 51.616 79.5064ZM58.2024 69.4825C57.5463 68.9968 56.9403 68.4939 56.3814 67.9937C55.218 66.9526 54.239 65.9046 53.4521 65.0622C53.2734 64.8709 53.1046 64.6903 52.9458 64.5227C52.5038 64.0562 52.1603 63.7133 51.8829 63.4887C51.8761 63.4832 51.8695 63.4778 51.863 63.4726C51.7932 63.7089 51.7197 64.062 51.6537 64.5724C51.6406 64.6734 51.628 64.7787 51.616 64.8885C52.6888 66.1794 53.9749 67.2879 55.518 68.1991C56.3328 68.6802 57.225 69.1096 58.2024 69.4825ZM49.3303 65.6916C49.331 65.5457 49.3317 65.3986 49.3324 65.2504C48.3899 63.9434 47.6206 62.5026 46.9938 60.9485C45.4851 57.2079 44.7983 52.804 44.4807 48.0107C44.2002 43.7768 44.2049 39.1738 44.2099 34.3916C44.2102 34.0961 44.2105 33.7999 44.2107 33.503L40.4863 33.503C40.4733 33.503 40.4602 33.503 40.4472 33.503C40.4785 44.0901 41.0413 53.3677 44.7238 60.0741C45.9043 62.224 47.4078 64.1112 49.3303 65.6916ZM38.4232 33.5577C37.1511 33.6254 35.8954 33.7552 34.659 33.9443C34.7236 44.366 35.9132 53.521 40.5699 60.1329C42.1214 62.3359 44.0775 64.2814 46.547 65.9015C45.1152 64.4624 43.9299 62.8391 42.9519 61.058C38.9939 53.8499 38.4543 44.0739 38.4232 33.5577ZM43.004 65.7884C41.4295 64.4521 40.0763 62.9539 38.9181 61.3093C33.9325 54.2303 32.7259 44.6498 32.6375 34.3093C31.357 34.5764 30.0998 34.9076 28.8693 35.2993C28.9477 45.3142 30.7459 54.1359 36.405 60.5085C38.179 62.5061 40.3516 64.284 43.004 65.7884ZM26.8533 36.0041C25.746 36.4265 24.6632 36.8988 23.6075 37.4183C23.7173 46.7764 26.0701 55.0513 32.6108 61.0551C34.2539 62.5633 36.1725 63.9388 38.4036 65.1564C37.1076 64.1419 35.9416 63.0424 34.8953 61.8642C28.8839 55.095 27.0092 45.9288 26.8533 36.0041ZM37.9039 67.1958C35.3429 65.8466 33.136 64.293 31.2462 62.5583C24.3917 56.2666 21.8782 47.75 21.6048 38.4787C11.2178 44.3782 3.82905 54.9949 2.31212 67.4385L9.13712 65.5928C12.34 64.7266 15.6728 64.4542 18.9726 64.7889L18.9981 64.7914L37.9039 67.1958ZM2.10934 69.6011C2.09053 69.8866 2.07481 70.1731 2.06219 70.4603L8.3226 68.1467C9.73955 67.6231 11.1934 67.2198 12.669 66.9392C11.6572 67.0839 10.6533 67.2905 9.6628 67.5583L2.10934 69.6011ZM49.3237 71.3577L19.3922 68.5499C15.8685 68.3188 12.3356 68.8322 9.02082 70.0572L3.22943 72.1974L9.02083 74.3377C12.3356 75.5627 15.8685 76.0761 19.3922 75.845L49.3237 73.0372C49.3249 72.7504 49.3263 72.4706 49.3281 72.1974C49.3263 71.9243 49.3249 71.6445 49.3237 71.3577ZM12.669 77.4557C11.1934 77.175 9.73955 76.7718 8.3226 76.2481L2.06219 73.9346C2.07481 74.2218 2.09053 74.5082 2.10934 74.7938L9.6628 76.8365C10.6533 77.1044 11.6572 77.3109 12.669 77.4557ZM2.31212 76.9564C3.82905 89.4 11.2178 100.017 21.6048 105.916C21.8782 96.6449 24.3917 88.1283 31.2462 81.8365C33.136 80.1018 35.3429 78.5483 37.9039 77.1991L18.9726 79.6063C15.6728 79.941 12.34 79.6683 9.13712 78.8021L2.31212 76.9564ZM38.4037 79.2384C36.1726 80.4561 34.2539 81.8316 32.6108 83.3398C26.0701 89.3436 23.7173 97.6185 23.6075 106.977C24.6632 107.496 25.746 107.968 26.8533 108.391C27.0092 98.4661 28.8839 89.2998 34.8953 82.5307C35.9416 81.3524 37.1076 80.2529 38.4037 79.2384ZM28.8693 109.096C30.0998 109.487 31.357 109.818 32.6375 110.086C32.7259 99.7451 33.9325 90.1645 38.9181 83.0856C40.0763 81.441 41.4295 79.9428 43.0041 78.6064C40.3516 80.1109 38.179 81.8887 36.405 83.8864C30.7459 90.259 28.9477 99.0807 28.8693 109.096ZM46.547 78.4934C44.0775 80.1135 42.1214 82.059 40.5699 84.2619C35.9132 90.8739 34.7236 100.029 34.659 110.451C35.8954 110.64 37.1511 110.769 38.4232 110.837C38.4543 100.321 38.9939 90.5449 42.9519 83.3369C43.9299 81.5558 45.1152 79.9325 46.547 78.4934ZM40.4472 110.892C40.4602 110.892 40.4733 110.892 40.4863 110.892L44.2107 110.892C44.2105 110.595 44.2102 110.299 44.2099 110.003C44.2049 105.221 44.2002 100.618 44.4807 96.3842C44.7983 91.5909 45.4851 87.187 46.9938 83.4464C47.6206 81.8923 48.3899 80.4515 49.3324 79.1445C49.3317 78.9963 49.331 78.8492 49.3303 78.7033C47.4078 80.2837 45.9043 82.1709 44.7238 84.3208C41.0413 91.0272 40.4785 100.305 40.4472 110.892ZM51.3559 71.6988C51.3546 71.8623 51.3534 72.0286 51.3522 72.1974C51.3534 72.3663 51.3546 72.5325 51.3559 72.6961C52.2958 72.5141 53.2626 72.3477 54.2567 72.1974C53.2626 72.0472 52.2958 71.8808 51.3559 71.6988ZM49.355 83.0998C49.1841 83.4615 49.0225 83.8321 48.8695 84.2113C47.4797 87.6572 46.8124 91.8106 46.5004 96.5195C46.2247 100.68 46.2292 105.208 46.234 110.001C46.2343 110.297 46.2346 110.594 46.2349 110.892L49.4743 110.892C49.4708 100.729 49.4169 92.5433 49.3739 86.0036C49.3673 84.9971 49.3609 84.0296 49.355 83.0998ZM46.2349 33.503C46.2346 33.801 46.2343 34.098 46.234 34.3939C46.2292 39.1869 46.2247 43.7153 46.5004 47.8754C46.8124 52.5843 47.4797 56.7377 48.8695 60.1835C49.0225 60.5628 49.1841 60.9334 49.355 61.2951C49.3609 60.3653 49.3673 59.3978 49.3739 58.3912C49.4169 51.8516 49.4708 43.6657 49.4743 33.503L46.2349 33.503Z" fill="#ECECEC"/>
</svg>
