<svg width="269" height="28" viewBox="0 0 269 28" fill="none" xmlns="http://www.w3.org/2000/svg">
<path d="M3.12924 18.325L3.12919 14.381L24.5619 22.9456L24.5619 26.8895L3.12924 18.325Z" fill="#C7C2AC"/>
<path d="M1.44113 15.4867L1.44108 11.5427L22.8738 20.1073L22.8738 24.0512L1.44113 15.4867Z" fill="#FFF8DE"/>
<path d="M3.12924 12.4639L3.12919 17.0978L24.5619 7.03502L24.5619 2.40113L3.12924 12.4639Z" fill="#C7C2AC"/>
<path d="M1.44113 10.7982L1.44108 15.4321L22.8738 5.36926L22.8738 0.735375L1.44113 10.7982Z" fill="#FFF8DE"/>
<path d="M265.558 9.19044L265.558 13.1344L244.126 4.56984L244.126 0.625886L265.558 9.19044Z" fill="#C7C2AC"/>
<path d="M267.246 12.0287L267.247 15.9727L245.814 7.40813L245.814 3.46417L267.246 12.0287Z" fill="#FFF8DE"/>
<path d="M265.558 15.0515L265.558 10.4176L244.126 20.4804L244.126 25.1143L265.558 15.0515Z" fill="#C7C2AC"/>
<path d="M267.246 16.7172L267.247 12.0833L245.814 22.1461L245.814 26.78L267.246 16.7172Z" fill="#FFF8DE"/>
<g filter="url(#filter0_d_2040_301)">
<path d="M35.6207 23.3545C33.8518 23.3545 32.5112 22.9635 31.5988 22.1815C30.705 21.3808 30.2581 20.2077 30.2581 18.6622V12.1544H27.2695V8.3838H30.2581V4.58525L34.7828 3.60769V8.3838H38.9165V12.1544H34.7828V17.7684C34.7828 18.4202 34.9225 18.8857 35.2018 19.165C35.4997 19.4257 36.0118 19.556 36.738 19.556C37.1104 19.556 37.4455 19.5374 37.7435 19.5001C38.06 19.4443 38.4045 19.3605 38.7769 19.2488V22.9077C38.3672 23.038 37.8459 23.1404 37.2128 23.2149C36.5797 23.308 36.049 23.3545 35.6207 23.3545Z" fill="#FFF8DE"/>
<path d="M49.2576 23.4383C48.1031 23.4383 47.079 23.187 46.1852 22.6842C45.3101 22.1815 44.6211 21.4832 44.1184 20.5894C43.6156 19.677 43.3643 18.6436 43.3643 17.4891V8.3838H47.889V16.8747C47.889 17.6753 48.1311 18.3271 48.6152 18.8298C49.1179 19.3139 49.7696 19.556 50.5703 19.556C51.1476 19.556 51.6596 19.4536 52.1065 19.2488C52.5534 19.0439 52.9258 18.7553 53.2237 18.3829V8.3838H57.7485V23.159H53.2237V22.1535C52.1065 23.0101 50.7845 23.4383 49.2576 23.4383Z" fill="#FFF8DE"/>
<path d="M70.4939 23.4383C69.0229 23.4383 67.6916 23.1032 66.4999 22.4328C65.3268 21.7625 64.3958 20.8501 63.7068 19.6956C63.0179 18.5226 62.6734 17.2191 62.6734 15.7854C62.6734 14.333 63.0179 13.0296 63.7068 11.8751C64.3958 10.7207 65.3268 9.80826 66.4999 9.13792C67.6916 8.44897 69.0229 8.1045 70.4939 8.1045C71.7042 8.1045 72.8587 8.34656 73.9573 8.83069C75.0559 9.2962 75.9869 9.96653 76.7504 10.8417L73.9852 13.7185C73.4639 13.1227 72.9332 12.6944 72.3932 12.4337C71.8532 12.1544 71.2574 12.0148 70.6056 12.0148C69.9539 12.0148 69.3674 12.1823 68.846 12.5175C68.3247 12.8341 67.915 13.2809 67.6171 13.8582C67.3192 14.4168 67.1702 15.0592 67.1702 15.7854C67.1702 16.493 67.3192 17.1354 67.6171 17.7126C67.9336 18.2712 68.3619 18.7181 68.9019 19.0532C69.4419 19.3698 70.047 19.5281 70.7174 19.5281C71.3318 19.5281 71.8998 19.3977 72.4211 19.137C72.9425 18.8764 73.4452 18.476 73.9294 17.936L76.6107 20.7291C75.8659 21.5856 74.9535 22.2559 73.8735 22.7401C72.7935 23.2056 71.667 23.4383 70.4939 23.4383Z" fill="#FFF8DE"/>
<path d="M85.9133 23.4104C84.8706 23.4104 83.9395 23.2149 83.1202 22.8239C82.3196 22.4328 81.6865 21.8928 81.221 21.2039C80.7741 20.5149 80.5506 19.7236 80.5506 18.8298C80.5506 17.4147 81.0813 16.3254 82.1427 15.5619C83.2227 14.7799 84.7216 14.3889 86.6395 14.3889C87.7939 14.3889 88.9112 14.5285 89.9911 14.8078V14.0816C89.9911 13.3368 89.7491 12.7875 89.2649 12.4337C88.7994 12.0613 88.1012 11.8751 87.1702 11.8751C86.5929 11.8751 85.9412 11.9682 85.215 12.1544C84.5075 12.3406 83.6695 12.6385 82.7013 13.0482L81.0813 9.72446C82.2916 9.18447 83.4554 8.78414 84.5726 8.52345C85.7085 8.24415 86.8443 8.1045 87.9802 8.1045C90.0284 8.1045 91.6204 8.59793 92.7563 9.58481C93.8921 10.5531 94.46 11.9217 94.46 13.6906V23.159H89.9911V22.2653C89.3953 22.6749 88.7622 22.9728 88.0919 23.159C87.4402 23.3266 86.714 23.4104 85.9133 23.4104ZM84.8519 18.746C84.8519 19.2115 85.0568 19.5746 85.4664 19.8353C85.8761 20.096 86.444 20.2263 87.1702 20.2263C87.7102 20.2263 88.2129 20.1705 88.6784 20.0587C89.1625 19.947 89.6001 19.7701 89.9911 19.5281V17.6288C89.5629 17.5171 89.1253 17.4333 88.6784 17.3774C88.2315 17.3216 87.7753 17.2936 87.3098 17.2936C86.5278 17.2936 85.9226 17.424 85.4943 17.6847C85.0661 17.9267 84.8519 18.2805 84.8519 18.746Z" fill="#FFF8DE"/>
<path d="M108.194 23.159V3.60769L112.719 2.90943V9.41723C113.874 8.59793 115.177 8.18829 116.629 8.18829C118.045 8.18829 119.32 8.53276 120.456 9.22171C121.592 9.89205 122.495 10.8044 123.165 11.9589C123.836 13.0947 124.171 14.3702 124.171 15.7854C124.171 17.2005 123.826 18.4853 123.137 19.6398C122.467 20.7756 121.545 21.6787 120.372 22.349C119.218 23.0194 117.924 23.3545 116.49 23.3545C115.801 23.3545 115.131 23.2707 114.479 23.1032C113.827 22.917 113.222 22.6563 112.663 22.3211V23.159H108.194ZM115.847 19.5281C116.592 19.5281 117.253 19.3698 117.83 19.0532C118.408 18.7181 118.864 18.2712 119.199 17.7126C119.553 17.1354 119.73 16.493 119.73 15.7854C119.73 15.0778 119.553 14.4447 119.199 13.8861C118.864 13.3089 118.398 12.862 117.803 12.5454C117.225 12.2103 116.574 12.0427 115.847 12.0427C115.214 12.0427 114.637 12.1451 114.116 12.3499C113.594 12.5361 113.129 12.8247 112.719 13.2158V18.3829C113.11 18.7367 113.576 19.016 114.116 19.2208C114.656 19.4256 115.233 19.5281 115.847 19.5281Z" fill="#FFF8DE"/>
<path d="M133.955 23.4104C132.913 23.4104 131.982 23.2149 131.162 22.8239C130.362 22.4328 129.729 21.8928 129.263 21.2039C128.816 20.5149 128.593 19.7236 128.593 18.8298C128.593 17.4147 129.123 16.3254 130.185 15.5619C131.265 14.7799 132.764 14.3889 134.682 14.3889C135.836 14.3889 136.953 14.5285 138.033 14.8078V14.0816C138.033 13.3368 137.791 12.7875 137.307 12.4337C136.841 12.0613 136.143 11.8751 135.212 11.8751C134.635 11.8751 133.983 11.9682 133.257 12.1544C132.549 12.3406 131.712 12.6385 130.743 13.0482L129.123 9.72446C130.334 9.18447 131.497 8.78414 132.615 8.52345C133.75 8.24415 134.886 8.1045 136.022 8.1045C138.07 8.1045 139.662 8.59793 140.798 9.58481C141.934 10.5531 142.502 11.9217 142.502 13.6906V23.159H138.033V22.2653C137.437 22.6749 136.804 22.9728 136.134 23.159C135.482 23.3266 134.756 23.4104 133.955 23.4104ZM132.894 18.746C132.894 19.2115 133.099 19.5746 133.508 19.8353C133.918 20.096 134.486 20.2263 135.212 20.2263C135.752 20.2263 136.255 20.1705 136.72 20.0587C137.205 19.947 137.642 19.7701 138.033 19.5281V17.6288C137.605 17.5171 137.167 17.4333 136.72 17.3774C136.274 17.3216 135.817 17.2936 135.352 17.2936C134.57 17.2936 133.965 17.424 133.536 17.6847C133.108 17.9267 132.894 18.2805 132.894 18.746Z" fill="#FFF8DE"/>
<path d="M147.984 23.159V8.3838H152.509V9.86412C152.993 9.26827 153.561 8.82138 154.213 8.52345C154.865 8.20691 155.591 8.04864 156.392 8.04864C157.192 8.06726 157.76 8.18829 158.095 8.41173V12.3499C157.797 12.201 157.462 12.0892 157.09 12.0148C156.717 11.9403 156.336 11.903 155.945 11.903C155.237 11.903 154.576 12.0706 153.962 12.4058C153.366 12.7223 152.882 13.1785 152.509 13.7744V23.159H147.984Z" fill="#FFF8DE"/>
<path d="M169.575 23.4383C168.104 23.4383 166.772 23.1032 165.58 22.4328C164.407 21.7625 163.476 20.8501 162.787 19.6956C162.098 18.5226 161.754 17.2191 161.754 15.7854C161.754 14.333 162.098 13.0296 162.787 11.8751C163.476 10.7207 164.407 9.80826 165.58 9.13792C166.772 8.44897 168.104 8.1045 169.575 8.1045C170.785 8.1045 171.939 8.34656 173.038 8.83069C174.137 9.2962 175.068 9.96653 175.831 10.8417L173.066 13.7185C172.544 13.1227 172.014 12.6944 171.474 12.4337C170.934 12.1544 170.338 12.0148 169.686 12.0148C169.035 12.0148 168.448 12.1823 167.927 12.5175C167.405 12.8341 166.996 13.2809 166.698 13.8582C166.4 14.4168 166.251 15.0592 166.251 15.7854C166.251 16.493 166.4 17.1354 166.698 17.7126C167.014 18.2712 167.443 18.7181 167.982 19.0532C168.522 19.3698 169.128 19.5281 169.798 19.5281C170.412 19.5281 170.98 19.3977 171.502 19.137C172.023 18.8764 172.526 18.476 173.01 17.936L175.691 20.7291C174.947 21.5856 174.034 22.2559 172.954 22.7401C171.874 23.2056 170.748 23.4383 169.575 23.4383Z" fill="#FFF8DE"/>
<path d="M187.238 23.4383C185.73 23.4383 184.361 23.1032 183.132 22.4328C181.922 21.7439 180.963 20.8222 180.256 19.6677C179.548 18.5133 179.194 17.2191 179.194 15.7854C179.194 14.3516 179.529 13.0575 180.2 11.903C180.889 10.7486 181.82 9.83618 182.993 9.16585C184.166 8.4769 185.469 8.13243 186.903 8.13243C188.355 8.13243 189.64 8.48621 190.757 9.19378C191.875 9.88274 192.75 10.8324 193.383 12.0427C194.035 13.253 194.36 14.6402 194.36 16.2043V17.3216H183.831C184.035 17.7871 184.305 18.1967 184.641 18.5505C184.994 18.9043 185.413 19.1836 185.898 19.3884C186.382 19.5746 186.903 19.6677 187.462 19.6677C188.076 19.6677 188.635 19.5746 189.137 19.3884C189.64 19.1836 190.068 18.9043 190.422 18.5505L193.411 21.2039C192.48 21.9859 191.521 22.5539 190.534 22.9077C189.566 23.2614 188.467 23.4383 187.238 23.4383ZM183.747 14.1654H189.92C189.771 13.6813 189.538 13.2716 189.221 12.9365C188.923 12.5827 188.57 12.3127 188.16 12.1265C187.75 11.9217 187.303 11.8193 186.819 11.8193C186.316 11.8193 185.86 11.9124 185.451 12.0986C185.041 12.2848 184.687 12.5548 184.389 12.9085C184.11 13.2437 183.896 13.6627 183.747 14.1654Z" fill="#FFF8DE"/>
<path d="M199.269 23.159V3.60769L203.793 2.90943V23.159H199.269Z" fill="#FFF8DE"/>
<path d="M216.717 23.4383C215.209 23.4383 213.85 23.1032 212.639 22.4328C211.429 21.7439 210.47 20.8222 209.763 19.6677C209.055 18.5133 208.701 17.2191 208.701 15.7854C208.701 14.3516 209.055 13.0575 209.763 11.903C210.47 10.73 211.429 9.80826 212.639 9.13792C213.85 8.44897 215.209 8.1045 216.717 8.1045C218.226 8.1045 219.585 8.44897 220.795 9.13792C222.005 9.80826 222.964 10.73 223.672 11.903C224.38 13.0575 224.733 14.3516 224.733 15.7854C224.733 17.2191 224.38 18.5133 223.672 19.6677C222.964 20.8222 222.005 21.7439 220.795 22.4328C219.585 23.1032 218.226 23.4383 216.717 23.4383ZM216.717 19.5281C217.406 19.5281 218.021 19.3605 218.561 19.0253C219.101 18.6901 219.529 18.2433 219.845 17.6847C220.162 17.1074 220.32 16.4743 220.32 15.7854C220.32 15.0778 220.162 14.4447 219.845 13.8861C219.529 13.3089 219.091 12.8527 218.533 12.5175C217.993 12.1823 217.388 12.0148 216.717 12.0148C216.047 12.0148 215.432 12.1823 214.874 12.5175C214.334 12.8527 213.906 13.3089 213.589 13.8861C213.273 14.4447 213.114 15.0778 213.114 15.7854C213.114 16.4743 213.273 17.1074 213.589 17.6847C213.906 18.2433 214.334 18.6901 214.874 19.0253C215.432 19.3605 216.047 19.5281 216.717 19.5281Z" fill="#FFF8DE"/>
<path d="M235.486 23.4383C234.089 23.4383 232.795 23.2801 231.604 22.9635C230.412 22.6283 229.378 22.1442 228.503 21.5111L230.654 18.4667C231.585 19.0253 232.432 19.435 233.196 19.6956C233.959 19.9377 234.713 20.0587 235.458 20.0587C236.203 20.0587 236.789 19.9563 237.218 19.7515C237.664 19.5281 237.888 19.2394 237.888 18.8857C237.888 18.6064 237.767 18.3829 237.525 18.2153C237.283 18.0291 236.901 17.8988 236.38 17.8243L233.447 17.3774C231.976 17.154 230.849 16.6698 230.067 15.925C229.304 15.1616 228.922 14.1747 228.922 12.9644C228.922 11.9589 229.174 11.1024 229.676 10.3948C230.198 9.6686 230.933 9.1193 231.883 8.7469C232.833 8.35587 233.968 8.16036 235.29 8.16036C236.37 8.16036 237.441 8.30932 238.502 8.60724C239.564 8.90517 240.551 9.35206 241.463 9.94791L239.312 12.8527C238.512 12.3872 237.748 12.052 237.022 11.8472C236.296 11.6237 235.57 11.512 234.844 11.512C234.266 11.512 233.801 11.6144 233.447 11.8193C233.093 12.0055 232.916 12.2568 232.916 12.5734C232.916 12.8713 233.047 13.1134 233.307 13.2996C233.568 13.4671 234.015 13.5975 234.648 13.6906L237.581 14.1375C239.033 14.3423 240.15 14.8264 240.932 15.5899C241.733 16.3347 242.133 17.2843 242.133 18.4388C242.133 19.407 241.845 20.2636 241.268 21.0084C240.69 21.7532 239.899 22.349 238.893 22.7959C237.907 23.2242 236.771 23.4383 235.486 23.4383Z" fill="#FFF8DE"/>
</g>
<defs>
<filter id="filter0_d_2040_301" x="26.5195" y="2.90943" width="215.614" height="21.5289" filterUnits="userSpaceOnUse" color-interpolation-filters="sRGB">
<feFlood flood-opacity="0" result="BackgroundImageFix"/>
<feColorMatrix in="SourceAlpha" type="matrix" values="0 0 0 0 0 0 0 0 0 0 0 0 0 0 0 0 0 0 127 0" result="hardAlpha"/>
<feOffset dx="-0.75" dy="1"/>
<feComposite in2="hardAlpha" operator="out"/>
<feColorMatrix type="matrix" values="0 0 0 0 0.780392 0 0 0 0 0.760784 0 0 0 0 0.67451 0 0 0 1 0"/>
<feBlend mode="normal" in2="BackgroundImageFix" result="effect1_dropShadow_2040_301"/>
<feBlend mode="normal" in="SourceGraphic" in2="effect1_dropShadow_2040_301" result="shape"/>
</filter>
</defs>
</svg>
