<svg width="642" height="212" viewBox="0 0 642 212" fill="none" xmlns="http://www.w3.org/2000/svg">
<g filter="url(#filter0_d_458_545)">
<path d="M156.28 145.363C155.857 146.894 155.645 148.732 155.645 150.879C155.645 153.006 155.685 154.368 155.766 154.964C155.867 155.56 156.018 156.037 156.219 156.395C156.602 156.991 157.348 157.29 158.457 157.29H166.559C166.559 158.403 166.287 159.257 165.743 159.854C164.755 160.927 163.546 161.464 162.115 161.464C161.409 161.464 160.785 161.364 160.24 161.166C159.253 160.768 158.487 160.569 157.943 160.569C157.398 160.569 156.955 160.679 156.612 160.897C156.27 161.096 155.998 161.394 155.796 161.792C155.433 162.507 155.252 164.068 155.252 166.473C155.252 168.878 155.323 171.343 155.464 173.867C155.625 176.392 156.008 178.509 156.612 180.218C157.217 181.908 158.134 183.18 159.364 184.035C160.593 184.889 162.286 185.317 164.443 185.317C164.443 185.933 164.02 186.668 163.173 187.523C162.951 187.761 162.76 187.921 162.599 188C159.031 188 156.361 187.583 154.587 186.748C152.551 185.754 151.1 183.985 150.233 181.441C149.367 178.856 148.933 175.03 148.933 169.961C148.933 165.529 148.812 162.915 148.57 162.12C148.329 161.305 148.107 160.768 147.905 160.51C147.664 160.212 147.079 159.844 146.152 159.407C147.401 158.472 148.641 156.733 149.871 154.189L151.382 151.058C152.45 148.673 153.357 147.132 154.103 146.437C154.869 145.721 155.595 145.363 156.28 145.363Z" fill="#ECECEC"/>
<path d="M229.407 171.482L229.317 177.207C229.317 180.765 229.649 183.19 230.314 184.482C230.717 185.257 231.191 185.853 231.735 186.271L233.156 187.404H224.389L223.451 183.945C221.174 186.648 217.929 188 213.716 188C211.318 188 209.383 187.205 207.912 185.615C206.622 184.184 205.977 182.494 205.977 180.546C205.977 178.598 206.44 176.899 207.367 175.448C208.315 173.996 209.554 172.794 211.086 171.84C214.109 169.991 217.909 169.027 222.484 168.948V168.62C222.484 163.79 221.728 160.957 220.216 160.122C219.672 159.824 218.967 159.675 218.1 159.675C217.254 159.675 216.407 159.953 215.561 160.51C214.714 161.066 213.948 161.782 213.263 162.657C211.892 164.426 210.915 166.513 210.33 168.918C208.536 167.864 207.64 165.847 207.64 162.865C207.64 161.653 207.801 160.291 208.123 158.78C208.889 158.78 209.615 158.671 210.3 158.452L212.628 157.737C214.906 157.041 217.133 156.693 219.309 156.693C221.486 156.693 223.22 157.011 224.51 157.647C225.82 158.284 226.837 159.228 227.563 160.48C228.793 162.607 229.407 166.274 229.407 171.482ZM212.507 181.142C212.507 182.375 212.789 183.329 213.354 184.005C213.938 184.681 214.664 185.018 215.53 185.018C216.397 185.018 217.233 184.8 218.04 184.362C218.846 183.905 219.571 183.289 220.216 182.514C221.728 180.745 222.484 178.668 222.484 176.282V171.87C219.662 172.128 217.334 173.052 215.5 174.642C213.505 176.352 212.507 178.519 212.507 181.142Z" fill="#ECECEC"/>
<path d="M283.73 145.363C283.306 146.894 283.095 148.732 283.095 150.879C283.095 153.006 283.135 154.368 283.216 154.964C283.317 155.56 283.468 156.037 283.669 156.395C284.052 156.991 284.798 157.29 285.907 157.29H294.009C294.009 158.403 293.737 159.257 293.193 159.854C292.205 160.927 290.996 161.464 289.565 161.464C288.859 161.464 288.234 161.364 287.69 161.166C286.703 160.768 285.937 160.569 285.393 160.569C284.848 160.569 284.405 160.679 284.062 160.897C283.72 161.096 283.448 161.394 283.246 161.792C282.883 162.507 282.702 164.068 282.702 166.473C282.702 168.878 282.772 171.343 282.913 173.867C283.075 176.392 283.458 178.509 284.062 180.218C284.667 181.908 285.584 183.18 286.813 184.035C288.043 184.889 289.736 185.317 291.893 185.317C291.893 185.933 291.469 186.668 290.623 187.523C290.401 187.761 290.21 187.921 290.048 188C286.481 188 283.81 187.583 282.037 186.748C280.001 185.754 278.55 183.985 277.683 181.441C276.816 178.856 276.383 175.03 276.383 169.961C276.383 165.529 276.262 162.915 276.02 162.12C275.778 161.305 275.557 160.768 275.355 160.51C275.113 160.212 274.529 159.844 273.602 159.407C274.851 158.472 276.091 156.733 277.32 154.189L278.832 151.058C279.9 148.673 280.807 147.132 281.553 146.437C282.319 145.721 283.044 145.363 283.73 145.363Z" fill="#ECECEC"/>
<path d="M343.252 145.363C342.829 146.894 342.617 148.732 342.617 150.879C342.617 153.006 342.658 154.368 342.738 154.964C342.839 155.56 342.99 156.037 343.192 156.395C343.575 156.991 344.321 157.29 345.429 157.29H353.531C353.531 158.403 353.259 159.257 352.715 159.854C351.728 160.927 350.518 161.464 349.087 161.464C348.382 161.464 347.757 161.364 347.213 161.166C346.225 160.768 345.459 160.569 344.915 160.569C344.371 160.569 343.928 160.679 343.585 160.897C343.242 161.096 342.97 161.394 342.769 161.792C342.406 162.507 342.224 164.068 342.224 166.473C342.224 168.878 342.295 171.343 342.436 173.867C342.597 176.392 342.98 178.509 343.585 180.218C344.19 181.908 345.107 183.18 346.336 184.035C347.566 184.889 349.259 185.317 351.415 185.317C351.415 185.933 350.992 186.668 350.145 187.523C349.924 187.761 349.732 187.921 349.571 188C346.003 188 343.333 187.583 341.559 186.748C339.524 185.754 338.072 183.985 337.206 181.441C336.339 178.856 335.906 175.03 335.906 169.961C335.906 165.529 335.785 162.915 335.543 162.12C335.301 161.305 335.079 160.768 334.878 160.51C334.636 160.212 334.051 159.844 333.124 159.407C334.374 158.472 335.613 156.733 336.843 154.189L338.355 151.058C339.423 148.673 340.33 147.132 341.076 146.437C341.841 145.721 342.567 145.363 343.252 145.363Z" fill="#ECECEC"/>
<path d="M407.249 159.675C405.435 159.675 404.125 160.569 403.319 162.358C402.533 164.147 402.14 167.159 402.14 171.393C402.14 180.476 403.843 185.018 407.249 185.018C409.063 185.018 410.363 183.806 411.149 181.381C411.956 178.956 412.359 175.626 412.359 171.393C412.359 167.159 411.956 164.147 411.149 162.358C410.363 160.569 409.063 159.675 407.249 159.675ZM394.521 170.26C394.521 161.215 398.764 156.693 407.249 156.693C415.735 156.693 419.977 161.215 419.977 170.26C419.977 175.746 418.808 180.089 416.47 183.289C414.193 186.43 411.119 188 407.249 188C403.379 188 400.306 186.43 398.028 183.289C395.69 180.089 394.521 175.746 394.521 170.26Z" fill="#ECECEC"/>
<path d="M477.777 159.675C475.963 159.675 474.653 160.569 473.846 162.358C473.06 164.147 472.667 167.159 472.667 171.393C472.667 180.476 474.37 185.018 477.777 185.018C479.591 185.018 480.891 183.806 481.677 181.381C482.483 178.956 482.886 175.626 482.886 171.393C482.886 167.159 482.483 164.147 481.677 162.358C480.891 160.569 479.591 159.675 477.777 159.675ZM465.049 170.26C465.049 161.215 469.291 156.693 477.777 156.693C486.262 156.693 490.505 161.215 490.505 170.26C490.505 175.746 489.336 180.089 486.998 183.289C484.72 186.43 481.646 188 477.777 188C473.907 188 470.833 186.43 468.556 183.289C466.218 180.089 465.049 175.746 465.049 170.26Z" fill="#ECECEC"/>
<path d="M149.288 61.5638C143.902 61.5638 141.209 64.7649 141.209 71.1672C141.209 97.711 141.65 113.343 142.532 118.063C143.043 120.914 143.693 123.04 144.482 124.442L146.572 128.157H121.846C123.332 124.605 124.191 121.638 124.423 119.255C124.702 116.871 124.934 114.324 125.12 111.614C125.491 106.099 125.677 98.6924 125.677 89.3927C125.677 78.1303 125.491 67.8492 125.12 58.5496L124.354 39.2726C124.168 34.4124 123.75 31.0244 123.1 29.1083C122.078 26.0708 120.407 23.3369 118.085 20.9069H154.93C166.167 20.9069 174.293 22.0284 179.308 24.2716C184.601 26.6082 187.248 30.6038 187.248 36.2584C187.248 41.212 185.414 45.8618 181.745 50.2079C178.309 54.2268 173.805 57.428 168.233 59.8113C168.93 77.7564 174.525 94.9772 185.019 111.474C189.523 118.624 194.12 124.185 198.81 128.157H172.691C168.14 121.895 163.938 109.207 160.084 90.0937C158.784 83.4578 157.925 77.9434 157.507 73.5506C157.136 69.1577 156.811 66.5174 156.532 65.6295C156.3 64.6948 155.905 63.9471 155.348 63.3863C154.234 62.1713 152.214 61.5638 149.288 61.5638ZM165.308 49.0863C166.608 47.6844 167.514 46.1889 168.024 44.6C168.582 43.0111 168.86 41.4924 168.86 40.0437C168.86 38.5482 168.651 37.0762 168.233 35.6275C167.862 34.132 167.096 32.8235 165.935 31.702C163.381 29.1784 158.923 27.9167 152.562 27.9167C150.194 27.9167 148.267 28.0101 146.781 28.1971C145.342 28.384 144.204 28.8981 143.368 29.7392C141.929 31.1412 141.209 34.7162 141.209 40.4642C141.209 45.5113 141.743 48.7358 142.811 50.1378C144.715 52.6146 147.594 53.853 151.448 53.853C155.302 53.853 158.25 53.409 160.293 52.5211C162.383 51.5865 164.054 50.4415 165.308 49.0863Z" fill="#ECECEC"/>
<path d="M214.843 20.9069C213.125 25.253 212.127 29.6224 211.848 34.0152C211.57 38.3613 211.361 42.0999 211.222 45.2309C211.082 48.362 210.966 51.6098 210.873 54.9746C210.734 62.8255 210.664 69.9756 210.664 76.4246C210.664 102.875 211.639 119.091 213.59 125.073C213.915 126.101 214.333 127.129 214.843 128.157H190.814C192.253 124.979 193.112 122.105 193.391 119.535C193.67 116.965 193.925 113.904 194.157 110.352C194.714 103.015 194.993 94.5566 194.993 84.9766C194.993 75.3965 194.97 68.854 194.923 65.3491C194.877 61.7974 194.807 58.3393 194.714 54.9746C194.389 38.5716 193.414 28.1503 191.789 23.7108L190.814 20.9069H214.843Z" fill="#ECECEC"/>
<path d="M235.613 91.005C235.009 95.8651 234.708 99.7439 234.708 102.641C234.708 105.492 235.056 108.132 235.752 110.562C236.449 112.992 237.447 115.095 238.747 116.871C241.533 120.656 245.062 122.549 249.334 122.549C257.507 122.549 261.593 118.016 261.593 108.95C261.593 101.66 257.39 93.9257 248.986 85.7476L241.742 78.6677C235.381 72.4991 231.039 67.5455 228.718 63.8069C224.121 56.4233 221.822 49.0863 221.822 41.7961C221.822 35.8611 223.726 30.8842 227.534 26.8652C232.131 21.9583 238.747 19.5049 247.384 19.5049C250.774 19.5049 253.328 19.6685 255.046 19.9956C258.25 20.6031 260.385 20.9069 261.453 20.9069C264.147 20.9069 266.236 20.0657 267.722 18.3833C268.279 17.7758 268.883 16.9814 269.533 16C272.923 17.916 274.617 24.9492 274.617 37.0995C274.617 44.8571 273.851 50.5817 272.319 54.2736C271.808 55.5353 271.228 56.3298 270.578 56.6569C269.835 49.6004 267.559 43.2915 263.752 37.7304C259.294 31.1879 254.14 27.9167 248.289 27.9167C243.275 27.9167 240.187 30.2299 239.026 34.8564C238.701 36.1649 238.538 37.8005 238.538 39.7633C238.538 41.6793 239.119 43.8757 240.28 46.3525C241.441 48.8293 242.95 51.3061 244.807 53.7829C246.711 56.213 248.893 58.6664 251.354 61.1432C258.784 68.8073 263.705 73.9945 266.12 76.705C268.581 79.4154 270.763 82.2194 272.667 85.1168C276.846 91.6125 278.936 97.898 278.936 103.973C278.936 111.31 276.103 117.385 270.438 122.199C264.588 127.106 257.065 129.559 247.872 129.559C240.256 129.559 233.709 127.643 228.23 123.811C222.194 119.605 219.176 114.044 219.176 107.128C220.987 100.632 224.933 95.8651 231.016 92.8275C232.641 91.9864 234.174 91.3788 235.613 91.005Z" fill="#ECECEC"/>
<path d="M344.357 61.5638C340.828 61.5638 339.064 64.7649 339.064 71.1672V79.9996C339.064 96.2624 339.226 106.31 339.551 110.142C339.923 113.927 340.271 116.567 340.596 118.063C340.967 119.558 341.455 120.89 342.059 122.058C343.034 123.974 344.984 126.007 347.909 128.157H318.308C320.026 124.699 321.071 121.755 321.442 119.325C321.813 116.895 322.092 114.324 322.278 111.614C322.649 106.099 322.835 98.6924 322.835 89.3927C322.835 78.1303 322.649 67.8492 322.278 58.5496L321.512 39.2726C321.326 34.4124 320.908 31.0244 320.258 29.1083C319.236 26.0708 317.565 23.3369 315.243 20.9069H354.178C364.672 20.9069 372.264 22.0284 376.953 24.2716C381.922 26.6082 384.406 30.6038 384.406 36.2584C384.406 43.1747 381.457 48.8994 375.56 53.4324C368.595 58.8533 358.194 61.5638 344.357 61.5638ZM361.7 48.7358C363.186 47.2404 364.277 45.6749 364.974 44.0392C365.67 42.3569 366.018 40.8147 366.018 39.4128C366.018 37.9641 365.809 36.5388 365.391 35.1368C365.02 33.7348 364.254 32.4964 363.093 31.4216C360.493 29.085 356.035 27.9167 349.72 27.9167C345.913 27.9167 343.428 28.384 342.267 29.3186C340.132 31.0945 339.064 34.576 339.064 39.7633C339.064 45.6048 339.528 49.2265 340.457 50.6285C341.385 51.9837 342.453 52.8716 343.66 53.2922C344.868 53.6661 346.702 53.853 349.163 53.853C351.67 53.853 354.015 53.3623 356.198 52.3809C358.426 51.3996 360.26 50.1845 361.7 48.7358Z" fill="#ECECEC"/>
<path d="M413.564 128.157C414.168 125.213 414.47 122.876 414.47 121.147C414.47 119.371 414.423 118.04 414.331 117.152C414.284 116.264 414.191 115.329 414.052 114.348C413.959 113.32 413.82 112.198 413.634 110.983C413.495 109.721 413.355 108.272 413.216 106.637C412.148 95.4679 408.364 86.2851 401.863 79.0883C398.984 75.9105 395.873 73.5038 392.53 71.8682C389.187 70.1859 386.424 69.3447 384.242 69.3447C382.106 69.3447 380.457 69.4849 379.296 69.7653C376.696 77.6163 375.396 85.8177 375.396 94.3697C375.396 101.94 375.791 107.595 376.58 111.333C377.834 116.941 379.761 122.573 382.361 128.227H361.536C362.65 125.423 363.207 119.535 363.207 110.562C363.207 101.543 363.88 93.1313 365.227 85.327C366.574 77.4761 368.315 70.4896 370.451 64.3677C372.633 58.2458 375.048 52.895 377.694 48.3152C380.388 43.6888 383.058 39.6698 385.704 36.2584C388.397 32.8002 390.928 29.8561 393.296 27.426C395.664 24.9492 397.638 22.7762 399.216 20.9069H421.156C419.16 23.1967 418.161 26.3979 418.161 30.5103C418.161 32.3796 418.463 35.4405 419.067 39.6932L420.808 52.451C427.169 96.5661 432.858 121.801 437.872 128.157H413.564ZM382.152 62.3349C383.963 61.6339 385.867 61.2834 387.863 61.2834C389.86 61.2834 391.648 61.4236 393.227 61.704C394.852 61.9844 396.454 62.4517 398.032 63.1059C401.422 64.4144 404.255 66.494 406.53 69.3447C404.255 57.3345 402.861 49.9976 402.351 47.3339L399.913 35.0667L395.943 39.8334C390.371 46.5628 385.774 54.0633 382.152 62.3349Z" fill="#ECECEC"/>
<path d="M492.765 102.221C494.019 104.043 494.646 106.24 494.646 108.81C494.646 111.38 494.46 113.6 494.089 115.469C493.764 117.339 493.299 119.114 492.696 120.797C491.303 124.489 489.538 126.942 487.402 128.157H431.403C435.072 125.867 437.463 123.881 438.577 122.199C440.713 119.021 441.781 114.908 441.781 109.861C441.735 97.4307 441.712 86.1916 441.712 76.1442V39.4128C441.712 32.6366 440.597 27.6597 438.368 24.4819C437.579 23.3136 436.604 22.1219 435.443 20.9069H464.069C461.33 24.8791 459.774 28.9682 459.403 33.174C459.31 34.576 459.264 36.1182 459.264 37.8005V102.01C459.264 110.749 459.728 115.983 460.657 117.712C461.585 119.395 462.7 120.399 464 120.727C465.3 121.007 467.273 121.147 469.92 121.147C472.567 121.147 475.074 120.68 477.442 119.745C479.81 118.811 481.923 117.502 483.78 115.82C486.938 112.922 489.933 108.389 492.765 102.221Z" fill="#ECECEC"/>
<path d="M518.904 122.549C527.819 122.549 533.577 111.614 536.177 89.7432C537.059 82.3596 537.5 73.6674 537.5 63.6667C537.5 38.8987 531.255 26.5147 518.764 26.5147C506.274 26.5147 500.028 38.8987 500.028 63.6667C500.028 92.8743 503.766 111.31 511.242 118.974C513.564 121.357 516.118 122.549 518.904 122.549ZM518.764 129.559C506.413 129.559 497.103 123.717 490.835 112.034C484.798 100.772 481.78 84.6494 481.78 63.6667C481.78 41.8428 488.443 28.1036 501.77 22.449C506.46 20.4863 512.124 19.5049 518.764 19.5049C537.802 19.5049 549.434 28.0101 553.659 45.0206C555.052 50.4883 555.749 57.5215 555.749 66.1202C555.749 74.7189 555.006 83.1073 553.52 91.2854C552.034 99.4168 549.759 106.333 546.694 112.034C540.426 123.717 531.116 129.559 518.764 129.559Z" fill="#ECECEC"/>
<path d="M381.908 62.3533L379.679 69.0828L374.429 71.1448C367.85 73.7285 361.894 77.6776 356.953 82.7316L341.789 98.2436L354.55 80.9792C360.976 72.286 370.046 65.9095 380.4 62.8052L381.908 62.3533Z" fill="#ECECEC"/>
<path d="M91.2528 37.2402C88.2848 39.6062 85.4277 42.0682 85.0566 42.4416H73.8857C80.2823 36.9236 85.0629 29.7746 87.719 21.7553L87.8494 21.3615H108.508C107.003 22.8768 102.879 26.6918 99.2963 30.1962C96.7488 32.688 94.0393 35.0189 91.2528 37.2402Z" fill="#ECECEC"/>
<path d="M112.968 21.2326L101.815 31.8898L94.8334 37.5112L88.5498 43.1326C89.9372 47.3215 90.6443 51.7058 90.6443 56.1185V110.159C90.6443 111.845 90.4388 113.524 90.0324 115.161C89.0648 119.056 86.9881 122.587 84.054 125.326L81.022 128.156H112.968L110.849 125.481C108.576 122.613 106.944 119.292 106.062 115.741C105.56 113.719 105.306 111.644 105.306 109.561V49.7395L105.501 45.7377C105.833 38.9202 107.557 32.2429 110.568 26.1171L112.968 21.2326Z" fill="#ECECEC"/>
<path fill-rule="evenodd" clip-rule="evenodd" d="M588.432 42.079C606.955 42.079 621.971 57.1864 621.971 75.8215C621.971 94.4566 606.955 109.564 588.432 109.564L579.309 109.564L579.309 108.721C579.309 99.8755 579.355 92.8258 579.392 87.238C579.398 86.4176 579.403 85.6287 579.408 84.8702C579.336 84.8827 579.26 84.8894 579.181 84.8894C578.665 84.8894 578.227 84.5833 577.939 84.3496C577.613 84.0859 577.26 83.7273 576.896 83.3428C576.753 83.1914 576.604 83.0327 576.451 82.8682C575.8 82.1723 575.051 81.3708 574.149 80.5637C572.577 79.1567 570.589 77.78 568.051 77.1013L564.564 76.6579L564.564 74.985L568.051 74.5416C570.589 73.8629 572.577 72.4862 574.149 71.0792C575.051 70.2721 575.8 69.4706 576.451 68.7747C576.604 68.6102 576.753 68.4516 576.896 68.3002C577.26 67.9156 577.613 67.5571 577.939 67.2934C578.227 67.0596 578.665 66.7535 579.181 66.7535C579.26 66.7535 579.336 66.7602 579.408 66.7728C579.403 66.0143 579.398 65.2253 579.392 64.4049C579.355 58.8171 579.309 51.7674 579.309 42.9221L579.309 42.079L588.432 42.079ZM579.212 69.7664C579.202 69.6754 579.191 69.5882 579.18 69.5045C579.126 69.0817 579.065 68.7892 579.007 68.5934C579.002 68.5977 578.996 68.6022 578.991 68.6067C578.761 68.7928 578.476 69.0768 578.11 69.4633C577.978 69.6022 577.839 69.7519 577.691 69.9103C577.039 70.6082 576.228 71.4764 575.264 72.3389C574.801 72.7532 574.299 73.1699 573.755 73.5723C574.565 73.2634 575.304 72.9076 575.979 72.509C577.258 71.7542 578.323 70.8358 579.212 69.7664ZM573.755 78.0707C574.299 78.473 574.801 78.8897 575.264 79.3041C576.228 80.1665 577.039 81.0347 577.691 81.7326C577.839 81.8911 577.978 82.0408 578.11 82.1796C578.476 82.5661 578.761 82.8501 578.991 83.0362C578.996 83.0408 579.002 83.0452 579.007 83.0495C579.065 82.8538 579.126 82.5612 579.18 82.1384C579.191 82.0548 579.202 81.9675 579.212 81.8765C578.323 80.8071 577.258 79.8887 575.979 79.1339C575.304 78.7353 574.565 78.3795 573.755 78.0707ZM581.105 81.2112C581.105 81.3321 581.104 81.4539 581.103 81.5768C581.884 82.6595 582.521 83.8532 583.041 85.1406C584.29 88.2395 584.859 91.8879 585.123 95.8589C585.355 99.3664 585.351 103.18 585.347 107.142C585.347 107.386 585.346 107.632 585.346 107.878L588.432 107.878C588.442 107.878 588.453 107.878 588.464 107.878C588.438 99.1069 587.972 91.4209 584.921 85.865C583.943 84.084 582.698 82.5205 581.105 81.2112ZM590.141 107.832C591.194 107.776 592.235 107.669 593.259 107.512C593.205 98.8783 592.22 91.2939 588.362 85.8163C587.077 83.9912 585.457 82.3795 583.411 81.0373C584.597 82.2295 585.579 83.5743 586.389 85.0499C589.668 91.0214 590.115 99.1203 590.141 107.832ZM586.346 81.131C587.65 82.2381 588.771 83.4793 589.731 84.8417C593.861 90.7062 594.86 98.6432 594.934 107.21C595.994 106.988 597.036 106.714 598.055 106.39C597.99 98.0928 596.501 90.7845 591.813 85.5051C590.343 83.8502 588.543 82.3773 586.346 81.131ZM599.725 105.806C600.642 105.456 601.54 105.065 602.414 104.634C602.323 96.8814 600.374 90.0262 594.956 85.0523C593.595 83.8029 592.005 82.6633 590.157 81.6546C591.23 82.495 592.196 83.4059 593.063 84.382C598.043 89.9899 599.596 97.5837 599.725 105.806ZM590.571 79.9651C592.692 81.0828 594.521 82.3698 596.086 83.8069C601.764 89.0193 603.847 96.0749 604.073 103.756C612.678 98.8682 618.799 90.0728 620.055 79.764L614.401 81.2931C611.748 82.0106 608.987 82.2363 606.254 81.9591L606.233 81.9569L590.571 79.9651ZM620.223 77.9724C620.239 77.7358 620.252 77.4986 620.262 77.2606L615.076 79.1773C613.902 79.6111 612.698 79.9451 611.476 80.1776C612.314 80.0577 613.145 79.8866 613.966 79.6647L620.223 77.9724ZM581.111 76.5171L605.906 78.8432C608.825 79.0347 611.752 78.6094 614.498 77.5945L619.295 75.8215L614.498 74.0484C611.752 73.0335 608.825 72.6082 605.906 72.7997L581.111 75.1258C581.11 75.3634 581.108 75.5952 581.107 75.8215C581.108 76.0477 581.11 76.2796 581.111 76.5171ZM611.476 71.4653C612.698 71.6978 613.902 72.0319 615.076 72.4657L620.262 74.3823C620.252 74.1444 620.239 73.9071 620.223 73.6705L613.966 71.9782C613.145 71.7563 612.314 71.5852 611.476 71.4653ZM620.055 71.8789C618.799 61.5701 612.678 52.7747 604.073 47.8873C603.847 55.568 601.764 62.6236 596.086 67.836C594.521 69.2731 592.692 70.5601 590.571 71.6779L606.254 69.6836C608.987 69.4063 611.748 69.6323 614.401 70.3499L620.055 71.8789ZM590.157 69.9884C592.005 68.9796 593.595 67.8401 594.956 66.5906C600.374 61.6168 602.323 54.7615 602.414 47.0088C601.54 46.5784 600.642 46.1871 599.725 45.8372C599.596 54.0593 598.043 61.653 593.063 67.2609C592.196 68.237 591.231 69.1479 590.157 69.9884ZM598.055 45.2533C597.036 44.9288 595.994 44.6545 594.934 44.4332C594.86 52.9997 593.861 60.9367 589.731 66.8012C588.771 68.1637 587.65 69.4048 586.346 70.5119C588.543 69.2656 590.343 67.7927 591.813 66.1378C596.501 60.8584 597.99 53.5501 598.055 45.2533ZM583.411 70.6056C585.457 69.2634 587.077 67.6517 588.362 65.8267C592.22 60.349 593.205 52.7646 593.259 44.1307C592.235 43.9741 591.194 43.8666 590.141 43.8105C590.115 52.5226 589.668 60.6215 586.389 66.593C585.579 68.0686 584.597 69.4134 583.411 70.6056ZM588.464 43.7652C588.453 43.7652 588.442 43.7652 588.432 43.7652L585.346 43.7652C585.346 44.0111 585.347 44.2565 585.347 44.5013C585.351 48.4632 585.355 52.2765 585.123 55.7841C584.859 59.755 584.29 63.4034 583.041 66.5023C582.521 67.7898 581.884 68.9834 581.103 70.0662C581.104 70.189 581.105 70.3108 581.105 70.4317C582.698 69.1224 583.943 67.559 584.921 65.7779C587.972 60.222 588.438 52.536 588.464 43.7652ZM579.427 76.2346C579.428 76.0991 579.429 75.9614 579.43 75.8215C579.429 75.6816 579.428 75.5439 579.427 75.4084C578.648 75.5592 577.848 75.697 577.024 75.8215C577.848 75.946 578.648 76.0838 579.427 76.2346ZM581.085 66.7894C581.226 66.4898 581.36 66.1828 581.487 65.8686C582.638 63.0139 583.191 59.573 583.449 55.672C583.678 52.2255 583.674 48.474 583.67 44.5033C583.67 44.2581 583.67 44.012 583.669 43.7652L580.986 43.7652C580.989 52.1844 581.033 58.966 581.069 64.3838C581.075 65.2176 581.08 66.0192 581.085 66.7894ZM583.669 107.878C583.67 107.631 583.67 107.385 583.67 107.14C583.674 103.169 583.678 99.4174 583.449 95.971C583.191 92.0699 582.638 88.6291 581.487 85.7743C581.36 85.4602 581.226 85.1532 581.085 84.8535C581.08 85.6238 581.075 86.4253 581.069 87.2592C581.033 92.6769 580.989 99.4585 580.986 107.878L583.669 107.878Z" fill="#ECECEC"/>
<path fill-rule="evenodd" clip-rule="evenodd" d="M53.5392 109.554C35.0156 109.554 20 94.4471 20 75.812C20 57.1769 35.0156 42.0695 53.5392 42.0695L62.6618 42.0695L62.6618 42.9126C62.6618 51.7579 62.6152 58.8077 62.5784 64.3954C62.5729 65.2159 62.5677 66.0048 62.5629 66.7633C62.6348 66.7507 62.7105 66.744 62.79 66.744C63.3059 66.744 63.7432 67.0502 64.0318 67.2839C64.3575 67.5476 64.7103 67.9061 65.0747 68.2907C65.2181 68.4421 65.3664 68.6007 65.5201 68.7652C66.1705 69.4612 66.9195 70.2626 67.8215 71.0697C69.3937 72.4767 71.3813 73.8534 73.9198 74.5321L77.4069 74.9755L77.4069 76.6484L73.9198 77.0919C71.3813 77.7705 69.3937 79.1473 67.8215 80.5542C66.9195 81.3614 66.1705 82.1628 65.5201 82.8588C65.3664 83.0233 65.2181 83.1819 65.0747 83.3333C64.7103 83.7179 64.3575 84.0764 64.0318 84.3401C63.7432 84.5738 63.3059 84.8799 62.79 84.8799C62.7105 84.8799 62.6348 84.8732 62.5629 84.8607C62.5677 85.6192 62.5729 86.4081 62.5784 87.2286C62.6152 92.8163 62.6618 99.866 62.6618 108.711L62.6618 109.554L53.5392 109.554ZM62.759 81.867C62.769 81.958 62.7794 82.0453 62.7903 82.1289C62.8449 82.5518 62.9059 82.8443 62.9636 83.04C62.9691 83.0357 62.9746 83.0313 62.9802 83.0268C63.21 82.8407 63.4945 82.5566 63.8607 82.1701C63.9922 82.0313 64.132 81.8816 64.2801 81.7232C64.932 81.0253 65.743 80.157 66.7067 79.2946C67.1698 78.8802 67.6718 78.4636 68.2153 78.0612C67.4056 78.3701 66.6665 78.7258 65.9915 79.1244C64.7132 79.8793 63.6478 80.7976 62.759 81.867ZM68.2153 73.5628C67.6718 73.1604 67.1698 72.7438 66.7067 72.3294C65.743 71.4669 64.932 70.5987 64.2801 69.9008C64.132 69.7424 63.9922 69.5927 63.8607 69.4539C63.4945 69.0674 63.21 68.7833 62.9802 68.5972C62.9746 68.5927 62.969 68.5882 62.9636 68.5839C62.9059 68.7797 62.8449 69.0722 62.7903 69.4951C62.7794 69.5787 62.769 69.666 62.759 69.7569C63.6478 70.8264 64.7132 71.7447 65.9915 72.4996C66.6665 72.8982 67.4056 73.2539 68.2153 73.5628ZM60.8656 70.4222C60.8661 70.3014 60.8667 70.1795 60.8673 70.0567C60.0865 68.974 59.4492 67.7803 58.93 66.4928C57.6802 63.394 57.1112 59.7456 56.8481 55.7746C56.6157 52.267 56.6197 48.4537 56.6238 44.4918C56.624 44.247 56.6243 44.0016 56.6245 43.7557L53.5392 43.7557C53.5284 43.7557 53.5176 43.7557 53.5067 43.7557C53.5327 52.5265 53.9989 60.2125 57.0495 65.7684C58.0275 67.5495 59.273 69.113 60.8656 70.4222ZM51.83 43.8011C50.7762 43.8571 49.736 43.9646 48.7118 44.1213C48.7653 52.7551 49.7507 60.3395 53.6084 65.8172C54.8937 67.6422 56.5141 69.254 58.5599 70.5961C57.3738 69.4039 56.3918 68.0591 55.5816 66.5835C52.3028 60.6121 51.8558 52.5131 51.83 43.8011ZM55.6248 70.5025C54.3205 69.3954 53.1995 68.1542 52.24 66.7917C48.1099 60.9272 47.1104 52.9902 47.0371 44.4237C45.9763 44.645 44.9349 44.9193 43.9156 45.2439C43.9804 53.5407 45.4701 60.849 50.1582 66.1283C51.6278 67.7833 53.4276 69.2561 55.6248 70.5025ZM42.2455 45.8277C41.3282 46.1776 40.4312 46.5689 39.5566 46.9993C39.6476 54.752 41.5966 61.6073 47.015 66.5811C48.3761 67.8306 49.9656 68.9701 51.8139 69.9789C50.7402 69.1384 49.7742 68.2276 48.9075 67.2515C43.9276 61.6436 42.3746 54.0498 42.2455 45.8277ZM51.3998 71.6684C49.2783 70.5506 47.4501 69.2636 45.8845 67.8265C40.2063 62.6141 38.124 55.5586 37.8976 47.8778C29.2929 52.7652 23.172 61.5606 21.9154 71.8695L27.5693 70.3404C30.2225 69.6228 32.9834 69.3971 35.717 69.6744L35.7381 69.6765L51.3998 71.6684ZM21.7474 73.661C21.7318 73.8976 21.7188 74.1349 21.7083 74.3729L26.8945 72.4562C28.0683 72.0224 29.2727 71.6883 30.495 71.4558C29.6569 71.5757 28.8253 71.7468 28.0047 71.9687L21.7474 73.661ZM60.8601 75.1163L36.0646 72.7902C33.1455 72.5987 30.2189 73.0241 27.4729 74.0389L22.6753 75.812L27.4729 77.5851C30.2189 78.5999 33.1455 79.0252 36.0646 78.8338L60.8601 76.5076C60.8611 76.2701 60.8623 76.0383 60.8637 75.812C60.8623 75.5857 60.8611 75.3539 60.8601 75.1163ZM30.4951 80.1682C29.2727 79.9357 28.0683 79.6016 26.8945 79.1678L21.7083 77.2511C21.7188 77.4891 21.7318 77.7264 21.7474 77.963L28.0047 79.6552C28.8253 79.8772 29.6569 80.0483 30.4951 80.1682ZM21.9154 79.7545C23.172 90.0634 29.2929 98.8588 37.8976 103.746C38.124 96.0654 40.2063 89.0099 45.8845 83.7975C47.4501 82.3604 49.2783 81.0733 51.3998 79.9556L35.7171 81.9499C32.9835 82.2271 30.2225 82.0012 27.5693 81.2836L21.9154 79.7545ZM51.8139 81.6451C49.9656 82.6539 48.3761 83.7934 47.015 85.0428C41.5966 90.0167 39.6476 96.872 39.5566 104.625C40.4312 105.055 41.3282 105.446 42.2455 105.796C42.3746 97.5742 43.9276 89.9804 48.9075 84.3725C49.7742 83.3964 50.7402 82.4855 51.8139 81.6451ZM43.9156 106.38C44.9349 106.705 45.9763 106.979 47.0371 107.2C47.1104 98.6338 48.1099 90.6968 52.24 84.8322C53.1995 83.4698 54.3205 82.2286 55.6249 81.1215C53.4276 82.3679 51.6278 83.8407 50.1582 85.4956C45.4701 90.775 43.9804 98.0833 43.9156 106.38ZM58.5599 81.0278C56.5141 82.37 54.8937 83.9817 53.6084 85.8068C49.7507 91.2845 48.7653 98.8689 48.7118 107.503C49.736 107.659 50.7762 107.767 51.83 107.823C51.8558 99.1108 52.3028 91.0119 55.5816 85.0405C56.3918 83.5649 57.3738 82.2201 58.5599 81.0278ZM53.5067 107.868C53.5175 107.868 53.5284 107.868 53.5392 107.868L56.6245 107.868C56.6243 107.622 56.624 107.377 56.6238 107.132C56.6197 103.17 56.6157 99.357 56.8481 95.8494C57.1112 91.8784 57.6802 88.23 58.93 85.1311C59.4492 83.8437 60.0865 82.65 60.8673 81.5673C60.8667 81.4445 60.8661 81.3226 60.8656 81.2017C59.273 82.511 58.0275 84.0745 57.0495 85.8555C53.9989 91.4114 53.5327 99.0975 53.5067 107.868ZM62.5436 75.3989C62.5425 75.5344 62.5415 75.6721 62.5406 75.812C62.5415 75.9519 62.5425 76.0896 62.5436 76.2251C63.3222 76.0743 64.1231 75.9365 64.9467 75.812C64.1231 75.6875 63.3222 75.5497 62.5436 75.3989ZM60.886 84.844C60.7445 85.1437 60.6106 85.4507 60.4839 85.7649C59.3325 88.6196 58.7797 92.0604 58.5212 95.9615C58.2929 99.4079 58.2966 103.159 58.3006 107.13C58.3008 107.375 58.3011 107.621 58.3013 107.868L60.9848 107.868C60.982 99.449 60.9373 92.6675 60.9017 87.2497C60.8962 86.4158 60.8909 85.6143 60.886 84.844ZM58.3013 43.7557C58.3011 44.0026 58.3008 44.2486 58.3006 44.4938C58.2966 48.4645 58.2929 52.2161 58.5212 55.6625C58.7797 59.5635 59.3325 63.0044 60.4839 65.8591C60.6106 66.1733 60.7445 66.4803 60.886 66.7799C60.8909 66.0097 60.8962 65.2081 60.9017 64.3743C60.9373 58.9565 60.982 52.175 60.9848 43.7557L58.3013 43.7557Z" fill="#ECECEC"/>
</g>
<defs>
<filter id="filter0_d_458_545" x="0" y="0" width="641.971" height="212" filterUnits="userSpaceOnUse" color-interpolation-filters="sRGB">
<feFlood flood-opacity="0" result="BackgroundImageFix"/>
<feColorMatrix in="SourceAlpha" type="matrix" values="0 0 0 0 0 0 0 0 0 0 0 0 0 0 0 0 0 0 127 0" result="hardAlpha"/>
<feOffset dy="4"/>
<feGaussianBlur stdDeviation="10"/>
<feComposite in2="hardAlpha" operator="out"/>
<feColorMatrix type="matrix" values="0 0 0 0 0 0 0 0 0 0 0 0 0 0 0 0 0 0 1 0"/>
<feBlend mode="normal" in2="BackgroundImageFix" result="effect1_dropShadow_458_545"/>
<feBlend mode="normal" in="SourceGraphic" in2="effect1_dropShadow_458_545" result="shape"/>
</filter>
</defs>
</svg>
