<svg width="692" height="64" viewBox="0 0 692 64" fill="none" xmlns="http://www.w3.org/2000/svg">
<path d="M7.17037 41.9899L7.17026 32.9526L56.2812 52.5775L56.2812 61.6147L7.17037 41.9899Z" fill="#986F05"/>
<path d="M3.3022 35.4862L3.3021 26.449L52.4131 46.0739L52.4131 55.111L3.3022 35.4862Z" fill="#FFF8DE"/>
<path d="M7.17037 28.5598L7.17026 39.1779L56.2812 16.12L56.2812 5.50186L7.17037 28.5598Z" fill="#986F05"/>
<path d="M3.3022 24.7429L3.3021 35.3611L52.4131 12.3031L52.4131 1.68497L3.3022 24.7429Z" fill="#FFF8DE"/>
<path d="M684.413 21.059L684.413 30.0962L635.302 10.4713L635.302 1.43412L684.413 21.059Z" fill="#986F05"/>
<path d="M688.281 27.5626L688.281 36.5999L639.17 16.975L639.17 7.93779L688.281 27.5626Z" fill="#FFF8DE"/>
<path d="M684.413 34.489L684.413 23.8709L635.302 46.9289L635.302 57.547L684.413 34.489Z" fill="#986F05"/>
<path d="M688.281 38.3059L688.281 27.6878L639.17 50.7457L639.17 61.3639L688.281 38.3059Z" fill="#FFF8DE"/>
<path d="M99.136 51.4481C95.0827 51.4481 92.0107 50.5521 89.92 48.7601C87.872 46.9254 86.848 44.2374 86.848 40.6961V25.7841H80V17.1441H86.848V8.4401L97.216 6.2001V17.1441H106.688V25.7841H97.216V38.6481C97.216 40.1414 97.536 41.2081 98.176 41.8481C98.8587 42.4454 100.032 42.7441 101.696 42.7441C102.549 42.7441 103.317 42.7014 104 42.6161C104.725 42.4881 105.515 42.2961 106.368 42.0401V50.4241C105.429 50.7228 104.235 50.9574 102.784 51.1281C101.333 51.3414 100.117 51.4481 99.136 51.4481Z" fill="#FFF8DE"/>
<path d="M130.384 51.6401C127.738 51.6401 125.392 51.0641 123.344 49.9121C121.338 48.7601 119.76 47.1601 118.608 45.1121C117.456 43.0214 116.88 40.6534 116.88 38.0081V17.1441H127.248V36.6001C127.248 38.4348 127.802 39.9281 128.912 41.0801C130.064 42.1894 131.557 42.7441 133.392 42.7441C134.714 42.7441 135.888 42.5094 136.912 42.0401C137.936 41.5708 138.789 40.9094 139.472 40.0561V17.1441H149.84V51.0001H139.472V48.6961C136.912 50.6588 133.882 51.6401 130.384 51.6401Z" fill="#FFF8DE"/>
<path d="M179.045 51.6401C175.674 51.6401 172.623 50.8721 169.893 49.3361C167.205 47.8001 165.071 45.7094 163.493 43.0641C161.914 40.3761 161.125 37.3894 161.125 34.1041C161.125 30.7761 161.914 27.7894 163.493 25.1441C165.071 22.4988 167.205 20.4081 169.893 18.8721C172.623 17.2934 175.674 16.5041 179.045 16.5041C181.818 16.5041 184.463 17.0588 186.981 18.1681C189.498 19.2348 191.631 20.7708 193.381 22.7761L187.045 29.3681C185.85 28.0028 184.634 27.0214 183.397 26.4241C182.159 25.7841 180.794 25.4641 179.301 25.4641C177.807 25.4641 176.463 25.8481 175.269 26.6161C174.074 27.3414 173.135 28.3654 172.453 29.6881C171.77 30.9681 171.429 32.4401 171.429 34.1041C171.429 35.7254 171.77 37.1974 172.453 38.5201C173.178 39.8001 174.159 40.8241 175.397 41.5921C176.634 42.3174 178.021 42.6801 179.557 42.6801C180.965 42.6801 182.266 42.3814 183.461 41.7841C184.655 41.1868 185.807 40.2694 186.917 39.0321L193.061 45.4321C191.354 47.3948 189.263 48.9308 186.789 50.0401C184.314 51.1068 181.733 51.6401 179.045 51.6401Z" fill="#FFF8DE"/>
<path d="M214.376 51.5761C211.987 51.5761 209.854 51.1281 207.976 50.2321C206.142 49.3361 204.691 48.0988 203.624 46.5201C202.6 44.9414 202.088 43.1281 202.088 41.0801C202.088 37.8374 203.304 35.3414 205.736 33.5921C208.211 31.8001 211.646 30.9041 216.04 30.9041C218.686 30.9041 221.246 31.2241 223.721 31.8641V30.2001C223.721 28.4934 223.166 27.2348 222.057 26.4241C220.99 25.5708 219.39 25.1441 217.257 25.1441C215.934 25.1441 214.441 25.3574 212.777 25.7841C211.155 26.2108 209.235 26.8934 207.016 27.8321L203.304 20.2161C206.078 18.9788 208.745 18.0614 211.305 17.4641C213.907 16.8241 216.51 16.5041 219.113 16.5041C223.806 16.5041 227.454 17.6348 230.057 19.8961C232.659 22.1148 233.96 25.2508 233.96 29.3041V51.0001H223.721V48.9521C222.355 49.8908 220.904 50.5734 219.368 51.0001C217.875 51.3841 216.211 51.5761 214.376 51.5761ZM211.945 40.8881C211.945 41.9548 212.414 42.7868 213.352 43.3841C214.291 43.9814 215.593 44.2801 217.257 44.2801C218.494 44.2801 219.646 44.1521 220.712 43.8961C221.822 43.6401 222.825 43.2348 223.721 42.6801V38.3281C222.739 38.0721 221.736 37.8801 220.712 37.7521C219.688 37.6241 218.643 37.5601 217.576 37.5601C215.784 37.5601 214.398 37.8588 213.417 38.4561C212.435 39.0108 211.945 39.8214 211.945 40.8881Z" fill="#FFF8DE"/>
<path d="M259.899 51.6401C256.699 51.6401 253.734 51.2774 251.003 50.5521C248.272 49.7841 245.904 48.6748 243.899 47.2241L248.827 40.2481C250.96 41.5281 252.902 42.4668 254.651 43.0641C256.4 43.6188 258.128 43.8961 259.835 43.8961C261.542 43.8961 262.886 43.6614 263.867 43.1921C264.891 42.6801 265.403 42.0188 265.403 41.2081C265.403 40.5681 265.126 40.0561 264.571 39.6721C264.016 39.2454 263.142 38.9468 261.947 38.7761L255.227 37.7521C251.856 37.2401 249.275 36.1308 247.483 34.4241C245.734 32.6748 244.859 30.4134 244.859 27.6401C244.859 25.3361 245.435 23.3734 246.587 21.7521C247.782 20.0881 249.467 18.8294 251.643 17.9761C253.819 17.0801 256.422 16.6321 259.451 16.6321C261.926 16.6321 264.379 16.9734 266.811 17.6561C269.243 18.3388 271.504 19.3628 273.595 20.7281L268.667 27.3841C266.832 26.3174 265.083 25.5494 263.419 25.0801C261.755 24.5681 260.091 24.3121 258.427 24.3121C257.104 24.3121 256.038 24.5468 255.227 25.0161C254.416 25.4428 254.011 26.0188 254.011 26.7441C254.011 27.4268 254.31 27.9814 254.907 28.4081C255.504 28.7921 256.528 29.0908 257.979 29.3041L264.699 30.3281C268.027 30.7974 270.587 31.9068 272.379 33.6561C274.214 35.3628 275.131 37.5388 275.131 40.1841C275.131 42.4028 274.47 44.3654 273.147 46.0721C271.824 47.7788 270.011 49.1441 267.707 50.1681C265.446 51.1494 262.843 51.6401 259.899 51.6401Z" fill="#FFF8DE"/>
<path d="M304.385 51.0001V6.2001L314.753 4.6001V19.5121C317.399 17.6348 320.386 16.6961 323.714 16.6961C326.956 16.6961 329.879 17.4854 332.481 19.0641C335.084 20.6001 337.153 22.6908 338.689 25.3361C340.225 27.9388 340.993 30.8614 340.993 34.1041C340.993 37.3468 340.204 40.2908 338.625 42.9361C337.089 45.5388 334.977 47.6081 332.289 49.1441C329.644 50.6801 326.679 51.4481 323.393 51.4481C321.815 51.4481 320.279 51.2561 318.785 50.8721C317.292 50.4454 315.905 49.8481 314.625 49.0801V51.0001H304.385ZM321.921 42.6801C323.628 42.6801 325.143 42.3174 326.465 41.5921C327.788 40.8241 328.834 39.8001 329.602 38.5201C330.412 37.1974 330.817 35.7254 330.817 34.1041C330.817 32.4828 330.412 31.0321 329.602 29.7521C328.834 28.4294 327.767 27.4054 326.401 26.6801C325.079 25.9121 323.585 25.5281 321.921 25.5281C320.471 25.5281 319.148 25.7628 317.953 26.2321C316.759 26.6588 315.692 27.3201 314.753 28.2161V40.0561C315.649 40.8668 316.716 41.5068 317.953 41.9761C319.191 42.4454 320.513 42.6801 321.921 42.6801Z" fill="#FFF8DE"/>
<path d="M363.414 51.5761C361.025 51.5761 358.891 51.1281 357.014 50.2321C355.179 49.3361 353.729 48.0988 352.662 46.5201C351.638 44.9414 351.126 43.1281 351.126 41.0801C351.126 37.8374 352.342 35.3414 354.774 33.5921C357.249 31.8001 360.683 30.9041 365.078 30.9041C367.723 30.9041 370.283 31.2241 372.758 31.8641V30.2001C372.758 28.4934 372.203 27.2348 371.094 26.4241C370.027 25.5708 368.427 25.1441 366.294 25.1441C364.971 25.1441 363.478 25.3574 361.814 25.7841C360.193 26.2108 358.273 26.8934 356.054 27.8321L352.342 20.2161C355.115 18.9788 357.782 18.0614 360.342 17.4641C362.945 16.8241 365.547 16.5041 368.15 16.5041C372.843 16.5041 376.491 17.6348 379.094 19.8961C381.697 22.1148 382.998 25.2508 382.998 29.3041V51.0001H372.758V48.9521C371.393 49.8908 369.942 50.5734 368.406 51.0001C366.913 51.3841 365.249 51.5761 363.414 51.5761ZM360.982 40.8881C360.982 41.9548 361.451 42.7868 362.39 43.3841C363.329 43.9814 364.63 44.2801 366.294 44.2801C367.531 44.2801 368.683 44.1521 369.75 43.8961C370.859 43.6401 371.862 43.2348 372.758 42.6801V38.3281C371.777 38.0721 370.774 37.8801 369.75 37.7521C368.726 37.6241 367.681 37.5601 366.614 37.5601C364.822 37.5601 363.435 37.8588 362.454 38.4561C361.473 39.0108 360.982 39.8214 360.982 40.8881Z" fill="#FFF8DE"/>
<path d="M395.561 51.0001V17.1441H405.929V20.5361C407.038 19.1708 408.339 18.1468 409.833 17.4641C411.326 16.7388 412.99 16.3761 414.825 16.3761C416.659 16.4188 417.961 16.6961 418.729 17.2081V26.2321C418.046 25.8908 417.278 25.6348 416.424 25.4641C415.571 25.2934 414.697 25.2081 413.801 25.2081C412.179 25.2081 410.665 25.5921 409.257 26.3601C407.891 27.0854 406.782 28.1308 405.929 29.4961V51.0001H395.561Z" fill="#FFF8DE"/>
<path d="M445.032 51.6401C441.661 51.6401 438.611 50.8721 435.88 49.3361C433.192 47.8001 431.059 45.7094 429.48 43.0641C427.901 40.3761 427.112 37.3894 427.112 34.1041C427.112 30.7761 427.901 27.7894 429.48 25.1441C431.059 22.4988 433.192 20.4081 435.88 18.8721C438.611 17.2934 441.661 16.5041 445.032 16.5041C447.805 16.5041 450.451 17.0588 452.968 18.1681C455.485 19.2348 457.619 20.7708 459.368 22.7761L453.032 29.3681C451.837 28.0028 450.621 27.0214 449.384 26.4241C448.147 25.7841 446.781 25.4641 445.288 25.4641C443.795 25.4641 442.451 25.8481 441.256 26.6161C440.061 27.3414 439.123 28.3654 438.44 29.6881C437.757 30.9681 437.416 32.4401 437.416 34.1041C437.416 35.7254 437.757 37.1974 438.44 38.5201C439.165 39.8001 440.147 40.8241 441.384 41.5921C442.621 42.3174 444.008 42.6801 445.544 42.6801C446.952 42.6801 448.253 42.3814 449.448 41.7841C450.643 41.1868 451.795 40.2694 452.904 39.0321L459.048 45.4321C457.341 47.3948 455.251 48.9308 452.776 50.0401C450.301 51.1068 447.72 51.6401 445.032 51.6401Z" fill="#FFF8DE"/>
<path d="M485.507 51.6401C482.051 51.6401 478.915 50.8721 476.099 49.3361C473.325 47.7574 471.128 45.6454 469.507 43.0001C467.885 40.3548 467.074 37.3894 467.074 34.1041C467.074 30.8188 467.843 27.8534 469.379 25.2081C470.957 22.5628 473.091 20.4721 475.779 18.9361C478.467 17.3574 481.453 16.5681 484.738 16.5681C488.066 16.5681 491.01 17.3788 493.57 19.0001C496.13 20.5788 498.136 22.7548 499.587 25.5281C501.08 28.3014 501.827 31.4801 501.827 35.0641V37.6241H477.698C478.168 38.6908 478.787 39.6294 479.555 40.4401C480.365 41.2508 481.325 41.8908 482.435 42.3601C483.544 42.7868 484.738 43.0001 486.018 43.0001C487.426 43.0001 488.706 42.7868 489.858 42.3601C491.01 41.8908 491.992 41.2508 492.802 40.4401L499.651 46.5201C497.517 48.3121 495.32 49.6134 493.059 50.4241C490.84 51.2348 488.323 51.6401 485.507 51.6401ZM477.507 30.3921H491.651C491.309 29.2828 490.776 28.3441 490.051 27.5761C489.368 26.7654 488.557 26.1468 487.618 25.7201C486.68 25.2508 485.656 25.0161 484.547 25.0161C483.395 25.0161 482.349 25.2294 481.41 25.6561C480.472 26.0828 479.661 26.7014 478.979 27.5121C478.339 28.2801 477.848 29.2401 477.507 30.3921Z" fill="#FFF8DE"/>
<path d="M513.073 51.0001V6.2001L523.441 4.6001V51.0001H513.073Z" fill="#FFF8DE"/>
<path d="M553.055 51.6401C549.599 51.6401 546.484 50.8721 543.711 49.3361C540.938 47.7574 538.74 45.6454 537.119 43.0001C535.498 40.3548 534.687 37.3894 534.687 34.1041C534.687 30.8188 535.498 27.8534 537.119 25.2081C538.74 22.5201 540.938 20.4081 543.711 18.8721C546.484 17.2934 549.599 16.5041 553.055 16.5041C556.511 16.5041 559.626 17.2934 562.399 18.8721C565.172 20.4081 567.37 22.5201 568.991 25.2081C570.612 27.8534 571.423 30.8188 571.423 34.1041C571.423 37.3894 570.612 40.3548 568.991 43.0001C567.37 45.6454 565.172 47.7574 562.399 49.3361C559.626 50.8721 556.511 51.6401 553.055 51.6401ZM553.055 42.6801C554.634 42.6801 556.042 42.2961 557.279 41.5281C558.516 40.7601 559.498 39.7361 560.223 38.4561C560.948 37.1334 561.311 35.6828 561.311 34.1041C561.311 32.4828 560.948 31.0321 560.223 29.7521C559.498 28.4294 558.495 27.3841 557.215 26.6161C555.978 25.8481 554.591 25.4641 553.055 25.4641C551.519 25.4641 550.111 25.8481 548.831 26.6161C547.594 27.3841 546.612 28.4294 545.887 29.7521C545.162 31.0321 544.799 32.4828 544.799 34.1041C544.799 35.6828 545.162 37.1334 545.887 38.4561C546.612 39.7361 547.594 40.7601 548.831 41.5281C550.111 42.2961 551.519 42.6801 553.055 42.6801Z" fill="#FFF8DE"/>
<path d="M596.062 51.6401C592.862 51.6401 589.896 51.2774 587.166 50.5521C584.435 49.7841 582.067 48.6748 580.062 47.2241L584.99 40.2481C587.123 41.5281 589.064 42.4668 590.814 43.0641C592.563 43.6188 594.291 43.8961 595.997 43.8961C597.704 43.8961 599.048 43.6614 600.03 43.1921C601.054 42.6801 601.565 42.0188 601.565 41.2081C601.565 40.5681 601.288 40.0561 600.734 39.6721C600.179 39.2454 599.304 38.9468 598.109 38.7761L591.39 37.7521C588.019 37.2401 585.438 36.1308 583.646 34.4241C581.896 32.6748 581.022 30.4134 581.022 27.6401C581.022 25.3361 581.598 23.3734 582.75 21.7521C583.944 20.0881 585.63 18.8294 587.806 17.9761C589.982 17.0801 592.584 16.6321 595.614 16.6321C598.088 16.6321 600.542 16.9734 602.974 17.6561C605.406 18.3388 607.667 19.3628 609.758 20.7281L604.83 27.3841C602.995 26.3174 601.246 25.5494 599.582 25.0801C597.918 24.5681 596.254 24.3121 594.59 24.3121C593.267 24.3121 592.2 24.5468 591.39 25.0161C590.579 25.4428 590.174 26.0188 590.174 26.7441C590.174 27.4268 590.472 27.9814 591.07 28.4081C591.667 28.7921 592.691 29.0908 594.142 29.3041L600.862 30.3281C604.19 30.7974 606.75 31.9068 608.542 33.6561C610.376 35.3628 611.294 37.5388 611.294 40.1841C611.294 42.4028 610.632 44.3654 609.31 46.0721C607.987 47.7788 606.174 49.1441 603.87 50.1681C601.608 51.1494 599.006 51.6401 596.062 51.6401Z" fill="#FFF8DE"/>
</svg>
