<svg width="176" height="48" viewBox="0 0 176 48" fill="none" xmlns="http://www.w3.org/2000/svg">
<path d="M156.108 4.97301V8.82858H149.761V28.7888H144.985V8.82858H138.638V4.97301H156.108Z" fill="#FF5C00"/>
<path d="M163.551 29.0959C161.731 29.0959 160.093 28.6978 158.638 27.9017C157.182 27.0828 156.033 25.9341 155.192 24.4556C154.373 22.977 153.963 21.271 153.963 19.3376C153.963 17.4041 154.384 15.6981 155.226 14.2195C156.09 12.741 157.262 11.6037 158.74 10.8075C160.219 9.98866 161.868 9.57922 163.687 9.57922C165.507 9.57922 167.156 9.98866 168.635 10.8075C170.113 11.6037 171.273 12.741 172.115 14.2195C172.979 15.6981 173.412 17.4041 173.412 19.3376C173.412 21.271 172.968 22.977 172.081 24.4556C171.217 25.9341 170.034 27.0828 168.532 27.9017C167.054 28.6978 165.393 29.0959 163.551 29.0959ZM163.551 24.9332C164.415 24.9332 165.223 24.7285 165.973 24.3191C166.747 23.8869 167.361 23.25 167.816 22.4084C168.271 21.5667 168.498 20.5431 168.498 19.3376C168.498 17.5406 168.021 16.1644 167.065 15.209C166.133 14.2309 164.984 13.7419 163.619 13.7419C162.254 13.7419 161.106 14.2309 160.173 15.209C159.263 16.1644 158.808 17.5406 158.808 19.3376C158.808 21.1345 159.252 22.5221 160.139 23.5002C161.049 24.4556 162.186 24.9332 163.551 24.9332Z" fill="#FF5C00"/>
<path d="M57.4639 4.84302V28.6588H52.6871V13.1683L46.3066 28.6588H42.6899L36.2753 13.1683V28.6588H31.4985V4.84302H36.9236L44.4983 22.5513L52.0729 4.84302H57.4639Z" fill="white"/>
<path d="M69.5565 28.9659C67.7368 28.9659 66.099 28.5678 64.6432 27.7717C63.1874 26.9528 62.0387 25.8041 61.1971 24.3256C60.3782 22.847 59.9688 21.141 59.9688 19.2076C59.9688 17.2741 60.3896 15.5681 61.2312 14.0895C62.0956 12.611 63.267 11.4737 64.7456 10.6775C66.2241 9.85866 67.8733 9.44922 69.693 9.44922C71.5127 9.44922 73.1619 9.85866 74.6404 10.6775C76.1189 11.4737 77.279 12.611 78.1206 14.0895C78.985 15.5681 79.4172 17.2741 79.4172 19.2076C79.4172 21.141 78.9736 22.847 78.0865 24.3256C77.2221 25.8041 76.0393 26.9528 74.538 27.7717C73.0595 28.5678 71.399 28.9659 69.5565 28.9659ZM69.5565 24.8032C70.4209 24.8032 71.2284 24.5985 71.979 24.1891C72.7524 23.7569 73.3666 23.12 73.8215 22.2784C74.2764 21.4367 74.5039 20.4131 74.5039 19.2076C74.5039 17.4106 74.0262 16.0344 73.0709 15.079C72.1383 14.1009 70.9895 13.6119 69.6247 13.6119C68.2599 13.6119 67.1112 14.1009 66.1786 15.079C65.2688 16.0344 64.8138 17.4106 64.8138 19.2076C64.8138 21.0045 65.2574 22.3921 66.1445 23.3702C67.0544 24.3256 68.1917 24.8032 69.5565 24.8032Z" fill="white"/>
<path d="M89.7793 24.2573L94.5561 9.7563H99.64L92.6454 28.6588H86.845L79.8845 9.7563H85.0025L89.7793 24.2573Z" fill="white"/>
<path d="M103.722 7.50438C102.88 7.50438 102.175 7.24279 101.606 6.71962C101.061 6.1737 100.788 5.50267 100.788 4.70654C100.788 3.9104 101.061 3.25075 101.606 2.72757C102.175 2.18165 102.88 1.90869 103.722 1.90869C104.563 1.90869 105.257 2.18165 105.803 2.72757C106.372 3.25075 106.656 3.9104 106.656 4.70654C106.656 5.50267 106.372 6.1737 105.803 6.71962C105.257 7.24279 104.563 7.50438 103.722 7.50438ZM106.076 9.7563V28.6588H101.299V9.7563H106.076Z" fill="white"/>
<path d="M120.247 9.48334C122.499 9.48334 124.319 10.1999 125.706 11.6329C127.094 13.0432 127.787 15.0222 127.787 17.5698V28.6588H123.011V18.2181C123.011 16.7168 122.635 15.5681 121.885 14.7719C121.134 13.9531 120.11 13.5436 118.814 13.5436C117.495 13.5436 116.448 13.9531 115.675 14.7719C114.924 15.5681 114.549 16.7168 114.549 18.2181V28.6588H109.772V9.7563H114.549V12.1106C115.186 11.2917 115.993 10.6548 116.971 10.1999C117.972 9.72218 119.064 9.48334 120.247 9.48334Z" fill="white"/>
<path d="M132.262 4.84302H137.277L133.592 13.4413H130.317L132.262 4.84302Z" fill="white"/>
<path d="M37.5292 42.6918L34.902 38.0515H33.776V42.6918H31.3876V30.7839H35.8574C36.7786 30.7839 37.5634 30.9488 38.2116 31.2787C38.8599 31.5971 39.3433 32.035 39.6617 32.5923C39.9916 33.1382 40.1565 33.7524 40.1565 34.4348C40.1565 35.2195 39.929 35.9304 39.4741 36.5673C39.0192 37.1928 38.3424 37.625 37.4439 37.8638L40.293 42.6918H37.5292ZM33.776 36.2602H35.7721C36.4203 36.2602 36.9037 36.1067 37.2222 35.7996C37.5406 35.4811 37.6998 35.0432 37.6998 34.486C37.6998 33.94 37.5406 33.5192 37.2222 33.2235C36.9037 32.9164 36.4203 32.7629 35.7721 32.7629H33.776V36.2602Z" fill="white"/>
<path d="M51.6144 37.7615C51.6144 38.1027 51.5917 38.4098 51.5462 38.6827H44.6369C44.6937 39.3651 44.9326 39.8997 45.3534 40.2864C45.7742 40.6731 46.2917 40.8664 46.9059 40.8664C47.793 40.8664 48.4242 40.4854 48.7995 39.7234H51.3756C51.1026 40.6332 50.5794 41.3839 49.8061 41.9753C49.0327 42.5553 48.083 42.8454 46.957 42.8454C46.0472 42.8454 45.2283 42.6463 44.5004 42.2483C43.7839 41.8388 43.2209 41.2645 42.8115 40.5252C42.4134 39.7859 42.2144 38.9329 42.2144 37.9662C42.2144 36.9881 42.4134 36.1294 42.8115 35.3901C43.2095 34.6509 43.7668 34.0822 44.4833 33.6841C45.1999 33.2861 46.0244 33.087 46.957 33.087C47.8555 33.087 48.6574 33.2804 49.3625 33.6671C50.079 34.0538 50.6306 34.6054 51.0173 35.3219C51.4154 36.027 51.6144 36.8402 51.6144 37.7615ZM49.1407 37.0791C49.1293 36.4649 48.9076 35.9759 48.4754 35.6119C48.0432 35.2366 47.5143 35.0489 46.8888 35.0489C46.2974 35.0489 45.797 35.2309 45.3875 35.5949C44.9894 35.9474 44.7449 36.4422 44.6539 37.0791H49.1407Z" fill="white"/>
<path d="M53.2554 37.9321C53.2554 36.9767 53.443 36.1294 53.8184 35.3901C54.2051 34.6509 54.7225 34.0822 55.3708 33.6841C56.0305 33.2861 56.7641 33.087 57.5716 33.087C58.2767 33.087 58.8909 33.2292 59.4141 33.5135C59.9486 33.7979 60.3751 34.1561 60.6936 34.5883V33.2406H63.099V42.6918H60.6936V41.31C60.3865 41.7535 59.96 42.1232 59.4141 42.4189C58.8795 42.7032 58.2597 42.8454 57.5545 42.8454C56.7584 42.8454 56.0305 42.6406 55.3708 42.2312C54.7225 41.8218 54.2051 41.2474 53.8184 40.5081C53.443 39.7575 53.2554 38.8988 53.2554 37.9321ZM60.6936 37.9662C60.6936 37.3862 60.5798 36.8914 60.3524 36.482C60.1249 36.0612 59.8178 35.7427 59.4311 35.5266C59.0444 35.2991 58.6293 35.1854 58.1857 35.1854C57.7422 35.1854 57.3327 35.2935 56.9574 35.5096C56.5821 35.7256 56.275 36.0441 56.0362 36.4649C55.8087 36.8744 55.695 37.3634 55.695 37.9321C55.695 38.5007 55.8087 39.0012 56.0362 39.4334C56.275 39.8542 56.5821 40.1783 56.9574 40.4058C57.3441 40.6332 57.7535 40.747 58.1857 40.747C58.6293 40.747 59.0444 40.6389 59.4311 40.4228C59.8178 40.1954 60.1249 39.8769 60.3524 39.4675C60.5798 39.0467 60.6936 38.5462 60.6936 37.9662Z" fill="white"/>
<path d="M68.3319 30.0674V42.6918H65.9435V30.0674H68.3319Z" fill="white"/>
<path d="M73.9842 35.2025V39.7746C73.9842 40.093 74.0582 40.3262 74.206 40.474C74.3653 40.6105 74.6268 40.6787 74.9908 40.6787H76.0997V42.6918H74.5984C72.5853 42.6918 71.5788 41.7137 71.5788 39.7575V35.2025H70.4528V33.2406H71.5788V30.9033H73.9842V33.2406H76.0997V35.2025H73.9842Z" fill="white"/>
<path d="M87.3712 33.2406L81.5196 47.1616H78.9776L81.0248 42.453L77.2375 33.2406H79.9159L82.3555 39.8428L84.8292 33.2406H87.3712Z" fill="white"/>
<path d="M97.8588 42.8112C97.0286 42.8112 96.2779 42.6691 95.6069 42.3847C94.9472 42.1004 94.4241 41.691 94.0374 41.1564C93.6507 40.6219 93.4516 39.9907 93.4403 39.2628H95.9993C96.0334 39.7518 96.204 40.1385 96.5111 40.4228C96.8295 40.7072 97.2617 40.8493 97.8076 40.8493C98.3649 40.8493 98.8028 40.7185 99.1213 40.457C99.4397 40.184 99.5989 39.8314 99.5989 39.3992C99.5989 39.0467 99.4909 38.7566 99.2748 38.5292C99.0587 38.3017 98.7857 38.1254 98.4559 38.0003C98.1375 37.8638 97.6939 37.716 97.1252 37.5568C96.3518 37.3293 95.7206 37.1075 95.2316 36.8914C94.7539 36.6639 94.3388 36.3284 93.9862 35.8849C93.645 35.4299 93.4744 34.8272 93.4744 34.0765C93.4744 33.3714 93.6507 32.7572 94.0033 32.234C94.3558 31.7109 94.8506 31.3128 95.4875 31.0398C96.1244 30.7555 96.8523 30.6133 97.6712 30.6133C98.8995 30.6133 99.8946 30.9147 100.657 31.5175C101.43 32.1089 101.857 32.9392 101.936 34.0083H99.3089C99.2862 33.5988 99.1099 33.2633 98.7801 33.0017C98.4616 32.7288 98.0351 32.5923 97.5006 32.5923C97.0343 32.5923 96.6589 32.7117 96.3746 32.9506C96.1016 33.1894 95.9652 33.5363 95.9652 33.9912C95.9652 34.3097 96.0675 34.5769 96.2722 34.793C96.4883 34.9978 96.7499 35.1684 97.057 35.3048C97.3755 35.4299 97.819 35.5778 98.3877 35.7484C99.1611 35.9759 99.7923 36.2033 100.281 36.4308C100.77 36.6583 101.191 36.9995 101.544 37.4544C101.896 37.9093 102.073 38.5064 102.073 39.2457C102.073 39.8826 101.908 40.474 101.578 41.0199C101.248 41.5659 100.765 42.0037 100.128 42.3336C99.4909 42.652 98.7346 42.8112 97.8588 42.8112Z" fill="white"/>
<path d="M108.852 42.8454C107.942 42.8454 107.123 42.6463 106.395 42.2483C105.667 41.8388 105.093 41.2645 104.672 40.5252C104.263 39.7859 104.058 38.9329 104.058 37.9662C104.058 36.9995 104.268 36.1465 104.689 35.4072C105.121 34.6679 105.707 34.0993 106.446 33.7012C107.186 33.2918 108.01 33.087 108.92 33.087C109.83 33.087 110.655 33.2918 111.394 33.7012C112.133 34.0993 112.713 34.6679 113.134 35.4072C113.566 36.1465 113.782 36.9995 113.782 37.9662C113.782 38.9329 113.56 39.7859 113.117 40.5252C112.685 41.2645 112.093 41.8388 111.343 42.2483C110.603 42.6463 109.773 42.8454 108.852 42.8454ZM108.852 40.764C109.284 40.764 109.688 40.6617 110.063 40.457C110.45 40.2409 110.757 39.9224 110.984 39.5016C111.212 39.0808 111.326 38.569 111.326 37.9662C111.326 37.0677 111.087 36.3796 110.609 35.9019C110.143 35.4129 109.568 35.1684 108.886 35.1684C108.204 35.1684 107.629 35.4129 107.163 35.9019C106.708 36.3796 106.481 37.0677 106.481 37.9662C106.481 38.8647 106.702 39.5585 107.146 40.0475C107.601 40.5252 108.169 40.764 108.852 40.764Z" fill="white"/>
<path d="M118.434 30.0674V42.6918H116.046V30.0674H118.434Z" fill="white"/>
<path d="M130.228 33.2406V42.6918H127.823V41.4976C127.516 41.9071 127.112 42.2312 126.612 42.47C126.123 42.6975 125.588 42.8112 125.008 42.8112C124.269 42.8112 123.615 42.6577 123.046 42.3506C122.477 42.0322 122.028 41.5715 121.698 40.9688C121.38 40.3546 121.221 39.6267 121.221 38.7851V33.2406H123.609V38.4439C123.609 39.1945 123.797 39.7746 124.172 40.184C124.547 40.5821 125.059 40.7811 125.707 40.7811C126.367 40.7811 126.885 40.5821 127.26 40.184C127.635 39.7746 127.823 39.1945 127.823 38.4439V33.2406H130.228Z" fill="white"/>
<path d="M135.877 35.2025V39.7746C135.877 40.093 135.951 40.3262 136.099 40.474C136.258 40.6105 136.52 40.6787 136.884 40.6787H137.993V42.6918H136.492C134.479 42.6918 133.472 41.7137 133.472 39.7575V35.2025H132.346V33.2406H133.472V30.9033H135.877V33.2406H137.993V35.2025H135.877Z" fill="white"/>
<path d="M141.434 32.1146C141.013 32.1146 140.66 31.9838 140.376 31.7222C140.103 31.4493 139.967 31.1138 139.967 30.7157C139.967 30.3176 140.103 29.9878 140.376 29.7262C140.66 29.4532 141.013 29.3168 141.434 29.3168C141.855 29.3168 142.202 29.4532 142.475 29.7262C142.759 29.9878 142.901 30.3176 142.901 30.7157C142.901 31.1138 142.759 31.4493 142.475 31.7222C142.202 31.9838 141.855 32.1146 141.434 32.1146ZM142.611 33.2406V42.6918H140.223V33.2406H142.611Z" fill="white"/>
<path d="M149.679 42.8454C148.769 42.8454 147.951 42.6463 147.223 42.2483C146.495 41.8388 145.92 41.2645 145.5 40.5252C145.09 39.7859 144.885 38.9329 144.885 37.9662C144.885 36.9995 145.096 36.1465 145.517 35.4072C145.949 34.6679 146.535 34.0993 147.274 33.7012C148.013 33.2918 148.838 33.087 149.748 33.087C150.657 33.087 151.482 33.2918 152.221 33.7012C152.961 34.0993 153.541 34.6679 153.961 35.4072C154.394 36.1465 154.61 36.9995 154.61 37.9662C154.61 38.9329 154.388 39.7859 153.944 40.5252C153.512 41.2645 152.921 41.8388 152.17 42.2483C151.431 42.6463 150.601 42.8454 149.679 42.8454ZM149.679 40.764C150.111 40.764 150.515 40.6617 150.891 40.457C151.277 40.2409 151.584 39.9224 151.812 39.5016C152.039 39.0808 152.153 38.569 152.153 37.9662C152.153 37.0677 151.914 36.3796 151.436 35.9019C150.97 35.4129 150.396 35.1684 149.713 35.1684C149.031 35.1684 148.457 35.4129 147.99 35.9019C147.535 36.3796 147.308 37.0677 147.308 37.9662C147.308 38.8647 147.53 39.5585 147.973 40.0475C148.428 40.5252 148.997 40.764 149.679 40.764Z" fill="white"/>
<path d="M162.111 33.1041C163.237 33.1041 164.147 33.4624 164.84 34.1789C165.534 34.884 165.881 35.8735 165.881 37.1473V42.6918H163.493V37.4715C163.493 36.7208 163.305 36.1465 162.93 35.7484C162.554 35.339 162.043 35.1342 161.394 35.1342C160.735 35.1342 160.212 35.339 159.825 35.7484C159.449 36.1465 159.262 36.7208 159.262 37.4715V42.6918H156.873V33.2406H159.262V34.4177C159.58 34.0083 159.984 33.6898 160.473 33.4624C160.974 33.2235 161.519 33.1041 162.111 33.1041Z" fill="white"/>
<path d="M172.281 42.8454C171.508 42.8454 170.814 42.7089 170.2 42.4359C169.585 42.1516 169.096 41.7706 168.732 41.2929C168.38 40.8152 168.187 40.2864 168.152 39.7063H170.558C170.603 40.0703 170.78 40.3717 171.087 40.6105C171.405 40.8493 171.798 40.9688 172.264 40.9688C172.719 40.9688 173.071 40.8778 173.322 40.6958C173.583 40.5138 173.714 40.2807 173.714 39.9963C173.714 39.6893 173.555 39.4618 173.236 39.3139C172.929 39.1547 172.434 38.9841 171.752 38.8021C171.047 38.6315 170.467 38.4553 170.012 38.2733C169.568 38.0913 169.182 37.8127 168.852 37.4373C168.533 37.062 168.374 36.5559 168.374 35.919C168.374 35.3958 168.522 34.9181 168.818 34.486C169.125 34.0538 169.557 33.7126 170.114 33.4624C170.683 33.2121 171.348 33.087 172.11 33.087C173.236 33.087 174.135 33.3714 174.806 33.94C175.477 34.4973 175.846 35.2537 175.915 36.209H173.629C173.595 35.8337 173.435 35.538 173.151 35.3219C172.878 35.0944 172.508 34.9807 172.042 34.9807C171.61 34.9807 171.274 35.0603 171.036 35.2195C170.808 35.3788 170.694 35.6005 170.694 35.8849C170.694 36.2033 170.854 36.4479 171.172 36.6185C171.49 36.7777 171.985 36.9426 172.656 37.1132C173.339 37.2838 173.902 37.4601 174.345 37.6421C174.789 37.824 175.17 38.1084 175.488 38.4951C175.818 38.8704 175.989 39.3708 176 39.9963C176 40.5423 175.846 41.0313 175.539 41.4635C175.244 41.8957 174.811 42.2369 174.243 42.4871C173.686 42.7259 173.032 42.8454 172.281 42.8454Z" fill="white"/>
<path d="M153.667 10.3548L157.094 6.84184L153.54 3.19876" stroke="#FF5C00" stroke-width="1.77709"/>
<path d="M13.1505 14.1723L0.710878 21.325V42.6501H13.1505V14.1723Z" fill="#FF5C00"/>
<path d="M29.1442 42.6501H16.7046V30.5659H29.1442V42.6501Z" fill="#FF5C00"/>
<path d="M16.7046 12.1286V28.7888H29.1442V4.97584L16.7046 12.1286Z" fill="#FF5C00"/>
<path d="M3.46421e-05 17.06L29.8551 0V1.77709L0 18.8371L3.46421e-05 17.06Z" fill="#FF5C00"/>
</svg>
