<svg width="40" height="42" viewBox="0 0 40 42" fill="none" xmlns="http://www.w3.org/2000/svg">
<rect x="-0.000244141" y="1.00003" width="40" height="40" rx="4" fill="#100B00"/>
<path d="M11.6274 7.959L16.6172 7.95895L5.78163 35.0748L0.791884 35.0748L11.6274 7.959Z" fill="#6F5000"/>
<path d="M15.2184 5.82326L20.2082 5.8232L9.37257 32.9391L4.38283 32.9391L15.2184 5.82326Z" fill="#B38E0E"/>
<path d="M13.1438 32.224C11.1171 32.224 9.58109 31.776 8.53576 30.88C7.51176 29.9627 6.99976 28.6187 6.99976 26.848V19.392H3.57576V15.072H6.99976V10.72L12.1838 9.60003V15.072H16.9198V19.392H12.1838V25.824C12.1838 26.5707 12.3438 27.104 12.6638 27.424C13.0051 27.7227 13.5918 27.872 14.4238 27.872C14.8504 27.872 15.2344 27.8507 15.5758 27.808C15.9384 27.744 16.3331 27.648 16.7598 27.52V31.712C16.2904 31.8614 15.6931 31.9787 14.9678 32.064C14.2424 32.1707 13.6344 32.224 13.1438 32.224ZM18.9435 32V9.60003L24.1275 8.80003V16.256C25.4502 15.3174 26.9435 14.848 28.6075 14.848C30.2288 14.848 31.6902 15.2427 32.9915 16.032C34.2928 16.8 35.3275 17.8454 36.0955 19.168C36.8635 20.4694 37.2475 21.9307 37.2475 23.552C37.2475 25.1734 36.8528 26.6454 36.0635 27.968C35.2955 29.2694 34.2395 30.304 32.8955 31.072C31.5728 31.84 30.0902 32.224 28.4475 32.224C27.6582 32.224 26.8902 32.128 26.1435 31.936C25.3968 31.7227 24.7035 31.424 24.0635 31.04V32H18.9435ZM27.7115 27.84C28.5648 27.84 29.3222 27.6587 29.9835 27.296C30.6448 26.912 31.1675 26.4 31.5515 25.76C31.9568 25.0987 32.1595 24.3627 32.1595 23.552C32.1595 22.7414 31.9568 22.016 31.5515 21.376C31.1675 20.7147 30.6342 20.2027 29.9515 19.84C29.2902 19.456 28.5435 19.264 27.7115 19.264C26.9862 19.264 26.3248 19.3814 25.7275 19.616C25.1302 19.8294 24.5968 20.16 24.1275 20.608V26.528C24.5755 26.9334 25.1088 27.2534 25.7275 27.488C26.3462 27.7227 27.0075 27.84 27.7115 27.84Z" fill="#FFF8DE"/>
</svg>
