<svg width="40" height="40" viewBox="0 0 40 40" fill="none" xmlns="http://www.w3.org/2000/svg">
<rect width="40" height="40" rx="4" fill="#FFF8DE"/>
<path d="M9.00021 11.0645L12.8625 11.0644L4.47526 32.0535L0.612941 32.0535L9.00021 11.0645Z" fill="#845F00"/>
<path d="M11.7798 9.4113L15.6421 9.41125L7.2548 30.4003L3.39248 30.4003L11.7798 9.4113Z" fill="#D4B032"/>
<path d="M20.608 29.168C19.088 29.168 17.936 28.832 17.152 28.16C16.384 27.472 16 26.464 16 25.136V19.544H13.432V16.304H16V13.04L19.888 12.2V16.304H23.44V19.544H19.888V24.368C19.888 24.928 20.008 25.328 20.248 25.568C20.504 25.792 20.944 25.904 21.568 25.904C21.888 25.904 22.176 25.888 22.432 25.856C22.704 25.808 23 25.736 23.32 25.64V28.784C22.968 28.896 22.52 28.984 21.976 29.048C21.432 29.128 20.976 29.168 20.608 29.168ZM24.9578 29V12.2L28.8458 11.6V17.192C29.8378 16.488 30.9578 16.136 32.2058 16.136C33.4218 16.136 34.5178 16.432 35.4938 17.024C36.4698 17.6 37.2458 18.384 37.8218 19.376C38.3978 20.352 38.6858 21.448 38.6858 22.664C38.6858 23.88 38.3898 24.984 37.7978 25.976C37.2218 26.952 36.4298 27.728 35.4218 28.304C34.4298 28.88 33.3178 29.168 32.0858 29.168C31.4938 29.168 30.9178 29.096 30.3578 28.952C29.7978 28.792 29.2778 28.568 28.7978 28.28V29H24.9578ZM31.5338 25.88C32.1738 25.88 32.7418 25.744 33.2378 25.472C33.7338 25.184 34.1258 24.8 34.4138 24.32C34.7178 23.824 34.8698 23.272 34.8698 22.664C34.8698 22.056 34.7178 21.512 34.4138 21.032C34.1258 20.536 33.7258 20.152 33.2138 19.88C32.7178 19.592 32.1578 19.448 31.5338 19.448C30.9898 19.448 30.4938 19.536 30.0458 19.712C29.5978 19.872 29.1978 20.12 28.8458 20.456V24.896C29.1818 25.2 29.5818 25.44 30.0458 25.616C30.5098 25.792 31.0058 25.88 31.5338 25.88Z" fill="#D4B032"/>
</svg>
