<svg width="130" height="130" viewBox="0 0 130 130" fill="none" xmlns="http://www.w3.org/2000/svg">
<path d="M13.5939 109.607L11.8659 103.259H13.7019L14.6379 106.991L15.7779 103.259H17.3859L18.5259 107.003L19.4499 103.259H21.2619L19.5219 109.607H17.6619L16.5579 105.935L15.4659 109.607H13.5939ZM26.1947 109.727C25.5467 109.727 24.9627 109.583 24.4427 109.295C23.9227 108.999 23.5107 108.603 23.2067 108.107C22.9027 107.611 22.7507 107.055 22.7507 106.439C22.7507 105.823 22.9027 105.267 23.2067 104.771C23.5107 104.267 23.9227 103.871 24.4427 103.583C24.9627 103.287 25.5467 103.139 26.1947 103.139C26.8427 103.139 27.4267 103.287 27.9467 103.583C28.4667 103.871 28.8787 104.267 29.1827 104.771C29.4867 105.267 29.6387 105.823 29.6387 106.439C29.6387 107.055 29.4867 107.611 29.1827 108.107C28.8787 108.603 28.4667 108.999 27.9467 109.295C27.4267 109.583 26.8427 109.727 26.1947 109.727ZM26.1947 108.047C26.4907 108.047 26.7547 107.975 26.9867 107.831C27.2187 107.687 27.4027 107.495 27.5387 107.255C27.6747 107.007 27.7427 106.735 27.7427 106.439C27.7427 106.135 27.6747 105.863 27.5387 105.623C27.4027 105.375 27.2147 105.179 26.9747 105.035C26.7427 104.891 26.4827 104.819 26.1947 104.819C25.9067 104.819 25.6427 104.891 25.4027 105.035C25.1707 105.179 24.9867 105.375 24.8507 105.623C24.7147 105.863 24.6467 106.135 24.6467 106.439C24.6467 106.735 24.7147 107.007 24.8507 107.255C24.9867 107.495 25.1707 107.687 25.4027 107.831C25.6427 107.975 25.9067 108.047 26.1947 108.047ZM31.7504 109.607V103.259H33.6944V103.895C33.9024 103.639 34.1464 103.447 34.4264 103.319C34.7064 103.183 35.0184 103.115 35.3624 103.115C35.7064 103.123 35.9504 103.175 36.0944 103.271V104.963C35.9664 104.899 35.8224 104.851 35.6624 104.819C35.5024 104.787 35.3384 104.771 35.1704 104.771C34.8664 104.771 34.5824 104.843 34.3184 104.987C34.0624 105.123 33.8544 105.319 33.6944 105.575V109.607H31.7504ZM38.1301 109.607V101.207L40.0741 100.907V105.851L42.6061 103.259H44.7781L41.9581 106.127L44.9701 109.607H42.5101L40.0741 106.763V109.607H38.1301ZM46.4902 109.607V103.259H48.4342V109.607H46.4902ZM47.4622 102.671C47.1662 102.671 46.9142 102.567 46.7062 102.359C46.4982 102.151 46.3942 101.899 46.3942 101.603C46.3942 101.307 46.4982 101.055 46.7062 100.847C46.9142 100.639 47.1662 100.535 47.4622 100.535C47.7582 100.535 48.0102 100.639 48.2182 100.847C48.4262 101.055 48.5302 101.307 48.5302 101.603C48.5302 101.899 48.4262 102.151 48.2182 102.359C48.0102 102.567 47.7582 102.671 47.4622 102.671ZM50.8309 109.607V103.259H52.7749V103.691C53.2549 103.323 53.8229 103.139 54.4789 103.139C54.9749 103.139 55.4109 103.247 55.7869 103.463C56.1709 103.679 56.4709 103.979 56.6869 104.363C56.9029 104.747 57.0109 105.191 57.0109 105.695V109.607H55.0669V105.959C55.0669 105.607 54.9629 105.327 54.7549 105.119C54.5469 104.911 54.2669 104.807 53.9149 104.807C53.6669 104.807 53.4469 104.851 53.2549 104.939C53.0709 105.027 52.9109 105.151 52.7749 105.311V109.607H50.8309ZM62.6068 112.175C62.0948 112.175 61.6068 112.127 61.1428 112.031C60.6868 111.935 60.2708 111.799 59.8948 111.623L60.5428 110.111C60.8868 110.271 61.2268 110.391 61.5628 110.471C61.8988 110.551 62.2348 110.591 62.5708 110.591C63.0268 110.591 63.3708 110.499 63.6028 110.315C63.8348 110.131 63.9508 109.855 63.9508 109.487V109.127C63.4548 109.463 62.9068 109.631 62.3068 109.631C61.7068 109.631 61.1628 109.487 60.6748 109.199C60.1868 108.911 59.7988 108.523 59.5108 108.035C59.2228 107.539 59.0788 106.991 59.0788 106.391C59.0788 105.791 59.2228 105.247 59.5108 104.759C59.8068 104.271 60.2028 103.887 60.6988 103.607C61.2028 103.319 61.7628 103.175 62.3788 103.175C62.6668 103.175 62.9468 103.211 63.2188 103.283C63.4908 103.355 63.7428 103.459 63.9748 103.595V103.259H65.8948V109.511C65.8948 110.367 65.6108 111.023 65.0428 111.479C64.4828 111.943 63.6708 112.175 62.6068 112.175ZM62.6428 107.999C62.9068 107.999 63.1468 107.959 63.3628 107.879C63.5868 107.799 63.7828 107.683 63.9508 107.531V105.287C63.7828 105.143 63.5868 105.031 63.3628 104.951C63.1468 104.863 62.9108 104.819 62.6548 104.819C62.3428 104.819 62.0588 104.891 61.8028 105.035C61.5548 105.171 61.3548 105.359 61.2028 105.599C61.0588 105.831 60.9868 106.095 60.9868 106.391C60.9868 106.695 61.0588 106.971 61.2028 107.219C61.3468 107.459 61.5428 107.651 61.7908 107.795C62.0468 107.931 62.3308 107.999 62.6428 107.999ZM71.8332 109.607V103.259H73.7772V103.667C74.2252 103.315 74.7532 103.139 75.3612 103.139C75.7612 103.139 76.1212 103.215 76.4412 103.367C76.7612 103.519 77.0292 103.735 77.2452 104.015C77.5012 103.735 77.8052 103.519 78.1572 103.367C78.5092 103.215 78.8932 103.139 79.3092 103.139C79.7892 103.139 80.2132 103.247 80.5812 103.463C80.9492 103.679 81.2372 103.979 81.4452 104.363C81.6612 104.747 81.7692 105.191 81.7692 105.695V109.607H79.8252V105.959C79.8252 105.607 79.7292 105.327 79.5372 105.119C79.3532 104.911 79.1052 104.807 78.7932 104.807C78.5772 104.807 78.3812 104.847 78.2052 104.927C78.0292 105.007 77.8772 105.127 77.7492 105.287C77.7572 105.351 77.7612 105.419 77.7612 105.491C77.7692 105.555 77.7732 105.623 77.7732 105.695V109.607H75.8292V105.959C75.8292 105.607 75.7332 105.327 75.5412 105.119C75.3572 104.911 75.1092 104.807 74.7972 104.807C74.5812 104.807 74.3852 104.847 74.2092 104.927C74.0412 104.999 73.8972 105.111 73.7772 105.263V109.607H71.8332ZM87.2751 109.727C86.6271 109.727 86.0431 109.583 85.5231 109.295C85.0031 108.999 84.5911 108.603 84.2871 108.107C83.9831 107.611 83.8311 107.055 83.8311 106.439C83.8311 105.823 83.9831 105.267 84.2871 104.771C84.5911 104.267 85.0031 103.871 85.5231 103.583C86.0431 103.287 86.6271 103.139 87.2751 103.139C87.9231 103.139 88.5071 103.287 89.0271 103.583C89.5471 103.871 89.9591 104.267 90.2631 104.771C90.5671 105.267 90.7191 105.823 90.7191 106.439C90.7191 107.055 90.5671 107.611 90.2631 108.107C89.9591 108.603 89.5471 108.999 89.0271 109.295C88.5071 109.583 87.9231 109.727 87.2751 109.727ZM87.2751 108.047C87.5711 108.047 87.8351 107.975 88.0671 107.831C88.2991 107.687 88.4831 107.495 88.6191 107.255C88.7551 107.007 88.8231 106.735 88.8231 106.439C88.8231 106.135 88.7551 105.863 88.6191 105.623C88.4831 105.375 88.2951 105.179 88.0551 105.035C87.8231 104.891 87.5631 104.819 87.2751 104.819C86.9871 104.819 86.7231 104.891 86.4831 105.035C86.2511 105.179 86.0671 105.375 85.9311 105.623C85.7951 105.863 85.7271 106.135 85.7271 106.439C85.7271 106.735 85.7951 107.007 85.9311 107.255C86.0671 107.495 86.2511 107.687 86.4831 107.831C86.7231 107.975 86.9871 108.047 87.2751 108.047ZM92.8309 109.607V101.207L94.7749 100.907V103.703C95.2709 103.351 95.8309 103.175 96.4549 103.175C97.0629 103.175 97.6109 103.323 98.0989 103.619C98.5869 103.907 98.9749 104.299 99.2629 104.795C99.5509 105.283 99.6949 105.831 99.6949 106.439C99.6949 107.047 99.5469 107.599 99.2509 108.095C98.9629 108.583 98.5669 108.971 98.0629 109.259C97.5669 109.547 97.0109 109.691 96.3949 109.691C96.0989 109.691 95.8109 109.655 95.5309 109.583C95.2509 109.503 94.9909 109.391 94.7509 109.247V109.607H92.8309ZM96.1189 108.047C96.4389 108.047 96.7229 107.979 96.9709 107.843C97.2189 107.699 97.4149 107.507 97.5589 107.267C97.7109 107.019 97.7869 106.743 97.7869 106.439C97.7869 106.135 97.7109 105.863 97.5589 105.623C97.4149 105.375 97.2149 105.183 96.9589 105.047C96.7109 104.903 96.4309 104.831 96.1189 104.831C95.8469 104.831 95.5989 104.875 95.3749 104.963C95.1509 105.043 94.9509 105.167 94.7749 105.335V107.555C94.9429 107.707 95.1429 107.827 95.3749 107.915C95.6069 108.003 95.8549 108.047 96.1189 108.047ZM101.812 109.607V103.259H103.756V109.607H101.812ZM102.784 102.671C102.488 102.671 102.236 102.567 102.028 102.359C101.82 102.151 101.716 101.899 101.716 101.603C101.716 101.307 101.82 101.055 102.028 100.847C102.236 100.639 102.488 100.535 102.784 100.535C103.08 100.535 103.332 100.639 103.54 100.847C103.748 101.055 103.852 101.307 103.852 101.603C103.852 101.899 103.748 102.151 103.54 102.359C103.332 102.567 103.08 102.671 102.784 102.671ZM106.153 109.607V101.207L108.097 100.907V109.607H106.153ZM113.661 109.727C113.013 109.727 112.425 109.583 111.897 109.295C111.377 108.999 110.965 108.603 110.661 108.107C110.357 107.611 110.205 107.055 110.205 106.439C110.205 105.823 110.349 105.267 110.637 104.771C110.933 104.275 111.333 103.883 111.837 103.595C112.341 103.299 112.901 103.151 113.517 103.151C114.141 103.151 114.693 103.303 115.173 103.607C115.653 103.903 116.029 104.311 116.301 104.831C116.581 105.351 116.721 105.947 116.721 106.619V107.099H112.197C112.285 107.299 112.401 107.475 112.545 107.627C112.697 107.779 112.877 107.899 113.085 107.987C113.293 108.067 113.517 108.107 113.757 108.107C114.021 108.107 114.261 108.067 114.477 107.987C114.693 107.899 114.877 107.779 115.029 107.627L116.313 108.767C115.913 109.103 115.501 109.347 115.077 109.499C114.661 109.651 114.189 109.727 113.661 109.727ZM112.161 105.743H114.813C114.749 105.535 114.649 105.359 114.513 105.215C114.385 105.063 114.233 104.947 114.057 104.867C113.881 104.779 113.689 104.735 113.481 104.735C113.265 104.735 113.069 104.775 112.893 104.855C112.717 104.935 112.565 105.051 112.437 105.203C112.317 105.347 112.225 105.527 112.161 105.743ZM30.6008 128.055V119.259H32.5208V119.727C33.0248 119.359 33.5928 119.175 34.2248 119.175C34.8328 119.175 35.3808 119.323 35.8688 119.619C36.3568 119.907 36.7448 120.299 37.0328 120.795C37.3208 121.283 37.4648 121.831 37.4648 122.439C37.4648 123.047 37.3168 123.599 37.0208 124.095C36.7328 124.583 36.3368 124.971 35.8328 125.259C35.3368 125.547 34.7808 125.691 34.1648 125.691C33.8688 125.691 33.5848 125.655 33.3128 125.583C33.0408 125.511 32.7848 125.407 32.5448 125.271V128.055H30.6008ZM33.8888 124.047C34.2088 124.047 34.4928 123.979 34.7408 123.843C34.9888 123.699 35.1848 123.507 35.3288 123.267C35.4808 123.019 35.5568 122.743 35.5568 122.439C35.5568 122.135 35.4808 121.863 35.3288 121.623C35.1848 121.375 34.9848 121.183 34.7288 121.047C34.4808 120.903 34.2008 120.831 33.8888 120.831C33.6168 120.831 33.3688 120.875 33.1448 120.963C32.9208 121.043 32.7208 121.167 32.5448 121.335V123.555C32.7128 123.707 32.9128 123.827 33.1448 123.915C33.3768 124.003 33.6248 124.047 33.8888 124.047ZM39.582 125.607V119.259H41.526V119.895C41.734 119.639 41.978 119.447 42.258 119.319C42.538 119.183 42.85 119.115 43.194 119.115C43.538 119.123 43.782 119.175 43.926 119.271V120.963C43.798 120.899 43.654 120.851 43.494 120.819C43.334 120.787 43.17 120.771 43.002 120.771C42.698 120.771 42.414 120.843 42.15 120.987C41.894 121.123 41.686 121.319 41.526 121.575V125.607H39.582ZM48.9419 125.727C48.2939 125.727 47.7099 125.583 47.1899 125.295C46.6699 124.999 46.2579 124.603 45.9539 124.107C45.6499 123.611 45.4979 123.055 45.4979 122.439C45.4979 121.823 45.6499 121.267 45.9539 120.771C46.2579 120.267 46.6699 119.871 47.1899 119.583C47.7099 119.287 48.2939 119.139 48.9419 119.139C49.5899 119.139 50.1739 119.287 50.6939 119.583C51.2139 119.871 51.6259 120.267 51.9299 120.771C52.2339 121.267 52.3859 121.823 52.3859 122.439C52.3859 123.055 52.2339 123.611 51.9299 124.107C51.6259 124.603 51.2139 124.999 50.6939 125.295C50.1739 125.583 49.5899 125.727 48.9419 125.727ZM48.9419 124.047C49.2379 124.047 49.5019 123.975 49.7339 123.831C49.9659 123.687 50.1499 123.495 50.2859 123.255C50.4219 123.007 50.4899 122.735 50.4899 122.439C50.4899 122.135 50.4219 121.863 50.2859 121.623C50.1499 121.375 49.9619 121.179 49.7219 121.035C49.4899 120.891 49.2299 120.819 48.9419 120.819C48.6539 120.819 48.3899 120.891 48.1499 121.035C47.9179 121.179 47.7339 121.375 47.5979 121.623C47.4619 121.863 47.3939 122.135 47.3939 122.439C47.3939 122.735 47.4619 123.007 47.5979 123.255C47.7339 123.495 47.9179 123.687 48.1499 123.831C48.3899 123.975 48.6539 124.047 48.9419 124.047ZM57.5142 125.691C56.7542 125.691 56.1782 125.523 55.7862 125.187C55.4022 124.843 55.2102 124.339 55.2102 123.675V120.879H53.9262V119.259H55.2102V117.627L57.1542 117.207V119.259H58.9302V120.879H57.1542V123.291C57.1542 123.571 57.2142 123.771 57.3342 123.891C57.4622 124.003 57.6822 124.059 57.9942 124.059C58.1542 124.059 58.2982 124.051 58.4262 124.035C58.5622 124.011 58.7102 123.975 58.8702 123.927V125.499C58.6942 125.555 58.4702 125.599 58.1982 125.631C57.9262 125.671 57.6982 125.691 57.5142 125.691ZM63.9865 125.727C63.3385 125.727 62.7545 125.583 62.2345 125.295C61.7145 124.999 61.3025 124.603 60.9985 124.107C60.6945 123.611 60.5425 123.055 60.5425 122.439C60.5425 121.823 60.6945 121.267 60.9985 120.771C61.3025 120.267 61.7145 119.871 62.2345 119.583C62.7545 119.287 63.3385 119.139 63.9865 119.139C64.6345 119.139 65.2185 119.287 65.7385 119.583C66.2585 119.871 66.6705 120.267 66.9745 120.771C67.2785 121.267 67.4305 121.823 67.4305 122.439C67.4305 123.055 67.2785 123.611 66.9745 124.107C66.6705 124.603 66.2585 124.999 65.7385 125.295C65.2185 125.583 64.6345 125.727 63.9865 125.727ZM63.9865 124.047C64.2825 124.047 64.5465 123.975 64.7785 123.831C65.0105 123.687 65.1945 123.495 65.3305 123.255C65.4665 123.007 65.5345 122.735 65.5345 122.439C65.5345 122.135 65.4665 121.863 65.3305 121.623C65.1945 121.375 65.0065 121.179 64.7665 121.035C64.5345 120.891 64.2745 120.819 63.9865 120.819C63.6985 120.819 63.4345 120.891 63.1945 121.035C62.9625 121.179 62.7785 121.375 62.6425 121.623C62.5065 121.863 62.4385 122.135 62.4385 122.439C62.4385 122.735 62.5065 123.007 62.6425 123.255C62.7785 123.495 62.9625 123.687 63.1945 123.831C63.4345 123.975 63.6985 124.047 63.9865 124.047ZM72.5587 125.691C71.7987 125.691 71.2227 125.523 70.8307 125.187C70.4467 124.843 70.2547 124.339 70.2547 123.675V120.879H68.9707V119.259H70.2547V117.627L72.1987 117.207V119.259H73.9747V120.879H72.1987V123.291C72.1987 123.571 72.2587 123.771 72.3787 123.891C72.5067 124.003 72.7267 124.059 73.0387 124.059C73.1987 124.059 73.3427 124.051 73.4707 124.035C73.6067 124.011 73.7547 123.975 73.9147 123.927V125.499C73.7387 125.555 73.5147 125.599 73.2427 125.631C72.9707 125.671 72.7427 125.691 72.5587 125.691ZM76.8068 128.199C76.6548 128.199 76.5068 128.191 76.3628 128.175C76.2188 128.167 76.0988 128.151 76.0028 128.127V126.471C76.1628 126.503 76.3628 126.519 76.6028 126.519C77.2268 126.519 77.6468 126.247 77.8628 125.703V125.691L75.4268 119.259H77.5748L78.9788 123.255L80.6108 119.259H82.7108L79.8668 125.931C79.6348 126.483 79.3788 126.923 79.0988 127.251C78.8188 127.587 78.4948 127.827 78.1268 127.971C77.7588 128.123 77.3188 128.199 76.8068 128.199ZM84.4813 128.055V119.259H86.4013V119.727C86.9053 119.359 87.4733 119.175 88.1053 119.175C88.7133 119.175 89.2613 119.323 89.7493 119.619C90.2373 119.907 90.6253 120.299 90.9133 120.795C91.2013 121.283 91.3453 121.831 91.3453 122.439C91.3453 123.047 91.1973 123.599 90.9013 124.095C90.6133 124.583 90.2173 124.971 89.7133 125.259C89.2173 125.547 88.6613 125.691 88.0453 125.691C87.7493 125.691 87.4653 125.655 87.1933 125.583C86.9213 125.511 86.6653 125.407 86.4253 125.271V128.055H84.4813ZM87.7693 124.047C88.0893 124.047 88.3733 123.979 88.6213 123.843C88.8693 123.699 89.0653 123.507 89.2093 123.267C89.3613 123.019 89.4373 122.743 89.4373 122.439C89.4373 122.135 89.3613 121.863 89.2093 121.623C89.0653 121.375 88.8653 121.183 88.6093 121.047C88.3613 120.903 88.0813 120.831 87.7693 120.831C87.4973 120.831 87.2493 120.875 87.0253 120.963C86.8013 121.043 86.6013 121.167 86.4253 121.335V123.555C86.5933 123.707 86.7933 123.827 87.0253 123.915C87.2573 124.003 87.5053 124.047 87.7693 124.047ZM96.6305 125.727C95.9825 125.727 95.3945 125.583 94.8665 125.295C94.3465 124.999 93.9345 124.603 93.6305 124.107C93.3265 123.611 93.1745 123.055 93.1745 122.439C93.1745 121.823 93.3185 121.267 93.6065 120.771C93.9025 120.275 94.3025 119.883 94.8065 119.595C95.3105 119.299 95.8705 119.151 96.4865 119.151C97.1105 119.151 97.6625 119.303 98.1425 119.607C98.6225 119.903 98.9985 120.311 99.2705 120.831C99.5505 121.351 99.6905 121.947 99.6905 122.619V123.099H95.1665C95.2545 123.299 95.3705 123.475 95.5145 123.627C95.6665 123.779 95.8465 123.899 96.0545 123.987C96.2625 124.067 96.4865 124.107 96.7265 124.107C96.9905 124.107 97.2305 124.067 97.4465 123.987C97.6625 123.899 97.8465 123.779 97.9985 123.627L99.2825 124.767C98.8825 125.103 98.4705 125.347 98.0465 125.499C97.6305 125.651 97.1585 125.727 96.6305 125.727ZM95.1305 121.743H97.7825C97.7185 121.535 97.6185 121.359 97.4825 121.215C97.3545 121.063 97.2025 120.947 97.0265 120.867C96.8505 120.779 96.6585 120.735 96.4505 120.735C96.2345 120.735 96.0385 120.775 95.8625 120.855C95.6865 120.935 95.5345 121.051 95.4065 121.203C95.2865 121.347 95.1945 121.527 95.1305 121.743Z" fill="#100B00"/>
<path d="M47.0434 71.8728C45.7003 71.8728 44.5251 71.3827 43.5178 70.4026C42.5105 69.4226 42.0068 68.2791 42.0068 66.9724V4.90042C42.0068 3.59364 42.5105 2.45021 43.5178 1.47012C44.5251 0.490042 45.7003 0 47.0434 0H83.978C85.3211 0 86.4963 0.490042 87.5036 1.47012C88.5109 2.45021 89.0145 3.59364 89.0145 4.90042V66.9724C89.0145 68.2791 88.5109 69.4226 87.5036 70.4026C86.4963 71.3827 85.3211 71.8728 83.978 71.8728H47.0434ZM65.5107 65.7472C66.2382 65.7472 66.8398 65.5158 67.3154 65.053C67.7911 64.5902 68.029 64.0049 68.029 63.297C68.029 62.5892 67.7911 62.0039 67.3154 61.5411C66.8398 61.0782 66.2382 60.8468 65.5107 60.8468C64.7832 60.8468 64.1816 61.0782 63.7059 61.5411C63.2302 62.0039 62.9924 62.5892 62.9924 63.297C62.9924 64.0049 63.2302 64.5902 63.7059 65.053C64.1816 65.5158 64.7832 65.7472 65.5107 65.7472ZM47.0434 54.7213H83.978V7.35062H47.0434V54.7213Z" fill="#100B00"/>
</svg>
