<svg width="78" height="114" viewBox="0 0 78 114" fill="none" xmlns="http://www.w3.org/2000/svg">
<path d="M12.7012 112.448V103.652H14.6212V104.12C15.1252 103.752 15.6932 103.568 16.3252 103.568C16.9332 103.568 17.4812 103.716 17.9692 104.012C18.4572 104.3 18.8452 104.692 19.1332 105.188C19.4212 105.676 19.5652 106.224 19.5652 106.832C19.5652 107.44 19.4172 107.992 19.1212 108.488C18.8332 108.976 18.4372 109.364 17.9332 109.652C17.4372 109.94 16.8812 110.084 16.2652 110.084C15.9692 110.084 15.6852 110.048 15.4132 109.976C15.1412 109.904 14.8852 109.8 14.6452 109.664V112.448H12.7012ZM15.9892 108.44C16.3092 108.44 16.5932 108.372 16.8412 108.236C17.0892 108.092 17.2852 107.9 17.4292 107.66C17.5812 107.412 17.6572 107.136 17.6572 106.832C17.6572 106.528 17.5812 106.256 17.4292 106.016C17.2852 105.768 17.0852 105.576 16.8292 105.44C16.5812 105.296 16.3012 105.224 15.9892 105.224C15.7172 105.224 15.4692 105.268 15.2452 105.356C15.0212 105.436 14.8212 105.56 14.6452 105.728V107.948C14.8132 108.1 15.0132 108.22 15.2452 108.308C15.4772 108.396 15.7252 108.44 15.9892 108.44ZM21.6824 110V103.652H23.6264V104.288C23.8344 104.032 24.0784 103.84 24.3584 103.712C24.6384 103.576 24.9504 103.508 25.2944 103.508C25.6384 103.516 25.8824 103.568 26.0264 103.664V105.356C25.8984 105.292 25.7544 105.244 25.5944 105.212C25.4344 105.18 25.2704 105.164 25.1024 105.164C24.7984 105.164 24.5144 105.236 24.2504 105.38C23.9944 105.516 23.7864 105.712 23.6264 105.968V110H21.6824ZM31.0423 110.12C30.3943 110.12 29.8103 109.976 29.2903 109.688C28.7703 109.392 28.3583 108.996 28.0543 108.5C27.7503 108.004 27.5983 107.448 27.5983 106.832C27.5983 106.216 27.7503 105.66 28.0543 105.164C28.3583 104.66 28.7703 104.264 29.2903 103.976C29.8103 103.68 30.3943 103.532 31.0423 103.532C31.6903 103.532 32.2743 103.68 32.7943 103.976C33.3143 104.264 33.7263 104.66 34.0303 105.164C34.3343 105.66 34.4863 106.216 34.4863 106.832C34.4863 107.448 34.3343 108.004 34.0303 108.5C33.7263 108.996 33.3143 109.392 32.7943 109.688C32.2743 109.976 31.6903 110.12 31.0423 110.12ZM31.0423 108.44C31.3383 108.44 31.6023 108.368 31.8343 108.224C32.0663 108.08 32.2503 107.888 32.3863 107.648C32.5223 107.4 32.5903 107.128 32.5903 106.832C32.5903 106.528 32.5223 106.256 32.3863 106.016C32.2503 105.768 32.0623 105.572 31.8223 105.428C31.5903 105.284 31.3303 105.212 31.0423 105.212C30.7543 105.212 30.4903 105.284 30.2503 105.428C30.0183 105.572 29.8343 105.768 29.6983 106.016C29.5623 106.256 29.4943 106.528 29.4943 106.832C29.4943 107.128 29.5623 107.4 29.6983 107.648C29.8343 107.888 30.0183 108.08 30.2503 108.224C30.4903 108.368 30.7543 108.44 31.0423 108.44ZM37.57 103.064C37.274 103.064 37.022 102.96 36.814 102.752C36.606 102.544 36.502 102.292 36.502 101.996C36.502 101.7 36.606 101.448 36.814 101.24C37.022 101.032 37.274 100.928 37.57 100.928C37.866 100.928 38.118 101.032 38.326 101.24C38.534 101.448 38.638 101.7 38.638 101.996C38.638 102.292 38.534 102.544 38.326 102.752C38.118 102.96 37.866 103.064 37.57 103.064ZM36.322 112.568C36.154 112.568 35.978 112.556 35.794 112.532C35.61 112.508 35.462 112.48 35.35 112.448V110.984C35.51 111.016 35.698 111.032 35.914 111.032C36.146 111.032 36.318 110.984 36.43 110.888C36.542 110.8 36.598 110.656 36.598 110.456V103.652H38.542V110.564C38.542 111.196 38.35 111.688 37.966 112.04C37.582 112.392 37.034 112.568 36.322 112.568ZM44.1067 110.12C43.4587 110.12 42.8707 109.976 42.3427 109.688C41.8227 109.392 41.4107 108.996 41.1067 108.5C40.8027 108.004 40.6507 107.448 40.6507 106.832C40.6507 106.216 40.7947 105.66 41.0827 105.164C41.3787 104.668 41.7787 104.276 42.2827 103.988C42.7867 103.692 43.3467 103.544 43.9627 103.544C44.5867 103.544 45.1387 103.696 45.6187 104C46.0987 104.296 46.4747 104.704 46.7467 105.224C47.0267 105.744 47.1667 106.34 47.1667 107.012V107.492H42.6427C42.7307 107.692 42.8467 107.868 42.9907 108.02C43.1427 108.172 43.3227 108.292 43.5307 108.38C43.7387 108.46 43.9627 108.5 44.2027 108.5C44.4667 108.5 44.7067 108.46 44.9227 108.38C45.1387 108.292 45.3227 108.172 45.4747 108.02L46.7587 109.16C46.3587 109.496 45.9467 109.74 45.5227 109.892C45.1067 110.044 44.6347 110.12 44.1067 110.12ZM42.6067 106.136H45.2587C45.1947 105.928 45.0947 105.752 44.9587 105.608C44.8307 105.456 44.6787 105.34 44.5027 105.26C44.3267 105.172 44.1347 105.128 43.9267 105.128C43.7107 105.128 43.5147 105.168 43.3387 105.248C43.1627 105.328 43.0107 105.444 42.8827 105.596C42.7627 105.74 42.6707 105.92 42.6067 106.136ZM52.406 110.12C51.774 110.12 51.202 109.976 50.69 109.688C50.186 109.4 49.786 109.008 49.49 108.512C49.194 108.008 49.046 107.448 49.046 106.832C49.046 106.208 49.194 105.648 49.49 105.152C49.786 104.656 50.186 104.264 50.69 103.976C51.202 103.68 51.774 103.532 52.406 103.532C52.926 103.532 53.422 103.636 53.894 103.844C54.366 104.044 54.766 104.332 55.094 104.708L53.906 105.944C53.682 105.688 53.454 105.504 53.222 105.392C52.99 105.272 52.734 105.212 52.454 105.212C52.174 105.212 51.922 105.284 51.698 105.428C51.474 105.564 51.298 105.756 51.17 106.004C51.042 106.244 50.978 106.52 50.978 106.832C50.978 107.136 51.042 107.412 51.17 107.66C51.306 107.9 51.49 108.092 51.722 108.236C51.954 108.372 52.214 108.44 52.502 108.44C52.766 108.44 53.01 108.384 53.234 108.272C53.458 108.16 53.674 107.988 53.882 107.756L55.034 108.956C54.714 109.324 54.322 109.612 53.858 109.82C53.394 110.02 52.91 110.12 52.406 110.12ZM60.3239 110.084C59.5639 110.084 58.9879 109.916 58.5959 109.58C58.2119 109.236 58.0199 108.732 58.0199 108.068V105.272H56.7359V103.652H58.0199V102.02L59.9639 101.6V103.652H61.7399V105.272H59.9639V107.684C59.9639 107.964 60.0239 108.164 60.1439 108.284C60.2719 108.396 60.4919 108.452 60.8039 108.452C60.9639 108.452 61.1079 108.444 61.2359 108.428C61.3719 108.404 61.5199 108.368 61.6799 108.32V109.892C61.5039 109.948 61.2799 109.992 61.0079 110.024C60.7359 110.064 60.5079 110.084 60.3239 110.084Z" fill="#100B00"/>
<path d="M70.1245 42.5539V9C70.1245 5.68629 67.4382 3 64.1245 3H9C5.68629 3 3 5.6863 3 9.00001V76.1078C3 79.4215 5.68629 82.1078 9 82.1078H36.5622" stroke="black" stroke-width="5" stroke-linecap="square"/>
<path d="M15.0823 19.8591L18.4385 23.1012L24.4797 17.2654" stroke="black" stroke-linecap="round"/>
<path d="M15.0823 32.8276L18.4385 36.0697L24.4797 30.2339" stroke="black" stroke-linecap="round"/>
<path d="M15.0823 45.7958L18.4385 49.038L24.4797 43.2021" stroke="black" stroke-linecap="round"/>
<path d="M15.0823 58.7646L18.4385 62.0067L24.4797 56.1709" stroke="black" stroke-linecap="round"/>
<path d="M32.5347 19.8589H60.7269" stroke="black" stroke-linecap="round"/>
<path d="M32.5347 32.8271H60.7269" stroke="black" stroke-linecap="round"/>
<path d="M32.5347 45.7959H60.7269" stroke="black" stroke-linecap="round"/>
<path d="M32.5347 58.7642H44.6171" stroke="black" stroke-linecap="round"/>
<path d="M71.1794 47.686L76.0033 52.1421C76.5104 52.6106 76.5277 53.388 76.0421 53.8786L54.7809 75.3562L48.1207 69.2037L69.3818 47.7262C69.8675 47.2355 70.6723 47.2176 71.1794 47.686Z" stroke="black" stroke-width="1.5"/>
<path d="M43.5006 80.3111L48.6344 70.25L53.676 74.9072L43.5006 80.3111Z" stroke="black" stroke-width="1.5"/>
</svg>
