<svg width="78" height="114" viewBox="0 0 78 114" fill="none" xmlns="http://www.w3.org/2000/svg">
<path d="M2.60078 112.448V103.652H4.52078V104.12C5.02478 103.752 5.59278 103.568 6.22478 103.568C6.83278 103.568 7.38078 103.716 7.86878 104.012C8.35678 104.3 8.74478 104.692 9.03278 105.188C9.32078 105.676 9.46478 106.224 9.46478 106.832C9.46478 107.44 9.31678 107.992 9.02078 108.488C8.73278 108.976 8.33678 109.364 7.83278 109.652C7.33678 109.94 6.78078 110.084 6.16478 110.084C5.86878 110.084 5.58478 110.048 5.31278 109.976C5.04078 109.904 4.78478 109.8 4.54478 109.664V112.448H2.60078ZM5.88878 108.44C6.20878 108.44 6.49278 108.372 6.74078 108.236C6.98878 108.092 7.18478 107.9 7.32878 107.66C7.48078 107.412 7.55678 107.136 7.55678 106.832C7.55678 106.528 7.48078 106.256 7.32878 106.016C7.18478 105.768 6.98478 105.576 6.72878 105.44C6.48078 105.296 6.20078 105.224 5.88878 105.224C5.61678 105.224 5.36878 105.268 5.14478 105.356C4.92078 105.436 4.72078 105.56 4.54478 105.728V107.948C4.71278 108.1 4.91278 108.22 5.14478 108.308C5.37678 108.396 5.62478 108.44 5.88878 108.44ZM11.582 110V103.652H13.526V104.288C13.734 104.032 13.978 103.84 14.258 103.712C14.538 103.576 14.85 103.508 15.194 103.508C15.538 103.516 15.782 103.568 15.926 103.664V105.356C15.798 105.292 15.654 105.244 15.494 105.212C15.334 105.18 15.17 105.164 15.002 105.164C14.698 105.164 14.414 105.236 14.15 105.38C13.894 105.516 13.686 105.712 13.526 105.968V110H11.582ZM20.9419 110.12C20.2939 110.12 19.7099 109.976 19.1899 109.688C18.6699 109.392 18.2579 108.996 17.9539 108.5C17.6499 108.004 17.4979 107.448 17.4979 106.832C17.4979 106.216 17.6499 105.66 17.9539 105.164C18.2579 104.66 18.6699 104.264 19.1899 103.976C19.7099 103.68 20.2939 103.532 20.9419 103.532C21.5899 103.532 22.1739 103.68 22.6939 103.976C23.2139 104.264 23.6259 104.66 23.9299 105.164C24.2339 105.66 24.3859 106.216 24.3859 106.832C24.3859 107.448 24.2339 108.004 23.9299 108.5C23.6259 108.996 23.2139 109.392 22.6939 109.688C22.1739 109.976 21.5899 110.12 20.9419 110.12ZM20.9419 108.44C21.2379 108.44 21.5019 108.368 21.7339 108.224C21.9659 108.08 22.1499 107.888 22.2859 107.648C22.4219 107.4 22.4899 107.128 22.4899 106.832C22.4899 106.528 22.4219 106.256 22.2859 106.016C22.1499 105.768 21.9619 105.572 21.7219 105.428C21.4899 105.284 21.2299 105.212 20.9419 105.212C20.6539 105.212 20.3899 105.284 20.1499 105.428C19.9179 105.572 19.7339 105.768 19.5979 106.016C19.4619 106.256 19.3939 106.528 19.3939 106.832C19.3939 107.128 19.4619 107.4 19.5979 107.648C19.7339 107.888 19.9179 108.08 20.1499 108.224C20.3899 108.368 20.6539 108.44 20.9419 108.44ZM29.5142 110.084C28.7542 110.084 28.1782 109.916 27.7862 109.58C27.4022 109.236 27.2102 108.732 27.2102 108.068V105.272H25.9262V103.652H27.2102V102.02L29.1542 101.6V103.652H30.9302V105.272H29.1542V107.684C29.1542 107.964 29.2142 108.164 29.3342 108.284C29.4622 108.396 29.6822 108.452 29.9942 108.452C30.1542 108.452 30.2982 108.444 30.4262 108.428C30.5622 108.404 30.7102 108.368 30.8702 108.32V109.892C30.6942 109.948 30.4702 109.992 30.1982 110.024C29.9262 110.064 29.6982 110.084 29.5142 110.084ZM35.9865 110.12C35.3385 110.12 34.7545 109.976 34.2345 109.688C33.7145 109.392 33.3025 108.996 32.9985 108.5C32.6945 108.004 32.5425 107.448 32.5425 106.832C32.5425 106.216 32.6945 105.66 32.9985 105.164C33.3025 104.66 33.7145 104.264 34.2345 103.976C34.7545 103.68 35.3385 103.532 35.9865 103.532C36.6345 103.532 37.2185 103.68 37.7385 103.976C38.2585 104.264 38.6705 104.66 38.9745 105.164C39.2785 105.66 39.4305 106.216 39.4305 106.832C39.4305 107.448 39.2785 108.004 38.9745 108.5C38.6705 108.996 38.2585 109.392 37.7385 109.688C37.2185 109.976 36.6345 110.12 35.9865 110.12ZM35.9865 108.44C36.2825 108.44 36.5465 108.368 36.7785 108.224C37.0105 108.08 37.1945 107.888 37.3305 107.648C37.4665 107.4 37.5345 107.128 37.5345 106.832C37.5345 106.528 37.4665 106.256 37.3305 106.016C37.1945 105.768 37.0065 105.572 36.7665 105.428C36.5345 105.284 36.2745 105.212 35.9865 105.212C35.6985 105.212 35.4345 105.284 35.1945 105.428C34.9625 105.572 34.7785 105.768 34.6425 106.016C34.5065 106.256 34.4385 106.528 34.4385 106.832C34.4385 107.128 34.5065 107.4 34.6425 107.648C34.7785 107.888 34.9625 108.08 35.1945 108.224C35.4345 108.368 35.6985 108.44 35.9865 108.44ZM44.5587 110.084C43.7987 110.084 43.2227 109.916 42.8307 109.58C42.4467 109.236 42.2547 108.732 42.2547 108.068V105.272H40.9707V103.652H42.2547V102.02L44.1987 101.6V103.652H45.9747V105.272H44.1987V107.684C44.1987 107.964 44.2587 108.164 44.3787 108.284C44.5067 108.396 44.7267 108.452 45.0387 108.452C45.1987 108.452 45.3427 108.444 45.4707 108.428C45.6067 108.404 45.7547 108.368 45.9147 108.32V109.892C45.7387 109.948 45.5147 109.992 45.2427 110.024C44.9707 110.064 44.7427 110.084 44.5587 110.084ZM48.8068 112.592C48.6548 112.592 48.5068 112.584 48.3628 112.568C48.2188 112.56 48.0988 112.544 48.0028 112.52V110.864C48.1628 110.896 48.3628 110.912 48.6028 110.912C49.2268 110.912 49.6468 110.64 49.8628 110.096V110.084L47.4268 103.652H49.5748L50.9788 107.648L52.6108 103.652H54.7108L51.8668 110.324C51.6348 110.876 51.3788 111.316 51.0988 111.644C50.8188 111.98 50.4948 112.22 50.1268 112.364C49.7588 112.516 49.3188 112.592 48.8068 112.592ZM56.4813 112.448V103.652H58.4013V104.12C58.9053 103.752 59.4733 103.568 60.1053 103.568C60.7133 103.568 61.2613 103.716 61.7493 104.012C62.2373 104.3 62.6253 104.692 62.9133 105.188C63.2013 105.676 63.3453 106.224 63.3453 106.832C63.3453 107.44 63.1973 107.992 62.9013 108.488C62.6133 108.976 62.2173 109.364 61.7133 109.652C61.2173 109.94 60.6613 110.084 60.0453 110.084C59.7493 110.084 59.4653 110.048 59.1933 109.976C58.9213 109.904 58.6653 109.8 58.4253 109.664V112.448H56.4813ZM59.7693 108.44C60.0893 108.44 60.3733 108.372 60.6213 108.236C60.8693 108.092 61.0653 107.9 61.2093 107.66C61.3613 107.412 61.4373 107.136 61.4373 106.832C61.4373 106.528 61.3613 106.256 61.2093 106.016C61.0653 105.768 60.8653 105.576 60.6093 105.44C60.3613 105.296 60.0813 105.224 59.7693 105.224C59.4973 105.224 59.2493 105.268 59.0253 105.356C58.8013 105.436 58.6013 105.56 58.4253 105.728V107.948C58.5933 108.1 58.7933 108.22 59.0253 108.308C59.2573 108.396 59.5053 108.44 59.7693 108.44ZM68.6305 110.12C67.9825 110.12 67.3945 109.976 66.8665 109.688C66.3465 109.392 65.9345 108.996 65.6305 108.5C65.3265 108.004 65.1745 107.448 65.1745 106.832C65.1745 106.216 65.3185 105.66 65.6065 105.164C65.9025 104.668 66.3025 104.276 66.8065 103.988C67.3105 103.692 67.8705 103.544 68.4865 103.544C69.1105 103.544 69.6625 103.696 70.1425 104C70.6225 104.296 70.9985 104.704 71.2705 105.224C71.5505 105.744 71.6905 106.34 71.6905 107.012V107.492H67.1665C67.2545 107.692 67.3705 107.868 67.5145 108.02C67.6665 108.172 67.8465 108.292 68.0545 108.38C68.2625 108.46 68.4865 108.5 68.7265 108.5C68.9905 108.5 69.2305 108.46 69.4465 108.38C69.6625 108.292 69.8465 108.172 69.9985 108.02L71.2825 109.16C70.8825 109.496 70.4705 109.74 70.0465 109.892C69.6305 110.044 69.1585 110.12 68.6305 110.12ZM67.1305 106.136H69.7825C69.7185 105.928 69.6185 105.752 69.4825 105.608C69.3545 105.456 69.2025 105.34 69.0265 105.26C68.8505 105.172 68.6585 105.128 68.4505 105.128C68.2345 105.128 68.0385 105.168 67.8625 105.248C67.6865 105.328 67.5345 105.444 67.4065 105.596C67.2865 105.74 67.1945 105.92 67.1305 106.136Z" fill="#100B00"/>
<path d="M70.1245 42.5539V9C70.1245 5.68629 67.4382 3 64.1245 3H9C5.68629 3 3 5.6863 3 9.00001V76.1078C3 79.4215 5.68629 82.1078 9 82.1078H36.5622" stroke="black" stroke-width="5" stroke-linecap="square"/>
<path d="M15.0823 19.8591L18.4385 23.1012L24.4797 17.2654" stroke="black" stroke-linecap="round"/>
<path d="M15.0823 32.8276L18.4385 36.0697L24.4797 30.2339" stroke="black" stroke-linecap="round"/>
<path d="M15.0823 45.7958L18.4385 49.038L24.4797 43.2021" stroke="black" stroke-linecap="round"/>
<path d="M15.0823 58.7646L18.4385 62.0067L24.4797 56.1709" stroke="black" stroke-linecap="round"/>
<path d="M32.5347 19.8589H60.7269" stroke="black" stroke-linecap="round"/>
<path d="M32.5347 32.8271H60.7269" stroke="black" stroke-linecap="round"/>
<path d="M32.5347 45.7959H60.7269" stroke="black" stroke-linecap="round"/>
<path d="M32.5347 58.7642H44.6171" stroke="black" stroke-linecap="round"/>
<path d="M69.3818 47.7262C69.8675 47.2355 70.6723 47.2176 71.1794 47.686L76.0033 52.1421C76.5104 52.6106 76.5277 53.388 76.0421 53.8786L54.7809 75.3562L48.1207 69.2037L69.3818 47.7262Z" stroke="black" stroke-width="1.5"/>
<path d="M43.5006 80.3111L48.6344 70.25L53.676 74.9072L43.5006 80.3111Z" stroke="black" stroke-width="1.5"/>
</svg>
