<svg width="76" height="32" viewBox="0 0 76 32" fill="none" xmlns="http://www.w3.org/2000/svg">
<rect x="45" y="16.071" width="10" height="10" transform="rotate(-45 45 16.071)" fill="#9A9584"/>
<rect x="61.0713" y="16.071" width="10" height="10" transform="rotate(-45 61.0713 16.071)" fill="#9A9584"/>
<rect x="53.0713" y="24.1421" width="10" height="10" transform="rotate(-45 53.0713 24.1421)" fill="#9A9584"/>
<path d="M53.9644 8.96436H60.1422H66.32L60.1422 15.1422L53.9644 8.96436Z" fill="#9A9584"/>
<rect x="1" y="16.071" width="10" height="10" transform="rotate(-45 1 16.071)" fill="#9A9584"/>
<rect x="17.0713" y="16.071" width="10" height="10" transform="rotate(-45 17.0713 16.071)" fill="#9A9584"/>
<rect x="9.07129" y="24.1421" width="10" height="10" transform="rotate(-45 9.07129 24.1421)" fill="#9A9584"/>
<path d="M10 8.96436H16.1778H22.3556L16.1778 15.1422L10 8.96436Z" fill="#9A9584"/>
<rect y="7" width="7" height="76" transform="rotate(-90 0 7)" fill="#9A9584"/>
</svg>
