<svg width="1920" height="241" viewBox="0 0 1920 241" fill="none" xmlns="http://www.w3.org/2000/svg">
<rect x="136" y="133" width="120" height="97" fill="#C7C2AC"/>
<rect x="1639" y="133" width="120" height="103" fill="#C7C2AC"/>
<rect x="450" y="187" width="49" height="49" fill="#C7C2AC"/>
<rect x="676" y="82" width="120" height="120" fill="#C7C2AC"/>
<rect x="840" y="130" width="120" height="105" fill="#C7C2AC"/>
<rect x="1032" y="155" width="140" height="81" fill="#C7C2AC"/>
<rect x="1391" y="121" width="120" height="120" fill="#C7C2AC"/>
<rect x="1262" y="130" width="120" height="100" fill="#C7C2AC"/>
<rect x="1186" y="163" width="120" height="76" fill="#C7C2AC"/>
<rect x="1800" y="142" width="120" height="94" fill="#C7C2AC"/>
<rect x="295" y="155" width="75" height="75" fill="#C7C2AC"/>
<rect y="115" width="75" height="75" fill="#C7C2AC"/>
<rect x="73" y="160" width="75" height="75" fill="#C7C2AC"/>
<rect x="391" y="127" width="75" height="75" fill="#C7C2AC"/>
<rect x="543" y="155" width="75" height="75" fill="#C7C2AC"/>
<rect y="199" width="42" height="42" fill="#C7C2AC"/>
<rect x="48" y="188" width="27" height="27" fill="#C7C2AC"/>
<rect x="222" y="73" width="120" height="120" fill="#C7C2AC" fill-opacity="0.75"/>
<rect x="1725" y="73" width="120" height="120" fill="#C7C2AC" fill-opacity="0.75"/>
<rect x="997" y="130" width="58" height="58" fill="#C7C2AC" fill-opacity="0.75"/>
<rect x="777" y="60" width="58" height="58" fill="#C7C2AC" fill-opacity="0.75"/>
<rect x="590" y="142" width="120" height="88" fill="#C7C2AC" fill-opacity="0.75"/>
<rect x="26" y="56" width="97" height="97" fill="#C7C2AC" fill-opacity="0.5"/>
<rect x="113" y="112" width="30" height="30" fill="#C7C2AC" fill-opacity="0.5"/>
<rect x="1496" y="89" width="66" height="66" fill="#C7C2AC" fill-opacity="0.5"/>
<rect x="1544" y="43" width="66" height="66" fill="#C7C2AC" fill-opacity="0.5"/>
<rect x="1526" y="30" width="35" height="35" fill="#C7C2AC"/>
<rect x="1306" y="73" width="123" height="123" fill="#C7C2AC" fill-opacity="0.5"/>
<rect x="819" y="145" width="156" height="94" fill="#C7C2AC" fill-opacity="0.5"/>
<rect x="488" y="118" width="70" height="70" fill="#C7C2AC" fill-opacity="0.5"/>
<rect x="1221" y="150" width="70" height="70" fill="#C7C2AC" fill-opacity="0.5"/>
<rect x="166" width="60" height="60" fill="#C7C2AC" fill-opacity="0.25"/>
<rect x="1669" width="60" height="60" fill="#C7C2AC" fill-opacity="0.25"/>
<rect x="1076" y="66" width="60" height="60" fill="#C7C2AC" fill-opacity="0.25"/>
<rect x="439" y="93" width="60" height="60" fill="#C7C2AC" fill-opacity="0.25"/>
<rect x="1172" y="125" width="60" height="60" fill="#C7C2AC" fill-opacity="0.25"/>
<rect x="996" y="28" width="60" height="60" fill="#C7C2AC" fill-opacity="0.25"/>
<rect y="177" width="1920" height="64" fill="#C7C2AC"/>
</svg>
