<svg width="130" height="130" viewBox="0 0 130 130" fill="none" xmlns="http://www.w3.org/2000/svg">
<path d="M23.699 110.104L21.971 103.756H23.807L24.743 107.488L25.883 103.756H27.491L28.631 107.5L29.555 103.756H31.367L29.627 110.104H27.767L26.663 106.432L25.571 110.104H23.699ZM36.2998 110.224C35.6518 110.224 35.0678 110.08 34.5478 109.792C34.0278 109.496 33.6158 109.1 33.3118 108.604C33.0078 108.108 32.8558 107.552 32.8558 106.936C32.8558 106.32 33.0078 105.764 33.3118 105.268C33.6158 104.764 34.0278 104.368 34.5478 104.08C35.0678 103.784 35.6518 103.636 36.2998 103.636C36.9478 103.636 37.5318 103.784 38.0518 104.08C38.5718 104.368 38.9838 104.764 39.2878 105.268C39.5918 105.764 39.7438 106.32 39.7438 106.936C39.7438 107.552 39.5918 108.108 39.2878 108.604C38.9838 109.1 38.5718 109.496 38.0518 109.792C37.5318 110.08 36.9478 110.224 36.2998 110.224ZM36.2998 108.544C36.5958 108.544 36.8598 108.472 37.0918 108.328C37.3238 108.184 37.5078 107.992 37.6438 107.752C37.7798 107.504 37.8478 107.232 37.8478 106.936C37.8478 106.632 37.7798 106.36 37.6438 106.12C37.5078 105.872 37.3198 105.676 37.0798 105.532C36.8478 105.388 36.5878 105.316 36.2998 105.316C36.0118 105.316 35.7478 105.388 35.5078 105.532C35.2758 105.676 35.0918 105.872 34.9558 106.12C34.8198 106.36 34.7518 106.632 34.7518 106.936C34.7518 107.232 34.8198 107.504 34.9558 107.752C35.0918 107.992 35.2758 108.184 35.5078 108.328C35.7478 108.472 36.0118 108.544 36.2998 108.544ZM41.8555 110.104V103.756H43.7995V104.392C44.0075 104.136 44.2515 103.944 44.5315 103.816C44.8115 103.68 45.1235 103.612 45.4675 103.612C45.8115 103.62 46.0555 103.672 46.1995 103.768V105.46C46.0715 105.396 45.9275 105.348 45.7675 105.316C45.6075 105.284 45.4435 105.268 45.2755 105.268C44.9715 105.268 44.6875 105.34 44.4235 105.484C44.1675 105.62 43.9595 105.816 43.7995 106.072V110.104H41.8555ZM48.2352 110.104V101.704L50.1792 101.404V106.348L52.7112 103.756H54.8832L52.0632 106.624L55.0752 110.104H52.6152L50.1792 107.26V110.104H48.2352ZM56.5953 110.104V103.756H58.5393V110.104H56.5953ZM57.5673 103.168C57.2713 103.168 57.0193 103.064 56.8113 102.856C56.6033 102.648 56.4993 102.396 56.4993 102.1C56.4993 101.804 56.6033 101.552 56.8113 101.344C57.0193 101.136 57.2713 101.032 57.5673 101.032C57.8633 101.032 58.1153 101.136 58.3233 101.344C58.5313 101.552 58.6353 101.804 58.6353 102.1C58.6353 102.396 58.5313 102.648 58.3233 102.856C58.1153 103.064 57.8633 103.168 57.5673 103.168ZM60.9359 110.104V103.756H62.8799V104.188C63.3599 103.82 63.9279 103.636 64.5839 103.636C65.0799 103.636 65.5159 103.744 65.8919 103.96C66.2759 104.176 66.5759 104.476 66.7919 104.86C67.0079 105.244 67.1159 105.688 67.1159 106.192V110.104H65.1719V106.456C65.1719 106.104 65.0679 105.824 64.8599 105.616C64.6519 105.408 64.3719 105.304 64.0199 105.304C63.7719 105.304 63.5519 105.348 63.3599 105.436C63.1759 105.524 63.0159 105.648 62.8799 105.808V110.104H60.9359ZM72.7119 112.672C72.1999 112.672 71.7119 112.624 71.2479 112.528C70.7919 112.432 70.3759 112.296 69.9999 112.12L70.6479 110.608C70.9919 110.768 71.3319 110.888 71.6679 110.968C72.0039 111.048 72.3399 111.088 72.6759 111.088C73.1319 111.088 73.4759 110.996 73.7079 110.812C73.9399 110.628 74.0559 110.352 74.0559 109.984V109.624C73.5599 109.96 73.0119 110.128 72.4119 110.128C71.8119 110.128 71.2679 109.984 70.7799 109.696C70.2919 109.408 69.9039 109.02 69.6159 108.532C69.3279 108.036 69.1839 107.488 69.1839 106.888C69.1839 106.288 69.3279 105.744 69.6159 105.256C69.9119 104.768 70.3079 104.384 70.8039 104.104C71.3079 103.816 71.8679 103.672 72.4839 103.672C72.7719 103.672 73.0519 103.708 73.3239 103.78C73.5959 103.852 73.8479 103.956 74.0799 104.092V103.756H75.9999V110.008C75.9999 110.864 75.7159 111.52 75.1479 111.976C74.5879 112.44 73.7759 112.672 72.7119 112.672ZM72.7479 108.496C73.0119 108.496 73.2519 108.456 73.4679 108.376C73.6919 108.296 73.8879 108.18 74.0559 108.028V105.784C73.8879 105.64 73.6919 105.528 73.4679 105.448C73.2519 105.36 73.0159 105.316 72.7599 105.316C72.4479 105.316 72.1639 105.388 71.9079 105.532C71.6599 105.668 71.4599 105.856 71.3079 106.096C71.1639 106.328 71.0919 106.592 71.0919 106.888C71.0919 107.192 71.1639 107.468 71.3079 107.716C71.4519 107.956 71.6479 108.148 71.8959 108.292C72.1519 108.428 72.4359 108.496 72.7479 108.496ZM83.1623 110.104L81.4343 103.756H83.2703L84.2063 107.488L85.3463 103.756H86.9543L88.0943 107.5L89.0183 103.756H90.8303L89.0903 110.104H87.2303L86.1263 106.432L85.0343 110.104H83.1623ZM95.775 110.224C95.127 110.224 94.539 110.08 94.011 109.792C93.491 109.496 93.079 109.1 92.775 108.604C92.471 108.108 92.319 107.552 92.319 106.936C92.319 106.32 92.463 105.764 92.751 105.268C93.047 104.772 93.447 104.38 93.951 104.092C94.455 103.796 95.015 103.648 95.631 103.648C96.255 103.648 96.807 103.8 97.287 104.104C97.767 104.4 98.143 104.808 98.415 105.328C98.695 105.848 98.835 106.444 98.835 107.116V107.596H94.311C94.399 107.796 94.515 107.972 94.659 108.124C94.811 108.276 94.991 108.396 95.199 108.484C95.407 108.564 95.631 108.604 95.871 108.604C96.135 108.604 96.375 108.564 96.591 108.484C96.807 108.396 96.991 108.276 97.143 108.124L98.427 109.264C98.027 109.6 97.615 109.844 97.191 109.996C96.775 110.148 96.303 110.224 95.775 110.224ZM94.275 106.24H96.927C96.863 106.032 96.763 105.856 96.627 105.712C96.499 105.56 96.347 105.444 96.171 105.364C95.995 105.276 95.803 105.232 95.595 105.232C95.379 105.232 95.183 105.272 95.007 105.352C94.831 105.432 94.679 105.548 94.551 105.7C94.431 105.844 94.339 106.024 94.275 106.24ZM100.944 110.104V101.704L102.888 101.404V104.2C103.384 103.848 103.944 103.672 104.568 103.672C105.176 103.672 105.724 103.82 106.212 104.116C106.7 104.404 107.088 104.796 107.376 105.292C107.664 105.78 107.808 106.328 107.808 106.936C107.808 107.544 107.66 108.096 107.364 108.592C107.076 109.08 106.68 109.468 106.176 109.756C105.68 110.044 105.124 110.188 104.508 110.188C104.212 110.188 103.924 110.152 103.644 110.08C103.364 110 103.104 109.888 102.864 109.744V110.104H100.944ZM104.232 108.544C104.552 108.544 104.836 108.476 105.084 108.34C105.332 108.196 105.528 108.004 105.672 107.764C105.824 107.516 105.9 107.24 105.9 106.936C105.9 106.632 105.824 106.36 105.672 106.12C105.528 105.872 105.328 105.68 105.072 105.544C104.824 105.4 104.544 105.328 104.232 105.328C103.96 105.328 103.712 105.372 103.488 105.46C103.264 105.54 103.064 105.664 102.888 105.832V108.052C103.056 108.204 103.256 108.324 103.488 108.412C103.72 108.5 103.968 108.544 104.232 108.544ZM30.6008 128.552V119.756H32.5208V120.224C33.0248 119.856 33.5928 119.672 34.2248 119.672C34.8328 119.672 35.3808 119.82 35.8688 120.116C36.3568 120.404 36.7448 120.796 37.0328 121.292C37.3208 121.78 37.4648 122.328 37.4648 122.936C37.4648 123.544 37.3168 124.096 37.0208 124.592C36.7328 125.08 36.3368 125.468 35.8328 125.756C35.3368 126.044 34.7808 126.188 34.1648 126.188C33.8688 126.188 33.5848 126.152 33.3128 126.08C33.0408 126.008 32.7848 125.904 32.5448 125.768V128.552H30.6008ZM33.8888 124.544C34.2088 124.544 34.4928 124.476 34.7408 124.34C34.9888 124.196 35.1848 124.004 35.3288 123.764C35.4808 123.516 35.5568 123.24 35.5568 122.936C35.5568 122.632 35.4808 122.36 35.3288 122.12C35.1848 121.872 34.9848 121.68 34.7288 121.544C34.4808 121.4 34.2008 121.328 33.8888 121.328C33.6168 121.328 33.3688 121.372 33.1448 121.46C32.9208 121.54 32.7208 121.664 32.5448 121.832V124.052C32.7128 124.204 32.9128 124.324 33.1448 124.412C33.3768 124.5 33.6248 124.544 33.8888 124.544ZM39.582 126.104V119.756H41.526V120.392C41.734 120.136 41.978 119.944 42.258 119.816C42.538 119.68 42.85 119.612 43.194 119.612C43.538 119.62 43.782 119.672 43.926 119.768V121.46C43.798 121.396 43.654 121.348 43.494 121.316C43.334 121.284 43.17 121.268 43.002 121.268C42.698 121.268 42.414 121.34 42.15 121.484C41.894 121.62 41.686 121.816 41.526 122.072V126.104H39.582ZM48.9419 126.224C48.2939 126.224 47.7099 126.08 47.1899 125.792C46.6699 125.496 46.2579 125.1 45.9539 124.604C45.6499 124.108 45.4979 123.552 45.4979 122.936C45.4979 122.32 45.6499 121.764 45.9539 121.268C46.2579 120.764 46.6699 120.368 47.1899 120.08C47.7099 119.784 48.2939 119.636 48.9419 119.636C49.5899 119.636 50.1739 119.784 50.6939 120.08C51.2139 120.368 51.6259 120.764 51.9299 121.268C52.2339 121.764 52.3859 122.32 52.3859 122.936C52.3859 123.552 52.2339 124.108 51.9299 124.604C51.6259 125.1 51.2139 125.496 50.6939 125.792C50.1739 126.08 49.5899 126.224 48.9419 126.224ZM48.9419 124.544C49.2379 124.544 49.5019 124.472 49.7339 124.328C49.9659 124.184 50.1499 123.992 50.2859 123.752C50.4219 123.504 50.4899 123.232 50.4899 122.936C50.4899 122.632 50.4219 122.36 50.2859 122.12C50.1499 121.872 49.9619 121.676 49.7219 121.532C49.4899 121.388 49.2299 121.316 48.9419 121.316C48.6539 121.316 48.3899 121.388 48.1499 121.532C47.9179 121.676 47.7339 121.872 47.5979 122.12C47.4619 122.36 47.3939 122.632 47.3939 122.936C47.3939 123.232 47.4619 123.504 47.5979 123.752C47.7339 123.992 47.9179 124.184 48.1499 124.328C48.3899 124.472 48.6539 124.544 48.9419 124.544ZM57.5142 126.188C56.7542 126.188 56.1782 126.02 55.7862 125.684C55.4022 125.34 55.2102 124.836 55.2102 124.172V121.376H53.9262V119.756H55.2102V118.124L57.1542 117.704V119.756H58.9302V121.376H57.1542V123.788C57.1542 124.068 57.2142 124.268 57.3342 124.388C57.4622 124.5 57.6822 124.556 57.9942 124.556C58.1542 124.556 58.2982 124.548 58.4262 124.532C58.5622 124.508 58.7102 124.472 58.8702 124.424V125.996C58.6942 126.052 58.4702 126.096 58.1982 126.128C57.9262 126.168 57.6982 126.188 57.5142 126.188ZM63.9865 126.224C63.3385 126.224 62.7545 126.08 62.2345 125.792C61.7145 125.496 61.3025 125.1 60.9985 124.604C60.6945 124.108 60.5425 123.552 60.5425 122.936C60.5425 122.32 60.6945 121.764 60.9985 121.268C61.3025 120.764 61.7145 120.368 62.2345 120.08C62.7545 119.784 63.3385 119.636 63.9865 119.636C64.6345 119.636 65.2185 119.784 65.7385 120.08C66.2585 120.368 66.6705 120.764 66.9745 121.268C67.2785 121.764 67.4305 122.32 67.4305 122.936C67.4305 123.552 67.2785 124.108 66.9745 124.604C66.6705 125.1 66.2585 125.496 65.7385 125.792C65.2185 126.08 64.6345 126.224 63.9865 126.224ZM63.9865 124.544C64.2825 124.544 64.5465 124.472 64.7785 124.328C65.0105 124.184 65.1945 123.992 65.3305 123.752C65.4665 123.504 65.5345 123.232 65.5345 122.936C65.5345 122.632 65.4665 122.36 65.3305 122.12C65.1945 121.872 65.0065 121.676 64.7665 121.532C64.5345 121.388 64.2745 121.316 63.9865 121.316C63.6985 121.316 63.4345 121.388 63.1945 121.532C62.9625 121.676 62.7785 121.872 62.6425 122.12C62.5065 122.36 62.4385 122.632 62.4385 122.936C62.4385 123.232 62.5065 123.504 62.6425 123.752C62.7785 123.992 62.9625 124.184 63.1945 124.328C63.4345 124.472 63.6985 124.544 63.9865 124.544ZM72.5587 126.188C71.7987 126.188 71.2227 126.02 70.8307 125.684C70.4467 125.34 70.2547 124.836 70.2547 124.172V121.376H68.9707V119.756H70.2547V118.124L72.1987 117.704V119.756H73.9747V121.376H72.1987V123.788C72.1987 124.068 72.2587 124.268 72.3787 124.388C72.5067 124.5 72.7267 124.556 73.0387 124.556C73.1987 124.556 73.3427 124.548 73.4707 124.532C73.6067 124.508 73.7547 124.472 73.9147 124.424V125.996C73.7387 126.052 73.5147 126.096 73.2427 126.128C72.9707 126.168 72.7427 126.188 72.5587 126.188ZM76.8068 128.696C76.6548 128.696 76.5068 128.688 76.3628 128.672C76.2188 128.664 76.0988 128.648 76.0028 128.624V126.968C76.1628 127 76.3628 127.016 76.6028 127.016C77.2268 127.016 77.6468 126.744 77.8628 126.2V126.188L75.4268 119.756H77.5748L78.9788 123.752L80.6108 119.756H82.7108L79.8668 126.428C79.6348 126.98 79.3788 127.42 79.0988 127.748C78.8188 128.084 78.4948 128.324 78.1268 128.468C77.7588 128.62 77.3188 128.696 76.8068 128.696ZM84.4813 128.552V119.756H86.4013V120.224C86.9053 119.856 87.4733 119.672 88.1053 119.672C88.7133 119.672 89.2613 119.82 89.7493 120.116C90.2373 120.404 90.6253 120.796 90.9133 121.292C91.2013 121.78 91.3453 122.328 91.3453 122.936C91.3453 123.544 91.1973 124.096 90.9013 124.592C90.6133 125.08 90.2173 125.468 89.7133 125.756C89.2173 126.044 88.6613 126.188 88.0453 126.188C87.7493 126.188 87.4653 126.152 87.1933 126.08C86.9213 126.008 86.6653 125.904 86.4253 125.768V128.552H84.4813ZM87.7693 124.544C88.0893 124.544 88.3733 124.476 88.6213 124.34C88.8693 124.196 89.0653 124.004 89.2093 123.764C89.3613 123.516 89.4373 123.24 89.4373 122.936C89.4373 122.632 89.3613 122.36 89.2093 122.12C89.0653 121.872 88.8653 121.68 88.6093 121.544C88.3613 121.4 88.0813 121.328 87.7693 121.328C87.4973 121.328 87.2493 121.372 87.0253 121.46C86.8013 121.54 86.6013 121.664 86.4253 121.832V124.052C86.5933 124.204 86.7933 124.324 87.0253 124.412C87.2573 124.5 87.5053 124.544 87.7693 124.544ZM96.6305 126.224C95.9825 126.224 95.3945 126.08 94.8665 125.792C94.3465 125.496 93.9345 125.1 93.6305 124.604C93.3265 124.108 93.1745 123.552 93.1745 122.936C93.1745 122.32 93.3185 121.764 93.6065 121.268C93.9025 120.772 94.3025 120.38 94.8065 120.092C95.3105 119.796 95.8705 119.648 96.4865 119.648C97.1105 119.648 97.6625 119.8 98.1425 120.104C98.6225 120.4 98.9985 120.808 99.2705 121.328C99.5505 121.848 99.6905 122.444 99.6905 123.116V123.596H95.1665C95.2545 123.796 95.3705 123.972 95.5145 124.124C95.6665 124.276 95.8465 124.396 96.0545 124.484C96.2625 124.564 96.4865 124.604 96.7265 124.604C96.9905 124.604 97.2305 124.564 97.4465 124.484C97.6625 124.396 97.8465 124.276 97.9985 124.124L99.2825 125.264C98.8825 125.6 98.4705 125.844 98.0465 125.996C97.6305 126.148 97.1585 126.224 96.6305 126.224ZM95.1305 122.24H97.7825C97.7185 122.032 97.6185 121.856 97.4825 121.712C97.3545 121.56 97.2025 121.444 97.0265 121.364C96.8505 121.276 96.6585 121.232 96.4505 121.232C96.2345 121.232 96.0385 121.272 95.8625 121.352C95.6865 121.432 95.5345 121.548 95.4065 121.7C95.2865 121.844 95.1945 122.024 95.1305 122.24Z" fill="#100B00"/>
<path d="M23.072 73.3053C22.1855 73.3053 21.4524 73.0168 20.8728 72.4399C20.2931 71.8629 20.0033 71.1333 20.0033 70.2509C20.0033 69.3685 20.2931 68.6389 20.8728 68.0619C21.4524 67.485 22.1855 67.1965 23.072 67.1965H106.949C107.836 67.1965 108.569 67.485 109.149 68.0619C109.728 68.6389 110.018 69.3685 110.018 70.2509C110.018 71.1333 109.728 71.8629 109.149 72.4399C108.569 73.0168 107.836 73.3053 106.949 73.3053H23.072ZM30.2322 61.0877C28.5956 61.0877 27.1636 60.4769 25.9361 59.2551C24.7086 58.0333 24.0949 56.608 24.0949 54.979V6.10877C24.0949 4.47977 24.7086 3.05439 25.9361 1.83263C27.1636 0.610877 28.5956 0 30.2322 0H99.7891C101.426 0 102.858 0.610877 104.085 1.83263C105.313 3.05439 105.926 4.47977 105.926 6.10877V54.979C105.926 56.608 105.313 58.0333 104.085 59.2551C102.858 60.4769 101.426 61.0877 99.7891 61.0877H30.2322ZM30.2322 54.979H99.7891V6.10877H30.2322V54.979Z" fill="#100B00"/>
</svg>
